SplineFontDB: 1.0
FontName: FreeMonoBoldOblique
FullName: Free Monospaced Bold Oblique
FamilyName: FreeMono
Weight: Bold
Copyright: Copyright 2002 Free Software Foundation.
Version: 1
ItalicAngle: -12
UnderlinePosition: -100
UnderlineWidth: 50
Ascent: 800
Descent: 200
FSType: 0
PfmFamily: 49
TTFWeight: 700
TTFWidth: 5
Panose: 2 0 8 9 0 0 0 0 0 0LineGap: 90
VLineGap: 0

LangName: 0 "" "" "" "" "" "1" 
Encoding: unicode
DisplaySize: -36
AntiAlias: 1
BeginPrivate: 8
UniqueID 7 5020948
BlueValues 31 [-20 0 437 457 583 603 623 643]
BlueScale 8 0.039625
StdHW 5 [101]
StdVW 5 [103]
StemSnapH 8 [93 101]
StemSnapV 2 []
ForceBold 5 false
EndPrivate
BeginChars: 65536 605
StartChar: exclam
Encoding: 33 33
Width: 600
Flags: HMW
HStem: -15 132
VStem: 234 153<44.5 58>
Fore
490 525 m 2
 398 228 l 1
 388 197 366 179 338 179 c 0
 313 179 298 194 298 219 c 0
 298 221 298 225 299 228 c 1
 333 525 l 2
 338 568 344 585 361 603 c 0
 380 625 408 638 435 638 c 0
 474 638 501 613 501 577 c 0
 501 564 499 553 490 525 c 2
305 -15 m 2
 288 -15 l 2
 256 -15 234 7 234 38 c 0
 234 78 274 117 316 117 c 2
 333 117 l 2
 365 117 387 95 387 65 c 0
 387 24 348 -15 305 -15 c 2
EndSplineSet
EndChar
StartChar: quotedbl
Encoding: 34 34
Width: 600
Flags: HMW
HStem: 312 290<264 277 464 477>
Fore
264 602 m 1
 392 602 l 1
 306 348 l 1
 298 323 287 312 267 312 c 0
 253 312 243 322 243 335 c 0
 243 337 243 342 244 347 c 1
 264 602 l 1
464 602 m 1
 592 602 l 1
 507 348 l 2
 498 322 487 312 467 312 c 0
 453 312 443 322 443 335 c 0
 443 336 443 342 444 347 c 1
 464 602 l 1
EndSplineSet
EndChar
StartChar: numbersign
Encoding: 35 35
Width: 600
Flags: W
HStem: 139 99<157 183 313 355 483 503> 344 100<221 241 371 413 542 568>
VStem: 101.013 458.987<179 199> 165.012 457.988<384 404>
DStem: 184 139 284 139 138 -22 236 -29 242 344 342 344 212 238 312 238 317 612 416 605 270 444 370 444 356 139 455 139 310 -22 408 -29 414 344 513 344 383 238 483 238 489 612 587 605 442 444 541 444
Fore
541 444 m 1
 566 444 l 2
 586 444 592 443 601 440 c 0
 614 436 623 421 623 404 c 0
 623 388 614 371 600 359 c 0
 586 347 576 344 545 344 c 2
 513 344 l 1
 483 238 l 1
 502 238 l 2
 521 238 529 237 537 234 c 0
 550 230 560 215 560 199 c 0
 560 183 551 165 537 154 c 0
 522 142 511 139 481 139 c 2
 455 139 l 1
 408 -29 l 1
 403 -45 392 -67 386 -73 c 0
 373 -85 357 -92 342 -92 c 0
 320 -92 303 -75 303 -54 c 0
 303 -46 303 -46 310 -22 c 2
 356 139 l 1
 284 139 l 1
 236 -29 l 1
 227 -70 205 -92 172 -92 c 0
 150 -92 132 -75 132 -54 c 0
 132 -46 133 -39 138 -22 c 2
 184 139 l 1
 158 139 l 2
 117 139 101 150 101 179 c 0
 101 194 110 212 124 224 c 0
 139 236 148 238 179 238 c 2
 212 238 l 1
 242 344 l 1
 222 344 l 2
 202 344 195 345 187 348 c 0
 174 353 165 368 165 384 c 0
 165 400 174 418 188 430 c 0
 203 442 211 444 243 444 c 2
 270 444 l 1
 317 612 l 1
 328 654 349 675 382 675 c 0
 404 675 422 658 422 638 c 0
 422 630 421 624 416 605 c 1
 370 444 l 1
 442 444 l 1
 489 612 l 2
 497 640 500 646 510 656 c 0
 522 668 538 675 554 675 c 0
 576 675 594 658 594 635 c 0
 594 630 594 630 587 605 c 2
 541 444 l 1
414 344 m 1
 342 344 l 1
 312 238 l 1
 383 238 l 1
 414 344 l 1
EndSplineSet
EndChar
StartChar: dollar
Encoding: 36 36
Width: 600
Flags: HMW
HStem: 34 195 495 189
VStem: 197 106 458 105
Fore
483 618 m 1
 477 592 l 1
 488 590 492 590 500 588 c 2
 510 585 l 2
 517 582 525 579 532 577 c 0
 533 576 536 575 541 574 c 1
 553 579 560 581 570 581 c 0
 593 581 610 565 610 544 c 0
 610 537 609 527 606 515 c 1
 599 483 l 2
 593 455 590 448 580 438 c 0
 567 424 551 417 535 417 c 0
 507 417 492 432 492 460 c 0
 492 478 455 495 415 495 c 0
 350 495 302 465 302 424 c 0
 302 402 323 386 366 377 c 2
 428 363 l 2
 525 342 564 306 564 235 c 0
 564 134 481 50 357 27 c 1
 339 -56 l 2
 333 -84 330 -92 320 -102 c 0
 308 -115 291 -123 276 -123 c 0
 253 -123 236 -107 236 -86 c 0
 236 -79 237 -69 240 -56 c 2
 258 27 l 1
 218 36 212 38 184 52 c 1
 165 38 155 34 141 34 c 0
 117 34 100 50 100 72 c 0
 100 78 101 85 104 101 c 1
 117 162 l 2
 123 190 127 198 137 208 c 0
 150 221 166 229 182 229 c 0
 195 229 208 223 215 214 c 0
 221 207 221 207 222 180 c 0
 224 149 271 124 328 124 c 0
 399 124 458 164 458 214 c 0
 458 240 437 255 389 265 c 2
 319 280 l 2
 237 297 196 338 196 403 c 0
 196 493 275 575 378 592 c 1
 384 618 l 1
 389 645 393 653 403 664 c 0
 415 676 432 684 448 684 c 0
 470 684 487 668 487 646 c 0
 487 639 487 637 483 618 c 1
EndSplineSet
EndChar
StartChar: percent
Encoding: 37 37
Width: 600
Flags: W
HStem: -14.8373 64.8373<371 381> 199 64.1069<409 419> 338.212 64.7877<307 316> 552 64.2146<345 355>
VStem: 188.633 65.3665<462 465> 253 67<98 111> 407 65.2805<492 497> 472 65.1744<138 145>
DStem: 555 390 562 331 168 272 174 213
Fore
360 617 m 0
 427 617 473 572 473 506 c 0
 473 419 389 338 299 338 c 0
 235 338 188 385 188 449 c 0
 188 535 272 617 360 617 c 0
346 552 m 0
 299 552 254 508 254 463 c 0
 254 428 279 403 314 403 c 0
 362 403 407 447 407 493 c 0
 407 527 382 552 346 552 c 0
562 331 m 2
 174 213 l 2
 166 210 158 209 153 209 c 0
 140 209 131 220 131 235 c 0
 131 253 142 264 168 272 c 2
 555 390 l 2
 568 394 570 394 576 394 c 0
 590 394 599 383 599 368 c 0
 599 350 588 338 562 331 c 2
425 264 m 0
 492 264 538 219 538 153 c 0
 538 66 454 -15 364 -15 c 0
 300 -15 253 32 253 96 c 0
 253 182 337 264 425 264 c 0
411 199 m 0
 365 199 320 155 320 109 c 0
 320 75 345 50 379 50 c 0
 427 50 472 93 472 139 c 0
 472 175 447 199 411 199 c 0
EndSplineSet
MinimumDistance: x8,-1 
EndChar
StartChar: ampersand
Encoding: 38 38
Width: 600
Flags: W
HStem: -14 100<255 278> 0 21G<381 442> 0.0521602 279.948<448 464.262> 0.340251 99.6598<456 463> 449.819 99.2762<385 406>
VStem: 102.003 101.997<106 129> 219.611 102.127<374 392>
DStem: 275 220 338 343 333 100 407 198
Fore
407 198 m 1
 448 280 l 1
 500 280 l 2
 520 280 527 279 535 276 c 0
 548 271 557 256 557 241 c 0
 557 210 531 182 502 180 c 1
 483 140 472 121 455 100 c 1
 463 100 l 2
 483 100 490 99 498 96 c 0
 511 92 520 77 520 60 c 0
 520 44 511 26 497 15 c 0
 483 3 470 0 442 0 c 2
 381 0 l 1
 373 15 l 1
 339 -6 307 -14 255 -14 c 0
 160 -14 102 32 102 106 c 0
 102 186 152 260 236 303 c 1
 223 336 219 355 219 374 c 0
 219 460 315 550 406 550 c 0
 430 550 449 545 473 533 c 1
 485 538 495 540 503 540 c 0
 523 540 541 521 541 501 c 0
 541 473 528 458 488 438 c 2
 441 416 l 1
 419 442 405 450 385 450 c 0
 353 450 321 421 321 392 c 0
 321 384 328 362 338 343 c 1
 407 198 l 1
333 100 m 1
 275 220 l 1
 231 201 204 167 204 129 c 0
 204 100 228 86 275 86 c 0
 300 86 312 89 333 100 c 1
EndSplineSet
MinimumDistance: x0,-1 
EndChar
StartChar: quotesingle
Encoding: 39 39
Width: 600
Flags: HMW
HStem: 312 290<364 377>
Fore
364 602 m 1
 492 602 l 1
 407 348 l 2
 398 322 387 312 367 312 c 0
 353 312 343 322 343 335 c 0
 343 337 343 342 344 347 c 1
 364 602 l 1
EndSplineSet
EndChar
StartChar: parenleft
Encoding: 40 40
Width: 600
Flags: HMW
VStem: 304 112<105.5 200>
Fore
572 632 m 0
 596 632 613 616 613 593 c 0
 613 578 608 567 593 549 c 0
 470 401 416 276 416 140 c 0
 416 71 429 9 461 -70 c 0
 466 -82 467 -87 467 -92 c 0
 467 -124 437 -153 405 -153 c 0
 389 -153 377 -147 370 -134 c 0
 333 -72 304 44 304 131 c 0
 304 269 356 398 471 547 c 0
 524 615 544 632 572 632 c 0
EndSplineSet
EndChar
StartChar: parenright
Encoding: 41 41
Width: 600
Flags: HMW
VStem: 291 112<279 374>
Fore
302 632 m 0
 318 632 330 626 337 613 c 0
 374 551 403 435 403 348 c 0
 403 210 353 84 236 -68 c 0
 184 -135 163 -153 135 -153 c 0
 111 -153 94 -137 94 -114 c 0
 94 -99 99 -88 114 -70 c 0
 239 81 291 202 291 340 c 0
 291 408 277 471 246 549 c 0
 241 560 240 565 240 571 c 0
 240 603 269 632 302 632 c 0
EndSplineSet
EndChar
StartChar: asterisk
Encoding: 42 42
Width: 600
Flags: HMW
HStem: 208 414<436 443.5>
VStem: 178 436<447 456.5>
Fore
298 372 m 1
 218 400 l 2
 188 410 178 420 178 441 c 0
 178 472 207 502 238 502 c 0
 246 502 249 501 269 495 c 2
 349 467 l 1
 368 556 l 1
 378 600 399 622 432 622 c 0
 455 622 472 606 472 584 c 0
 472 578 471 569 468 556 c 2
 449 467 l 1
 541 495 l 2
 563 501 566 502 576 502 c 0
 597 502 614 484 614 462 c 0
 614 432 595 413 552 400 c 2
 460 372 l 1
 497 301 l 2
 506 283 508 276 508 267 c 0
 508 238 477 208 446 208 c 0
 426 208 418 214 403 242 c 1
 367 314 l 1
 299 242 l 2
 273 214 263 208 243 208 c 0
 219 208 202 225 202 248 c 0
 202 265 208 276 231 301 c 2
 298 372 l 1
EndSplineSet
EndChar
StartChar: plus
Encoding: 43 43
Width: 600
Flags: W
HStem: 230 100<157 298 422 563> 230 330<407.998 421>
VStem: 101.012 517.988<270 290>
DStem: 299 230 399 230 265 66 365 66 355 494 455 494 321 330 421 330
Fore
399 230 m 1
 365 66 l 1
 359 39 356 31 346 21 c 0
 334 8 316 0 301 0 c 0
 278 0 261 16 261 37 c 0
 261 44 263 57 265 66 c 2
 299 230 l 1
 158 230 l 2
 117 230 101 241 101 270 c 0
 101 286 110 304 124 316 c 0
 139 328 148 330 179 330 c 2
 321 330 l 1
 355 494 l 1
 365 538 386 560 420 560 c 0
 443 560 460 544 460 522 c 0
 460 515 460 513 455 494 c 1
 421 330 l 1
 562 330 l 2
 584 330 588 330 597 326 c 0
 610 321 619 307 619 290 c 0
 619 274 610 257 596 245 c 0
 582 233 570 230 541 230 c 2
 399 230 l 1
EndSplineSet
EndChar
StartChar: comma
Encoding: 44 44
Width: 600
Flags: W
Fore
246 134 m 1
 379 134 l 1
 181 -134 l 2
 169 -150 156 -158 144 -158 c 0
 130 -158 118 -148 118 -136 c 0
 118 -129 119 -125 126 -111 c 2
 246 134 l 1
EndSplineSet
EndChar
StartChar: hyphen
Encoding: 45 45
Width: 600
Flags: HMW
HStem: 229 100<179 541>
VStem: 101 518
Fore
541 229 m 2
 158 229 l 2
 117 229 101 240 101 269 c 0
 101 285 110 302 124 314 c 0
 139 327 148 329 179 329 c 2
 562 329 l 2
 581 329 589 328 597 325 c 0
 609 321 619 305 619 290 c 0
 619 273 610 256 596 244 c 0
 582 232 570 229 541 229 c 2
EndSplineSet
EndChar
StartChar: period
Encoding: 46 46
Width: 600
Flags: HMW
HStem: -15 132
VStem: 234 153<44.5 58>
Fore
305 -15 m 2
 288 -15 l 2
 256 -15 234 7 234 38 c 0
 234 78 274 117 316 117 c 2
 333 117 l 2
 365 117 387 95 387 65 c 0
 387 24 347 -15 305 -15 c 2
EndSplineSet
EndChar
StartChar: slash
Encoding: 47 47
Width: 600
Flags: W
DStem: 555 651 636 610 90 -27 171 -69
Fore
636 610 m 2
 171 -69 l 2
 148 -103 134 -113 110 -113 c 0
 87 -113 69 -96 69 -74 c 0
 69 -61 74 -49 90 -27 c 1
 555 651 l 2
 578 685 592 695 616 695 c 0
 639 695 656 678 656 656 c 0
 656 643 652 634 636 610 c 2
EndSplineSet
EndChar
StartChar: zero
Encoding: 48 48
Width: 600
Flags: HMW
HStem: -15 100<290.5 325> 538 99
VStem: 130 101<160.5 193> 501 101<430 463>
Fore
593 359 m 2
 573 264 l 2
 554 174 508 93 447 40 c 0
 405 4 354 -15 296 -15 c 0
 190 -15 130 55 130 179 c 0
 130 207 133 236 139 264 c 2
 159 359 l 2
 178 449 224 530 285 583 c 0
 326 619 378 638 436 638 c 0
 542 638 602 568 602 444 c 0
 602 416 599 387 593 359 c 2
260 366 m 1
 238 257 l 1
 233 237 231 216 231 195 c 0
 231 126 263 85 318 85 c 0
 388 85 449 153 471 257 c 2
 494 366 l 1
 499 386 501 407 501 428 c 0
 501 498 469 538 414 538 c 0
 343 538 283 470 260 366 c 1
EndSplineSet
EndChar
StartChar: one
Encoding: 49 49
Width: 600
Flags: HMW
HStem: 0 100<171 272 371 451>
VStem: 93 436
Fore
486 638 m 1
 371 100 l 1
 472 100 l 2
 492 100 499 99 507 96 c 0
 519 92 529 76 529 61 c 0
 529 44 520 27 506 15 c 0
 492 4 479 0 451 0 c 2
 150 0 l 2
 109 0 93 12 93 40 c 0
 93 56 102 73 116 85 c 0
 131 98 139 100 171 100 c 2
 272 100 l 1
 358 509 l 1
 267 486 l 2
 246 481 243 480 233 480 c 0
 212 480 197 496 197 520 c 0
 197 554 215 572 262 583 c 2
 486 638 l 1
EndSplineSet
EndChar
StartChar: two
Encoding: 50 50
Width: 600
Flags: W
HStem: 0 100<229 430> 0 154<486 500> 538 99.0302<403 406>
VStem: 500 101.02<465 467>
Fore
228 100 m 1
 430 100 l 1
 440 136 460 154 491 154 c 0
 514 154 531 138 531 116 c 0
 531 109 530 105 527 88 c 1
 508 0 l 1
 54 0 l 1
 76 105 l 1
 258 233 300 263 350 301 c 0
 483 403 500 422 500 465 c 0
 500 507 459 538 403 538 c 0
 363 538 324 523 297 497 c 0
 284 485 283 483 265 451 c 0
 256 434 235 422 214 422 c 0
 192 422 173 439 173 460 c 0
 173 491 212 546 258 582 c 0
 305 618 366 638 426 638 c 0
 530 638 602 575 602 484 c 0
 602 437 584 391 551 352 c 0
 523 320 459 268 352 189 c 1
 276 135 l 1
 228 100 l 1
EndSplineSet
EndChar
StartChar: three
Encoding: 51 51
Width: 600
Flags: W
HStem: -15 100<248 304> 538 99.0441<410 438>
VStem: 469 102<200 211> 507 101.063<478 481>
Fore
357 383 m 2
 398 383 l 2
 454 383 507 429 507 477 c 0
 507 515 470 538 410 538 c 0
 354 538 324 527 284 492 c 0
 274 483 259 477 246 477 c 0
 224 477 206 494 206 516 c 0
 206 578 320 638 438 638 c 0
 543 638 609 582 609 495 c 0
 609 430 569 376 494 336 c 0
 493 336 490 335 487 333 c 1
 544 302 571 262 571 211 c 0
 571 163 539 99 494 58 c 0
 438 6 372 -15 268 -15 c 0
 156 -15 80 15 80 58 c 0
 80 91 109 120 142 120 c 0
 153 120 158 118 171 108 c 0
 193 91 222 85 286 85 c 0
 355 85 394 94 426 119 c 0
 452 139 469 171 469 201 c 0
 469 229 445 259 411 275 c 0
 392 283 378 285 337 287 c 0
 308 289 294 301 294 324 c 0
 294 355 324 383 357 383 c 2
EndSplineSet
EndChar
StartChar: four
Encoding: 52 52
Width: 600
Flags: HMW
HStem: 0 100<330 368> 138 100<248 376>
VStem: 252 268
Fore
579 622 m 1
 497 238 l 1
 533 238 549 226 549 198 c 0
 549 182 540 165 526 153 c 0
 512 141 502 138 476 138 c 1
 468 100 l 1
 503 100 520 87 520 60 c 0
 520 44 511 27 497 15 c 0
 483 4 469 0 441 0 c 2
 309 0 l 2
 268 0 252 12 252 40 c 0
 252 56 261 73 275 85 c 0
 290 97 299 100 330 100 c 2
 368 100 l 1
 376 138 l 1
 104 138 l 1
 122 221 l 1
 448 622 l 1
 579 622 l 1
397 238 m 1
 449 480 l 1
 248 238 l 1
 397 238 l 1
EndSplineSet
EndChar
StartChar: five
Encoding: 53 53
Width: 600
Flags: HMW
HStem: -15 100<262.5 329> 324 99 522 100<330 330 330 532>
VStem: 476 101
Fore
330 522 m 1
 306 407 l 1
 345 418 379 424 410 424 c 0
 511 424 578 357 578 255 c 0
 578 193 554 128 512 79 c 0
 455 13 384 -15 274 -15 c 0
 165 -15 83 22 83 72 c 0
 83 104 113 133 145 133 c 0
 159 133 165 130 177 118 c 0
 202 93 230 85 295 85 c 0
 371 85 416 102 446 142 c 0
 465 167 476 202 476 236 c 0
 476 290 441 324 387 324 c 0
 353 324 305 311 258 290 c 0
 244 284 238 282 229 282 c 0
 206 282 188 300 189 322 c 0
 189 327 190 332 191 338 c 1
 252 622 l 1
 553 622 l 2
 573 622 579 621 588 618 c 0
 601 613 610 599 610 583 c 0
 610 566 601 549 587 537 c 0
 574 525 561 522 532 522 c 2
 330 522 l 1
EndSplineSet
EndChar
StartChar: six
Encoding: 54 54
Width: 600
Flags: HMW
HStem: -14 100 294 100<402.5 423> 535 102
VStem: 154 107<178.5 195.5> 477 103
Fore
276 324 m 1
 335 374 377 394 428 394 c 0
 515 394 581 327 581 238 c 0
 581 180 557 116 518 70 c 0
 470 13 407 -15 328 -15 c 0
 212 -15 154 50 154 180 c 0
 154 276 181 368 231 443 c 0
 272 502 333 558 398 594 c 0
 452 624 502 638 559 638 c 0
 622 638 663 616 663 583 c 0
 663 552 632 522 600 522 c 0
 592 522 581 524 566 530 c 0
 556 534 552 535 543 535 c 0
 453 535 347 464 295 366 c 0
 289 355 286 348 276 324 c 1
262 209 m 1
 261 202 261 197 261 194 c 0
 261 163 271 127 283 110 c 1
 296 95 322 85 352 85 c 0
 395 85 427 101 450 134 c 0
 468 158 478 189 478 214 c 0
 478 260 445 294 401 294 c 0
 357 294 300 259 262 209 c 1
EndSplineSet
EndChar
StartChar: seven
Encoding: 55 55
Width: 600
Flags: HMW
HStem: 522 100<285 513 285 285>
Fore
513 522 m 1
 285 522 l 1
 275 486 255 468 224 468 c 0
 201 468 184 484 184 506 c 0
 184 512 185 521 188 534 c 2
 207 622 l 1
 640 622 l 1
 619 523 l 1
 359 48 l 2
 339 12 322 -1 295 -1 c 0
 273 -1 254 17 254 37 c 0
 254 48 257 57 270 81 c 2
 513 522 l 1
EndSplineSet
EndChar
StartChar: eight
Encoding: 56 56
Width: 600
Flags: W
HStem: -14.8056 99.8056<306 320> 262.987 101.959<357 376> 538 99.03<413 418>
VStem: 114.003 103.997<129 158> 185 100<428 435> 456 100<186 198> 504.994 103.006<466 489>
Fore
487 319 m 1
 534 286 556 246 556 198 c 0
 556 154 533 101 499 64 c 0
 454 16 375 -15 295 -15 c 0
 183 -15 114 40 114 129 c 0
 114 205 161 271 248 319 c 1
 204 353 185 386 185 429 c 0
 185 474 214 531 258 570 c 0
 305 613 371 638 435 638 c 0
 537 638 608 576 608 489 c 0
 608 421 569 367 487 319 c 1
413 538 m 0
 341 538 285 492 285 433 c 0
 285 392 321 364 376 364 c 0
 447 364 505 410 505 466 c 0
 505 511 470 538 413 538 c 0
357 263 m 0
 283 263 218 214 218 158 c 0
 218 113 257 85 318 85 c 0
 394 85 456 131 456 187 c 0
 456 231 414 263 357 263 c 0
EndSplineSet
EndChar
StartChar: nine
Encoding: 57 57
Width: 600
Flags: HMW
HStem: -15 103<230.5 247.5> 229 100<355 375.5> 538 99
VStem: 198 103 516 108
Fore
502 299 m 1
 442 248 401 229 350 229 c 0
 263 229 197 296 197 385 c 0
 197 443 221 507 260 553 c 0
 309 610 371 638 450 638 c 0
 566 638 624 573 624 443 c 0
 624 347 597 255 547 180 c 0
 506 121 445 65 380 29 c 0
 326 -1 276 -15 219 -15 c 0
 157 -15 115 7 115 40 c 0
 115 71 146 101 178 101 c 0
 187 101 197 99 212 93 c 0
 222 89 226 88 235 88 c 0
 325 88 431 160 483 257 c 0
 489 268 492 275 502 299 c 1
516 414 m 1
 517 420 517 426 517 428 c 0
 517 461 508 496 495 513 c 0
 482 528 457 538 426 538 c 0
 383 538 351 522 328 489 c 0
 311 465 300 434 300 408 c 0
 300 363 333 329 377 329 c 0
 421 329 478 364 516 414 c 1
EndSplineSet
EndChar
StartChar: colon
Encoding: 58 58
Width: 600
Flags: W
HStem: -15 132<305 316> 304 133<373 384>
VStem: 234.008 152.992<38 65> 302.008 152.992<357 384>
Fore
305 -15 m 2
 288 -15 l 2
 256 -15 234 7 234 38 c 0
 234 78 274 117 316 117 c 2
 333 117 l 2
 365 117 387 95 387 65 c 0
 387 24 348 -15 305 -15 c 2
373 304 m 2
 356 304 l 2
 324 304 302 326 302 357 c 0
 302 398 342 437 384 437 c 2
 401 437 l 2
 433 437 455 415 455 384 c 0
 455 343 415 304 373 304 c 2
EndSplineSet
MinimumDistance: x11,-1 
EndChar
StartChar: semicolon
Encoding: 59 59
Width: 600
Flags: HMW
HStem: 304 133<343 365.5>
VStem: 278 153<361.5 379>
Fore
247 134 m 1
 379 134 l 1
 181 -134 l 2
 169 -150 156 -158 144 -158 c 0
 130 -158 118 -148 118 -136 c 0
 118 -129 119 -125 126 -111 c 2
 247 134 l 1
368 437 m 0
 409 437 431 418 431 384 c 0
 431 339 391 304 340 304 c 0
 301 304 278 323 278 357 c 0
 278 401 318 437 368 437 c 0
EndSplineSet
EndChar
StartChar: less
Encoding: 60 60
Width: 600
Flags: W
DStem: 102 280 311 279 486 63 543 143 577 492 600 412 102 280 311 279
Fore
311 279 m 1
 543 143 l 2
 561 132 567 124 567 109 c 0
 567 100 563 90 557 81 c 2
 556 79 l 2
 546 65 528 54 514 54 c 0
 506 54 496 57 486 63 c 2
 102 280 l 1
 577 492 l 2
 590 498 601 501 609 501 c 0
 623 501 636 490 640 476 c 1
 641 474 l 1
 642 470 642 467 642 463 c 0
 642 442 629 425 600 412 c 2
 311 279 l 1
EndSplineSet
EndChar
StartChar: equal
Encoding: 61 61
Width: 600
Flags: HMW
HStem: 138 100<159 521> 322 100<198 560>
Fore
198 422 m 2
 581 422 l 2
 603 422 607 422 616 418 c 0
 629 413 638 399 638 382 c 0
 638 366 629 349 615 337 c 0
 601 325 589 322 560 322 c 2
 177 322 l 2
 136 322 120 333 120 362 c 0
 120 378 129 396 143 408 c 0
 158 420 167 422 198 422 c 2
159 238 m 2
 542 238 l 2
 564 238 568 238 577 234 c 0
 590 229 599 215 599 198 c 0
 599 182 590 164 576 153 c 0
 562 141 550 138 521 138 c 2
 138 138 l 2
 97 138 81 149 81 178 c 0
 81 194 90 212 104 224 c 0
 119 236 128 238 159 238 c 2
EndSplineSet
EndChar
StartChar: greater
Encoding: 62 62
Width: 600
Flags: W
DStem: 175 412 232 491 407 275 616 274 407 275 616 274 118 142 141 62
Fore
407 275 m 1
 175 412 l 2
 157 422 151 430 151 445 c 0
 151 453 154 463 161 473 c 2
 162 475 l 2
 171 488 190 500 204 500 c 0
 212 500 222 497 232 491 c 2
 616 274 l 1
 141 62 l 2
 128 56 116 53 109 53 c 0
 95 53 82 64 78 78 c 1
 77 80 l 1
 76 84 76 87 76 91 c 0
 76 113 89 129 118 142 c 2
 407 275 l 1
EndSplineSet
EndChar
StartChar: question
Encoding: 63 63
Width: 600
Flags: HMW
HStem: -15 132 498 99
VStem: 236 153<44.5 58> 506 101
Fore
201 460 m 2
 218 539 l 1
 327 586 370 598 436 598 c 0
 543 598 608 542 608 450 c 0
 608 395 585 343 547 309 c 0
 512 279 471 256 401 228 c 1
 389 192 368 174 339 174 c 0
 317 174 299 191 299 211 c 0
 299 219 299 221 304 240 c 1
 315 296 l 1
 466 349 506 377 506 428 c 0
 506 472 473 498 415 498 c 0
 377 498 340 490 304 474 c 1
 301 460 l 2
 295 432 292 425 282 415 c 0
 270 402 252 394 237 394 c 0
 215 394 197 410 197 431 c 0
 197 437 198 447 201 460 c 2
308 -15 m 2
 290 -15 l 2
 258 -15 236 7 236 38 c 0
 236 78 276 117 318 117 c 2
 336 117 l 2
 367 117 389 95 389 65 c 0
 389 24 350 -15 308 -15 c 2
EndSplineSet
EndChar
StartChar: at
Encoding: 64 64
Width: 600
Flags: HMW
HStem: -152 78<273.5 311.5> 72 81<392.5 396 396 416> 541 79<375 443>
VStem: 98 81<50 74.5> 263 80 501 81<466 483.5>
Fore
492 398 m 1
 498 429 l 2
 500 439 501 447 501 458 c 0
 501 509 469 541 417 541 c 0
 333 541 249 445 222 317 c 2
 189 161 l 1
 182 130 179 103 179 78 c 0
 179 22 194 -27 220 -51 c 0
 237 -67 258 -74 289 -74 c 0
 334 -74 376 -62 399 -42 c 0
 416 -28 422 -25 434 -25 c 0
 453 -25 466 -38 466 -57 c 0
 466 -107 373 -152 269 -152 c 0
 204 -152 161 -131 133 -85 c 0
 110 -47 98 1 98 59 c 0
 98 90 101 122 108 154 c 2
 144 323 l 2
 181 495 302 620 433 620 c 0
 524 620 582 563 582 473 c 0
 582 459 580 444 577 429 c 2
 517 148 l 1
 530 142 534 135 534 122 c 0
 534 108 527 94 515 84 c 0
 503 74 494 72 469 72 c 2
 396 72 l 2
 316 72 262 122 262 196 c 0
 262 299 364 389 492 398 c 1
440 155 m 1
 474 316 l 1
 400 309 343 264 343 211 c 0
 343 177 372 153 413 153 c 0
 419 153 426 153 440 155 c 1
EndSplineSet
EndChar
StartChar: A
Encoding: 65 65
Width: 600
Flags: HMW
HStem: 0 100<52.5 68 176 178 438 461> 158 100<273 430> 483 100<262 304>
VStem: -11 267 360 273
Fore
450 158 m 1
 212 158 l 1
 176 100 l 1
 199 100 l 2
 220 100 226 99 234 96 c 0
 247 92 256 76 256 60 c 0
 256 44 247 27 233 15 c 0
 219 3 207 0 178 0 c 2
 46 0 l 2
 5 0 -11 11 -11 40 c 0
 -11 56 -2 74 12 85 c 0
 27 97 37 100 68 100 c 1
 304 483 l 1
 241 483 l 2
 200 483 184 494 184 523 c 0
 184 539 193 557 207 569 c 0
 222 581 230 583 262 583 c 2
 478 583 l 1
 575 100 l 1
 595 100 602 99 611 96 c 0
 624 91 633 76 633 60 c 0
 633 44 624 26 610 15 c 0
 596 3 583 0 555 0 c 2
 416 0 l 2
 376 0 360 11 360 40 c 0
 360 56 369 73 383 85 c 0
 398 98 406 100 438 100 c 2
 461 100 l 1
 450 158 l 1
430 258 m 1
 392 450 l 1
 273 258 l 1
 430 258 l 1
EndSplineSet
EndChar
StartChar: B
Encoding: 66 66
Width: 600
Flags: W
HStem: 0 100<78 115 216 392> 242 100<267 392> 242 341<245 266> 483 99.0446<180 195 296 438>
VStem: 503.24 104.06<166 189> 518 101.074<431 433>
DStem: 196 483 296 483 115 100 266 342 196 483 245 242 115 100 215 100
Fore
115 100 m 1
 196 483 l 1
 181 483 l 2
 140 483 125 494 125 523 c 0
 125 539 134 556 148 569 c 1
 162 580 172 583 203 583 c 2
 455 583 l 2
 512 583 552 569 582 539 c 0
 606 515 620 482 620 448 c 0
 620 391 590 345 529 305 c 1
 584 275 608 239 608 189 c 0
 608 147 585 97 549 63 c 0
 505 21 446 0 374 0 c 2
 79 0 l 2
 38 0 22 12 22 40 c 0
 22 56 31 73 45 85 c 0
 59 97 69 100 100 100 c 2
 115 100 l 1
266 342 m 1
 379 342 l 2
 458 342 518 380 518 431 c 0
 518 464 485 483 429 483 c 2
 296 483 l 1
 266 342 l 1
215 100 m 1
 390 100 l 2
 464 100 504 123 504 166 c 0
 504 213 456 242 380 242 c 2
 245 242 l 1
 215 100 l 1
EndSplineSet
EndChar
StartChar: C
Encoding: 67 67
Width: 600
Flags: HMW
HStem: -14 100<296 369> 497 100<364 448.5>
VStem: 80 102<174.5 204>
Fore
567 563 m 2
 576 559 l 1
 593 576 606 583 623 583 c 0
 646 583 663 567 663 545 c 0
 663 538 663 534 659 517 c 1
 641 433 l 1
 635 407 632 398 622 388 c 0
 610 375 593 367 577 367 c 0
 553 367 537 383 538 406 c 1
 539 425 l 2
 541 463 482 497 415 497 c 0
 313 497 222 420 200 315 c 1
 186 251 l 2
 183 238 182 225 182 214 c 0
 182 135 245 86 347 86 c 0
 393 86 436 95 463 109 c 0
 475 116 476 116 508 143 c 0
 522 154 534 159 547 159 c 0
 570 159 588 141 588 118 c 0
 588 99 576 80 550 59 c 0
 493 11 414 -14 324 -14 c 0
 176 -14 80 69 80 195 c 0
 80 213 82 231 86 249 c 2
 100 315 l 2
 134 475 277 597 432 597 c 0
 484 597 517 589 567 563 c 2
EndSplineSet
EndChar
StartChar: D
Encoding: 68 68
Width: 600
Flags: HMW
HStem: 0 100<83.5 96 196 285> 483 100<277 277 277 387>
VStem: 520 101
Fore
96 100 m 1
 177 483 l 1
 142 483 126 496 126 523 c 0
 126 539 135 556 149 569 c 0
 164 581 172 583 204 583 c 2
 417 583 l 2
 539 583 622 497 622 369 c 0
 622 348 620 326 615 305 c 1
 605 258 l 1
 590 185 553 123 497 75 c 0
 437 23 371 0 285 0 c 2
 80 0 l 2
 39 0 23 12 23 40 c 0
 23 56 32 73 46 85 c 0
 60 97 71 100 96 100 c 1
196 100 m 1
 306 100 l 2
 366 100 401 112 440 144 c 0
 475 174 495 210 506 261 c 2
 516 307 l 2
 519 321 520 335 520 350 c 0
 520 392 503 434 475 457 c 0
 456 474 424 483 387 483 c 2
 277 483 l 1
 196 100 l 1
EndSplineSet
EndChar
StartChar: E
Encoding: 69 69
Width: 600
Flags: W
HStem: 0 100<79 116 217 471> 0 219<535.937 550> 243 99<268 330> 243 340<246 267> 366 217<547 558> 483 99.2755<181 196 297 530>
DStem: 197 483 297 483 116 100 267 342 197 483 453 349 116 100 428 236 197 483 246 243 116 100 216 100 531 483 652 583 520 433 620 433
Fore
246 243 m 1
 216 100 l 1
 471 100 l 1
 483 152 l 1
 488 180 492 188 502 198 c 0
 514 212 531 219 546 219 c 0
 569 219 587 203 587 182 c 0
 587 174 586 170 583 152 c 1
 550 0 l 1
 80 0 l 2
 40 0 23 12 23 40 c 0
 23 56 32 74 46 85 c 0
 61 98 70 100 101 100 c 2
 116 100 l 1
 197 483 l 1
 182 483 l 2
 141 483 125 494 125 523 c 0
 125 539 134 557 149 569 c 0
 163 581 172 583 204 583 c 2
 652 583 l 1
 620 433 l 2
 614 405 611 397 601 387 c 0
 589 374 572 366 556 366 c 0
 534 366 516 382 516 404 c 0
 516 410 517 420 520 433 c 2
 531 483 l 1
 297 483 l 1
 267 342 l 1
 352 342 l 1
 353 349 l 1
 359 378 362 385 372 395 c 0
 385 408 402 416 417 416 c 0
 440 416 457 400 457 378 c 0
 457 370 457 369 453 349 c 1
 428 236 l 2
 422 208 419 201 409 190 c 0
 397 178 380 170 365 170 c 0
 342 170 325 186 325 207 c 0
 325 214 326 222 329 236 c 1
 331 243 l 1
 246 243 l 1
EndSplineSet
EndChar
StartChar: F
Encoding: 70 70
Width: 600
Flags: W
HStem: 0 100<79 116 217 314> 243 99<268 330> 243 340<246 267> 366 217<568.575 583> 483 99.2779<181 196 297 552>
VStem: 23.0117 348.988<40 61>
DStem: 197 483 297 483 116 100 267 342 197 483 452 349 116 100 428 236 197 483 246 243 116 100 216 100 553 483 674 583 542 432 642 432
Fore
246 243 m 1
 216 100 l 1
 315 100 l 2
 335 100 342 99 350 96 c 0
 363 92 372 76 372 61 c 0
 372 44 363 27 349 15 c 0
 335 4 322 0 294 0 c 2
 80 0 l 2
 39 0 23 12 23 40 c 0
 23 56 32 73 46 85 c 0
 61 97 70 100 101 100 c 2
 116 100 l 1
 197 483 l 1
 182 483 l 2
 141 483 125 494 125 523 c 0
 125 539 134 556 148 569 c 0
 163 581 172 583 204 583 c 2
 674 583 l 1
 642 432 l 1
 636 405 633 397 623 387 c 0
 610 374 594 366 578 366 c 0
 556 366 538 382 538 403 c 0
 538 409 540 421 542 432 c 1
 553 483 l 1
 297 483 l 1
 267 342 l 1
 351 342 l 1
 353 349 l 1
 358 375 363 384 372 394 c 0
 384 407 401 415 417 415 c 0
 440 415 457 399 457 377 c 0
 457 369 457 368 452 349 c 1
 428 236 l 1
 423 209 419 200 409 190 c 0
 397 177 380 169 364 169 c 0
 342 169 325 185 325 206 c 0
 325 213 327 225 329 236 c 1
 331 243 l 1
 246 243 l 1
EndSplineSet
EndChar
StartChar: G
Encoding: 71 71
Width: 600
Flags: HMW
HStem: -14 100<292 366.5> 180 100<410 488 588 588> 497 100<403 459.5>
VStem: 79 102<163 194.5> 332 310<226.5 228>
Fore
588 180 m 1
 560 48 l 1
 460 0 407 -14 327 -14 c 0
 257 -14 193 2 149 32 c 0
 103 63 79 115 79 184 c 0
 79 205 81 225 86 246 c 1
 101 317 l 2
 117 393 163 467 228 520 c 0
 292 572 362 597 444 597 c 0
 498 597 544 587 583 565 c 1
 599 589 611 597 630 597 c 0
 652 597 667 582 667 560 c 0
 667 552 667 550 663 531 c 2
 646 453 l 2
 640 426 637 418 627 408 c 0
 615 395 598 387 582 387 c 0
 569 387 556 393 551 402 c 0
 546 409 546 409 544 440 c 0
 542 475 496 497 423 497 c 0
 313 497 223 425 201 317 c 1
 187 253 l 2
 183 234 181 217 181 199 c 0
 181 127 239 86 342 86 c 0
 391 86 431 94 474 111 c 1
 488 180 l 1
 389 180 l 2
 348 180 332 191 332 220 c 0
 332 236 341 254 355 266 c 0
 370 278 379 280 410 280 c 2
 585 280 l 2
 605 280 611 279 620 276 c 0
 633 272 642 257 642 241 c 0
 642 212 621 189 588 180 c 1
EndSplineSet
EndChar
StartChar: H
Encoding: 72 72
Width: 600
Flags: W
HStem: 0 100<87 116 216 231 393 430 531 536> 241 100<268 459> 483 100<297 334 495 510>
VStem: 32.0117 254.988<40 60> 155.012 234.988<523 544> 337.012 254.988<40 60> 440.012 234.988<523 544>
DStem: 197 483 297 483 116 100 267 341 197 483 611 483 116 100 530 100 197 483 246 241 116 100 216 100 460 241 611 483 430 100 530 100 511 483 611 483 481 341 530 100
Fore
460 241 m 1
 246 241 l 1
 216 100 l 1
 230 100 l 2
 249 100 257 99 265 96 c 0
 278 92 287 76 287 60 c 0
 287 44 278 27 264 15 c 0
 250 3 238 0 209 0 c 2
 88 0 l 2
 48 0 32 11 32 40 c 0
 32 56 41 73 55 85 c 0
 69 97 79 100 110 100 c 2
 116 100 l 1
 197 483 l 1
 169 485 155 498 155 523 c 0
 155 539 164 556 178 569 c 0
 193 581 202 583 233 583 c 2
 333 583 l 2
 353 583 360 582 368 579 c 0
 381 575 390 560 390 544 c 0
 390 527 381 509 367 498 c 0
 352 486 343 483 312 483 c 2
 297 483 l 1
 267 341 l 1
 481 341 l 1
 511 483 l 1
 496 483 l 2
 477 483 471 484 462 487 c 0
 449 492 440 506 440 523 c 0
 440 539 449 556 463 569 c 0
 477 581 487 583 518 583 c 2
 618 583 l 2
 638 583 645 582 653 579 c 0
 666 575 675 560 675 544 c 0
 675 511 649 486 611 483 c 1
 530 100 l 1
 536 100 l 2
 556 100 562 99 570 96 c 0
 583 92 592 76 592 60 c 0
 592 44 583 27 569 15 c 0
 556 3 543 0 515 0 c 2
 394 0 l 2
 353 0 337 11 337 40 c 0
 337 56 346 73 360 85 c 0
 375 97 384 100 415 100 c 2
 430 100 l 1
 460 241 l 1
EndSplineSet
EndChar
StartChar: I
Encoding: 73 73
Width: 600
Flags: HMW
HStem: 0 100<171 272 372 451> 483 100<274 353 453 554 453 453>
VStem: 196 436
Fore
453 483 m 1
 372 100 l 1
 472 100 l 2
 492 100 499 99 507 96 c 0
 520 92 529 77 529 61 c 0
 529 44 520 27 506 15 c 0
 492 3 480 0 451 0 c 2
 150 0 l 2
 109 0 93 11 93 40 c 0
 93 56 102 73 116 85 c 0
 131 98 139 100 171 100 c 2
 272 100 l 1
 353 483 l 1
 252 483 l 2
 211 483 196 494 196 523 c 0
 196 539 205 557 219 568 c 0
 234 581 242 583 274 583 c 2
 575 583 l 2
 595 583 602 582 610 579 c 0
 622 575 632 559 632 544 c 0
 632 527 623 509 609 498 c 0
 594 486 584 483 554 483 c 2
 453 483 l 1
EndSplineSet
EndChar
StartChar: J
Encoding: 74 74
Width: 600
Flags: HMW
HStem: -14 100<271.5 295> 483 100<394 492 592 649 592 592>
VStem: 316 411
Fore
592 483 m 1
 529 187 l 2
 515 121 490 83 434 43 c 0
 384 6 324 -14 266 -14 c 0
 208 -14 146 6 64 51 c 1
 98 213 l 1
 104 240 108 249 118 259 c 0
 130 272 147 280 163 280 c 0
 186 280 203 264 203 243 c 0
 203 235 202 232 199 213 c 1
 178 117 l 1
 223 95 255 86 288 86 c 0
 324 86 363 100 391 122 c 0
 417 143 422 152 431 198 c 1
 492 483 l 1
 373 483 l 2
 332 483 316 494 316 523 c 0
 316 539 325 556 339 569 c 0
 354 581 363 583 394 583 c 2
 670 583 l 2
 690 583 697 582 705 579 c 0
 718 575 727 560 727 543 c 0
 727 527 718 509 704 498 c 0
 690 486 679 483 649 483 c 2
 592 483 l 1
EndSplineSet
EndChar
StartChar: K
Encoding: 75 75
Width: 600
Flags: HMW
HStem: 0 100<100 115 215 228 525 535> 483 100<296 296 296 331 613 626.5>
VStem: 452 235
Fore
238 208 m 1
 215 100 l 1
 250 100 l 2
 270 100 276 99 284 96 c 0
 297 92 306 76 306 60 c 0
 306 44 297 27 283 15 c 0
 270 4 256 0 228 0 c 2
 79 0 l 2
 38 0 22 12 22 40 c 0
 22 56 31 73 45 85 c 0
 60 98 68 100 100 100 c 2
 115 100 l 1
 196 483 l 1
 181 483 l 2
 140 483 125 494 125 523 c 0
 125 539 134 556 148 569 c 0
 163 581 171 583 203 583 c 2
 352 583 l 2
 372 583 379 582 387 579 c 0
 400 575 409 560 409 543 c 0
 409 527 400 509 386 498 c 0
 372 486 361 483 331 483 c 2
 296 483 l 1
 265 334 l 1
 475 487 l 1
 459 493 452 503 452 520 c 0
 452 538 461 556 476 568 c 0
 490 581 499 583 530 583 c 2
 631 583 l 2
 650 583 657 582 665 579 c 0
 678 575 687 560 687 544 c 0
 687 527 678 510 664 498 c 0
 650 486 640 483 613 483 c 1
 404 330 l 1
 459 298 503 215 525 100 c 1
 557 100 l 2
 577 100 583 99 592 96 c 0
 604 92 614 76 614 61 c 0
 614 45 605 26 591 15 c 0
 577 4 563 0 535 0 c 2
 426 0 l 1
 409 143 365 240 308 259 c 1
 238 208 l 1
EndSplineSet
EndChar
StartChar: L
Encoding: 76 76
Width: 600
Flags: W
HStem: 0 100<98 177 278 492> 0 258.671<570 571> 483 100<201 257 358 437>
VStem: 145.012 347.988<523 543>
DStem: 258 483 358 483 177 100 277 100 512 192 612 192 492 100 571 0
Fore
358 483 m 1
 277 100 l 1
 492 100 l 1
 512 192 l 1
 517 219 521 228 531 238 c 0
 544 252 560 259 576 259 c 0
 599 259 616 243 616 221 c 0
 616 215 615 207 612 192 c 2
 571 0 l 1
 99 0 l 2
 58 0 42 12 42 40 c 0
 42 56 51 74 65 85 c 0
 80 98 88 100 120 100 c 2
 177 100 l 1
 258 483 l 1
 202 483 l 2
 161 483 145 494 145 523 c 0
 145 539 154 557 168 569 c 0
 183 581 191 583 223 583 c 2
 436 583 l 2
 456 583 463 582 471 579 c 0
 484 575 493 560 493 543 c 0
 493 527 484 509 470 498 c 0
 455 486 445 483 415 483 c 2
 358 483 l 1
EndSplineSet
EndChar
StartChar: M
Encoding: 77 77
Width: 600
Flags: HMW
HStem: 0 100<50.5 63 163 176 448 483> 563 20<180 288 288 288 562 671 671 681>
VStem: -10 264 370 264
Fore
224 389 m 1
 163 100 l 1
 198 100 l 2
 218 100 224 99 232 96 c 0
 245 92 254 76 254 61 c 0
 254 44 245 27 231 15 c 0
 217 4 204 0 176 0 c 2
 47 0 l 2
 6 0 -10 11 -10 40 c 0
 -10 56 -1 74 13 85 c 0
 27 97 38 100 63 100 c 1
 144 483 l 1
 115 486 102 498 102 523 c 0
 102 539 111 557 125 569 c 0
 139 580 149 583 180 583 c 2
 288 583 l 1
 363 286 l 1
 562 583 l 1
 671 583 l 2
 691 583 698 582 706 579 c 0
 719 575 728 560 728 544 c 0
 728 530 722 515 711 504 c 0
 698 490 688 485 664 483 c 1
 583 100 l 1
 618 100 634 88 634 61 c 0
 634 44 625 26 611 15 c 0
 597 4 584 0 556 0 c 2
 427 0 l 2
 386 0 370 11 370 40 c 0
 370 56 379 73 393 85 c 0
 408 98 416 100 448 100 c 2
 483 100 l 1
 544 389 l 1
 380 138 l 1
 289 138 l 1
 224 389 l 1
EndSplineSet
EndChar
StartChar: N
Encoding: 78 78
Width: 600
Flags: HMW
HStem: 0 100<81 94 194 207> 483 100<519 533 633 645.5>
VStem: 21 264 442 264
Fore
256 394 m 1
 194 100 l 1
 229 100 l 2
 249 100 255 99 263 96 c 0
 276 92 285 77 285 61 c 0
 285 44 276 27 262 15 c 0
 249 4 235 0 207 0 c 2
 78 0 l 2
 37 0 21 11 21 40 c 0
 21 56 30 73 44 85 c 0
 58 97 68 100 94 100 c 1
 175 483 l 1
 160 483 l 2
 119 483 104 494 104 523 c 0
 104 539 113 556 127 568 c 0
 141 580 151 583 182 583 c 2
 296 583 l 1
 471 191 l 1
 533 483 l 1
 498 483 l 2
 457 483 442 494 442 523 c 0
 442 539 451 556 465 569 c 0
 480 581 488 583 519 583 c 2
 649 583 l 2
 669 583 676 582 684 579 c 0
 697 575 706 560 706 543 c 0
 706 527 697 510 683 498 c 0
 669 486 658 483 633 483 c 1
 530 0 l 1
 432 0 l 1
 256 394 l 1
EndSplineSet
EndChar
StartChar: O
Encoding: 79 79
Width: 600
Flags: HMW
HStem: -13 99 497 99
VStem: 75 103<198 266> 546 102
Fore
426 597 m 0
 554 597 649 498 649 366 c 0
 649 270 610 174 541 102 c 0
 472 30 380 -14 297 -14 c 0
 170 -14 75 86 75 220 c 0
 75 312 116 411 182 481 c 0
 250 552 345 597 426 597 c 0
405 497 m 0
 290 497 178 371 178 243 c 0
 178 153 237 86 317 86 c 0
 434 86 546 211 546 342 c 0
 546 431 486 497 405 497 c 0
EndSplineSet
EndChar
StartChar: P
Encoding: 80 80
Width: 600
Flags: W
HStem: 0 100<79 116 217 313> 200 100<259 359> 200 383<237 258> 483 99.3094<181 196 297 423>
VStem: 23.0117 347.988<40 61> 509 107.01<413 416>
DStem: 197 483 297 483 116 100 258 300 197 483 237 200 116 100 216 100
Fore
237 200 m 1
 216 100 l 1
 314 100 l 2
 334 100 341 99 349 96 c 0
 361 92 371 76 371 61 c 0
 371 45 362 26 348 15 c 0
 335 4 321 0 293 0 c 2
 80 0 l 2
 39 0 23 12 23 40 c 0
 23 56 32 73 46 85 c 0
 60 97 70 100 101 100 c 2
 116 100 l 1
 197 483 l 1
 182 483 l 2
 140 483 125 494 125 523 c 0
 125 539 134 556 148 569 c 0
 163 581 172 583 203 583 c 2
 436 583 l 2
 548 583 617 525 617 431 c 0
 617 384 596 331 558 289 c 0
 502 225 440 200 335 200 c 2
 237 200 l 1
297 483 m 1
 258 300 l 1
 376 300 l 2
 454 300 509 347 509 414 c 0
 509 457 473 483 415 483 c 2
 297 483 l 1
EndSplineSet
EndChar
StartChar: Q
Encoding: 81 81
Width: 600
Flags: HMW
HStem: -117 91 -6 91 497 99
VStem: 75 102<198.5 306.5> 546 102
Fore
269 -6 m 1
 261 -30 l 1
 286 -26 298 -25 312 -25 c 0
 339 -25 363 -29 394 -38 c 0
 416 -44 422 -45 434 -45 c 0
 449 -45 458 -42 480 -30 c 0
 506 -15 512 -13 524 -13 c 0
 548 -13 565 -29 565 -52 c 0
 565 -71 554 -90 536 -102 c 0
 496 -129 450 -145 413 -145 c 0
 389 -145 384 -144 340 -125 c 0
 330 -121 308 -117 295 -117 c 0
 273 -117 206 -128 163 -138 c 0
 151 -141 141 -143 134 -143 c 0
 113 -143 96 -125 96 -104 c 0
 96 -83 103 -71 125 -53 c 2
 200 7 l 1
 145 43 119 67 102 101 c 0
 85 135 75 177 75 220 c 0
 75 413 246 597 427 597 c 0
 555 597 649 497 649 363 c 0
 649 243 586 130 476 53 c 0
 416 10 360 -7 286 -7 c 0
 284 -7 277 -7 269 -6 c 1
405 497 m 0
 290 497 177 371 177 242 c 0
 177 152 237 85 317 85 c 0
 434 85 546 210 546 342 c 0
 546 431 486 497 405 497 c 0
EndSplineSet
EndChar
StartChar: R
Encoding: 82 82
Width: 600
Flags: HMW
HStem: 0 100<101 116 216 229> 222 100<263 338> 483 100<297 297 297 409>
VStem: 23 284 504 107
Fore
242 222 m 1
 216 100 l 1
 251 100 l 2
 269 100 277 99 285 96 c 0
 298 92 307 76 307 60 c 0
 307 44 298 27 284 15 c 0
 271 4 257 0 229 0 c 2
 80 0 l 2
 39 0 23 11 23 40 c 0
 23 56 32 73 46 85 c 0
 61 97 70 100 101 100 c 2
 116 100 l 1
 197 483 l 1
 182 483 l 2
 141 483 126 494 126 523 c 0
 126 539 135 556 149 569 c 0
 164 581 172 583 204 583 c 2
 427 583 l 2
 542 583 612 528 612 438 c 0
 612 362 564 301 469 254 c 1
 506 214 534 166 561 100 c 1
 574 100 l 2
 616 100 631 90 631 60 c 0
 631 44 622 27 608 15 c 0
 595 4 581 0 553 0 c 2
 475 0 l 1
 444 98 377 207 338 222 c 1
 242 222 l 1
263 322 m 1
 339 322 l 2
 430 322 504 366 504 420 c 0
 504 458 466 483 409 483 c 2
 297 483 l 1
 263 322 l 1
EndSplineSet
EndChar
StartChar: S
Encoding: 83 83
Width: 600
Flags: HMW
HStem: -14 100<286.5 360.5> 497 100<369 435>
VStem: 168 106 470 106<149 180>
Fore
630 531 m 1
 611 443 l 2
 605 415 601 407 592 397 c 0
 579 384 562 376 547 376 c 0
 534 376 521 382 514 391 c 0
 509 398 509 398 508 430 c 0
 508 470 466 497 404 497 c 0
 334 497 273 457 273 411 c 0
 273 396 281 380 293 370 c 0
 307 358 318 355 394 340 c 0
 450 329 478 321 504 309 c 0
 549 288 576 247 576 199 c 0
 576 77 461 -14 306 -14 c 0
 252 -14 202 -1 158 25 c 1
 137 6 128 1 112 1 c 0
 89 1 72 17 72 38 c 0
 72 44 74 55 76 67 c 1
 90 133 l 1
 100 178 120 199 155 199 c 0
 168 199 180 194 187 185 c 0
 192 178 192 178 194 151 c 0
 197 115 254 86 319 86 c 0
 402 86 470 125 470 173 c 0
 470 187 463 200 450 210 c 0
 434 223 414 229 345 242 c 0
 281 253 251 263 223 281 c 0
 189 304 167 344 167 385 c 0
 167 501 284 597 425 597 c 0
 476 597 518 586 548 564 c 1
 564 589 575 597 594 597 c 0
 618 597 634 582 634 561 c 0
 634 554 633 549 630 531 c 1
EndSplineSet
EndChar
StartChar: T
Encoding: 84 84
Width: 600
Flags: HMW
HStem: 0 100<206 270 370 415> 483 100<245 352 245 245 452 561 452 452>
VStem: 128 365
Fore
452 483 m 1
 370 100 l 1
 436 100 l 2
 456 100 462 99 471 96 c 0
 484 92 493 77 493 61 c 0
 493 44 484 27 470 15 c 0
 456 4 442 0 415 0 c 2
 184 0 l 2
 144 0 128 12 128 40 c 0
 128 56 137 73 151 85 c 0
 166 98 174 100 206 100 c 2
 270 100 l 1
 352 483 l 1
 245 483 l 1
 225 390 l 2
 219 363 216 355 206 345 c 0
 193 332 176 324 161 324 c 0
 139 324 121 341 121 361 c 0
 121 368 122 378 125 390 c 1
 166 583 l 1
 682 583 l 1
 641 390 l 2
 635 362 632 355 622 345 c 0
 610 332 593 324 577 324 c 0
 554 324 537 340 537 361 c 0
 537 368 538 377 541 390 c 2
 561 483 l 1
 452 483 l 1
EndSplineSet
EndChar
StartChar: U
Encoding: 85 85
Width: 600
Flags: HMW
HStem: -14 100<288 354.5> 483 100<274 274 274 309 519 532 632 644.5>
VStem: 111 100 441 264
Fore
632 483 m 1
 573 205 l 1
 547 81 427 -14 298 -14 c 0
 189 -14 110 59 110 158 c 0
 110 173 112 188 115 205 c 1
 174 483 l 1
 138 483 123 495 123 523 c 0
 123 539 132 557 146 569 c 0
 161 581 170 583 201 583 c 2
 331 583 l 2
 353 583 357 583 365 579 c 0
 378 575 387 559 387 544 c 0
 387 527 378 509 364 498 c 0
 350 486 339 483 309 483 c 2
 274 483 l 1
 213 196 l 1
 212 189 211 182 211 176 c 0
 211 124 257 86 319 86 c 0
 390 86 458 135 471 196 c 2
 532 483 l 1
 497 483 l 2
 456 483 441 494 441 523 c 0
 441 539 450 556 464 569 c 0
 479 581 487 583 519 583 c 2
 648 583 l 2
 668 583 675 582 683 579 c 0
 696 575 705 560 705 544 c 0
 705 527 696 509 682 498 c 0
 668 487 657 483 632 483 c 1
EndSplineSet
EndChar
StartChar: V
Encoding: 86 86
Width: 600
Flags: HMW
HStem: 0 21<249 347 249 249> 483 100<261 261 261 280 547 550 655 668.5>
VStem: 91 267 469 266
Fore
333 144 m 1
 550 483 l 1
 525 483 l 2
 505 483 499 484 491 487 c 0
 478 492 469 507 469 523 c 0
 469 539 478 557 492 569 c 0
 507 581 515 583 547 583 c 2
 678 583 l 2
 697 583 705 582 713 579 c 0
 726 575 735 560 735 543 c 0
 735 523 721 501 701 490 c 0
 690 484 682 483 655 483 c 1
 347 0 l 1
 249 0 l 1
 149 483 l 1
 137 483 l 2
 106 485 91 497 91 523 c 0
 91 539 100 557 114 569 c 0
 129 581 138 583 169 583 c 2
 302 583 l 2
 320 583 328 582 336 579 c 0
 349 575 358 560 358 543 c 0
 358 527 349 510 335 498 c 0
 321 486 311 483 280 483 c 2
 261 483 l 1
 333 144 l 1
EndSplineSet
EndChar
StartChar: W
Encoding: 87 87
Width: 600
Flags: HMW
HStem: 0 21<98 209 98 98 394 394 394 504> 417 20<345 448 448 448> 483 100<242 242 242 290 538 570 667 667>
VStem: 102 267 460 265<528.5 531>
Fore
359 277 m 1
 209 0 l 1
 98 0 l 1
 139 483 l 1
 114 486 102 498 102 519 c 0
 102 537 111 556 126 569 c 0
 141 581 149 583 180 583 c 2
 312 583 l 2
 332 583 338 582 347 579 c 0
 360 575 369 560 369 543 c 0
 369 527 360 509 346 498 c 0
 331 486 320 483 290 483 c 2
 242 483 l 1
 221 211 l 1
 345 437 l 1
 448 437 l 1
 476 211 l 1
 570 483 l 1
 516 483 l 2
 475 483 460 494 460 523 c 0
 460 539 469 556 483 569 c 0
 497 581 506 583 538 583 c 2
 668 583 l 2
 688 583 695 582 703 579 c 0
 716 575 725 560 725 544 c 0
 725 513 702 489 667 483 c 1
 504 0 l 1
 394 0 l 1
 359 277 l 1
EndSplineSet
EndChar
StartChar: X
Encoding: 88 88
Width: 600
Flags: W
HStem: 0 100<76 89> 563 20G<209 300 545 635>
VStem: 19.0079 244.992<40 60> 131.012 225.988<523 544> 356.012 244.988<40 60> 467.012 224.988<523 544>
DStem: 179 483 308 484 298 298 379 375 298 298 347 220 89 100 219 100 347 220 427 297 423 100 552 100 495 484 623 483 379 375 427 297
Fore
427 297 m 1
 552 100 l 1
 585 100 601 87 601 60 c 0
 601 44 592 27 578 15 c 0
 564 3 552 0 523 0 c 2
 413 0 l 2
 372 0 356 11 356 40 c 0
 356 53 362 68 373 79 c 0
 386 94 398 98 423 100 c 1
 347 220 l 1
 219 100 l 1
 249 99 264 86 264 60 c 0
 264 44 255 26 241 15 c 0
 227 3 215 0 186 0 c 2
 76 0 l 2
 35 0 19 11 19 40 c 0
 19 75 48 100 89 100 c 1
 298 298 l 1
 179 483 l 1
 146 484 131 497 131 523 c 0
 131 539 140 557 154 569 c 0
 168 580 178 583 209 583 c 2
 300 583 l 2
 320 583 326 582 335 579 c 0
 347 575 357 560 357 544 c 0
 357 517 342 500 308 484 c 1
 379 375 l 1
 495 484 l 1
 472 497 467 504 467 523 c 0
 467 539 476 556 490 569 c 1
 505 580 514 583 545 583 c 2
 635 583 l 2
 655 583 662 582 670 579 c 0
 683 575 692 560 692 544 c 0
 692 509 663 484 623 483 c 1
 427 297 l 1
EndSplineSet
EndChar
StartChar: Y
Encoding: 89 89
Width: 600
Flags: W
HStem: 0 100<182 272 373 436> 483 100<188 188 617 639>
VStem: 128.012 365.988<40 61> 134.012 223.988<523 544> 467.012 226.988<523 544>
DStem: 188 483 308 483 302 245 374 348 302 245 402 245 272 100 372 100 497 483 617 483 374 348 402 245
Fore
402 245 m 1
 372 100 l 1
 437 100 l 2
 457 100 464 99 472 96 c 0
 485 92 494 76 494 61 c 0
 494 45 485 26 471 15 c 0
 457 4 444 0 416 0 c 2
 185 0 l 2
 144 0 128 12 128 40 c 0
 128 56 137 74 151 85 c 0
 166 98 175 100 206 100 c 2
 272 100 l 1
 302 245 l 1
 188 483 l 1
 182 483 l 2
 151 483 134 497 134 523 c 0
 134 539 143 557 157 568 c 0
 172 581 181 583 212 583 c 2
 302 583 l 2
 322 583 328 582 336 579 c 0
 349 575 358 560 358 544 c 0
 358 517 341 496 308 483 c 1
 374 348 l 1
 497 483 l 1
 475 492 467 503 467 523 c 0
 467 539 476 556 490 569 c 1
 504 580 514 583 545 583 c 2
 638 583 l 2
 658 583 664 582 672 579 c 0
 685 575 694 559 694 544 c 0
 694 527 685 510 671 498 c 0
 657 486 645 483 620 483 c 2
 617 483 l 1
 402 245 l 1
EndSplineSet
EndChar
StartChar: Z
Encoding: 90 90
Width: 600
Flags: W
HStem: 0 100<223 448> 0 238<521 527> 483 100<299 476>
DStem: 220 583 299 483 184 413 284 413 464 172 564 172 448 100 527 0 477 483 607 486 94 100 222 100
Fore
222 100 m 1
 448 100 l 1
 464 172 l 1
 469 198 474 208 483 218 c 0
 495 230 512 238 528 238 c 0
 551 238 568 222 568 200 c 0
 568 192 568 191 564 172 c 2
 527 0 l 1
 73 0 l 1
 94 100 l 1
 477 483 l 1
 299 483 l 1
 284 413 l 1
 278 387 274 377 265 368 c 0
 252 355 235 347 219 347 c 0
 197 347 179 364 179 384 c 0
 179 392 179 394 184 413 c 1
 220 583 l 1
 628 583 l 1
 607 486 l 1
 222 100 l 1
EndSplineSet
EndChar
StartChar: bracketleft
Encoding: 91 91
Width: 600
Flags: HMW
HStem: -148 100<340 378> 527 100<462 462 462 520>
Fore
462 527 m 1
 340 -48 l 1
 399 -48 l 2
 419 -48 425 -49 434 -52 c 0
 447 -56 456 -71 456 -87 c 0
 456 -104 447 -121 433 -133 c 0
 419 -145 407 -148 378 -148 c 2
 219 -148 l 1
 384 627 l 1
 542 627 l 2
 562 627 568 626 576 623 c 0
 589 618 598 604 598 588 c 0
 598 572 589 554 575 542 c 0
 561 530 550 527 520 527 c 2
 462 527 l 1
EndSplineSet
EndChar
StartChar: backslash
Encoding: 92 92
Width: 600
Flags: W
DStem: 224 610 322 651 400 -69 499 -27
Fore
322 651 m 1
 499 -27 l 2
 502 -38 504 -48 504 -54 c 0
 504 -84 474 -113 443 -113 c 0
 418 -113 408 -103 400 -69 c 1
 224 610 l 1
 220 623 219 630 219 636 c 0
 219 666 249 695 280 695 c 0
 304 695 314 685 322 651 c 1
EndSplineSet
MinimumDistance: x1,-1 
EndChar
StartChar: bracketright
Encoding: 93 93
Width: 600
Flags: HMW
HStem: -148 100<182 240> 527 100<324 362>
Fore
240 -48 m 1
 362 527 l 1
 303 527 l 2
 283 527 277 528 268 531 c 0
 255 535 246 550 246 566 c 0
 246 583 255 600 269 612 c 0
 283 624 295 627 324 627 c 2
 483 627 l 1
 318 -148 l 1
 160 -148 l 2
 140 -148 134 -147 126 -144 c 0
 113 -139 104 -125 104 -109 c 0
 104 -93 113 -75 127 -63 c 0
 141 -51 152 -48 182 -48 c 2
 240 -48 l 1
EndSplineSet
EndChar
StartChar: asciicircum
Encoding: 94 94
Width: 600
Flags: W
DStem: 404 494 438 652 494 355 584 419 438 652 404 494 193 419 257 356
Fore
404 494 m 1
 257 356 l 2
 229 330 221 325 202 325 c 0
 178 325 161 342 161 365 c 0
 161 384 168 395 193 419 c 2
 438 652 l 1
 584 419 l 2
 595 402 598 395 598 384 c 0
 598 355 567 325 536 325 c 0
 517 325 510 330 494 355 c 2
 404 494 l 1
EndSplineSet
MinimumDistance: x6,-1 
EndChar
StartChar: underscore
Encoding: 95 95
Width: 600
Flags: HMW
HStem: -125 50<-61 564>
VStem: -61 625<-125 -75>
Fore
564 -75 m 1
 564 -125 l 1
 -61 -125 l 1
 -61 -75 l 1
 564 -75 l 1
EndSplineSet
EndChar
StartChar: grave
Encoding: 96 96
Width: 600
Flags: W
DStem: 280 624 338 680 390 512 448 569
Fore
338 680 m 2
 448 569 l 1
 459 559 464 549 464 540 c 0
 464 517 441 496 418 496 c 0
 409 496 402 500 390 512 c 2
 280 624 l 1
 269 634 264 644 264 652 c 0
 264 675 286 696 310 696 c 0
 320 696 326 693 338 680 c 2
EndSplineSet
MinimumDistance: x1,-1 
EndChar
StartChar: a
Encoding: 97 97
Width: 600
Flags: HMW
HStem: 0 21<388 388 388 505> 196 92<295.5 337> 350 100<361.5 397.5>
VStem: 65 109<108.5 112.5> 453 104
Fore
388 0 m 1
 393 23 l 1
 340 -2 278 -16 219 -16 c 0
 130 -16 65 32 65 98 c 0
 65 127 79 159 105 190 c 0
 158 253 244 288 346 288 c 0
 378 288 408 285 447 278 c 1
 452 301 l 2
 453 305 453 305 453 311 c 0
 453 338 426 350 369 350 c 0
 337 350 295 344 249 333 c 0
 232 329 218 327 207 327 c 0
 185 327 169 343 169 366 c 0
 169 388 182 408 202 417 c 0
 236 433 334 450 389 450 c 0
 493 450 557 407 557 337 c 0
 557 324 556 314 553 302 c 1
 510 100 l 1
 527 100 l 2
 547 100 553 99 561 96 c 0
 574 92 583 77 583 61 c 0
 583 44 574 27 560 15 c 0
 547 3 534 0 505 0 c 2
 388 0 l 1
418 135 m 1
 428 185 l 1
 390 192 354 196 320 196 c 0
 271 196 230 182 198 156 c 0
 182 142 174 130 174 118 c 0
 174 99 203 84 241 84 c 0
 296 84 355 101 418 135 c 1
EndSplineSet
EndChar
StartChar: b
Encoding: 98 98
Width: 600
Flags: W
HStem: -14 100<323 345> 0 100<57 96> 351 100<394 417> 524 99.1499<169 185>
VStem: 519.18 103.553<244 269>
DStem: 186 524 307 624 96 100 259 401
Fore
307 624 m 1
 259 401 l 1
 309 435 360 451 418 451 c 0
 479 451 528 437 560 409 c 0
 600 376 623 324 623 269 c 0
 623 201 592 129 541 77 c 0
 481 16 409 -14 321 -14 c 0
 263 -14 226 -1 182 35 c 1
 174 0 l 1
 58 0 l 2
 18 0 2 11 2 40 c 0
 2 56 11 73 25 85 c 0
 39 97 49 100 80 100 c 2
 96 100 l 1
 186 524 l 1
 170 524 l 2
 128 524 113 535 113 564 c 0
 113 580 122 598 136 610 c 0
 150 621 160 624 191 624 c 2
 307 624 l 1
395 351 m 0
 337 351 291 329 255 286 c 0
 231 258 218 224 218 193 c 0
 218 126 264 86 343 86 c 0
 400 86 448 108 483 151 c 0
 506 179 520 213 520 244 c 0
 520 279 505 310 478 330 c 0
 460 344 431 351 395 351 c 0
EndSplineSet
EndChar
StartChar: c
Encoding: 99 99
Width: 600
Flags: HMW
HStem: -16 100<296.5 367> 350 100<360.5 407>
VStem: 94 101
Fore
622 384 m 1
 606 307 l 1
 600 282 596 271 586 261 c 0
 574 249 557 241 541 241 c 0
 529 241 515 247 508 255 c 0
 502 262 501 268 501 289 c 0
 501 306 497 316 486 325 c 0
 463 341 429 350 385 350 c 0
 321 350 271 327 234 282 c 0
 210 252 195 213 195 178 c 0
 195 115 245 84 348 84 c 0
 428 84 464 94 512 128 c 0
 523 136 533 140 545 140 c 0
 568 140 585 123 585 99 c 0
 585 79 570 57 544 39 c 0
 491 2 417 -16 317 -16 c 0
 244 -16 189 -2 154 26 c 0
 115 56 93 104 93 156 c 0
 93 223 124 297 174 351 c 0
 234 416 314 450 407 450 c 0
 463 450 509 440 544 420 c 1
 554 441 567 450 588 450 c 0
 612 450 626 436 626 412 c 0
 626 405 625 400 622 384 c 1
EndSplineSet
EndChar
StartChar: d
Encoding: 100 100
Width: 600
Flags: HMW
HStem: 351 100<333 373> 525 98
VStem: 74 104
Fore
664 624 m 1
 553 100 l 1
 569 100 l 2
 589 100 595 99 603 96 c 0
 616 92 625 77 625 60 c 0
 625 44 616 26 602 15 c 0
 588 3 577 0 547 0 c 2
 431 0 l 1
 439 35 l 1
 379 -1 336 -14 278 -14 c 0
 218 -14 170 0 137 28 c 0
 97 61 74 113 74 168 c 0
 74 236 105 308 156 360 c 0
 217 422 288 451 378 451 c 0
 437 451 481 435 517 401 c 1
 543 525 l 1
 527 525 l 2
 509 525 500 526 492 529 c 0
 479 533 470 548 470 565 c 0
 470 580 479 598 493 610 c 0
 508 622 517 624 548 624 c 2
 664 624 l 1
354 351 m 0
 297 351 250 329 214 286 c 0
 191 258 177 224 177 193 c 0
 177 126 224 86 302 86 c 0
 361 86 408 108 444 151 c 0
 467 179 481 213 481 244 c 0
 481 279 466 310 439 330 c 0
 421 344 392 351 354 351 c 0
EndSplineSet
EndChar
StartChar: e
Encoding: 101 101
Width: 600
Flags: HMW
HStem: -16 100<281 334> 172 88<200 495> 350 100<330 403>
Fore
587 172 m 1
 178 172 l 1
 189 112 237 84 325 84 c 0
 369 84 398 89 493 112 c 0
 506 115 519 117 528 117 c 0
 551 117 566 101 566 79 c 0
 566 57 554 39 533 28 c 0
 490 5 374 -16 294 -16 c 0
 158 -16 74 55 74 169 c 0
 74 318 221 450 387 450 c 0
 517 450 600 375 600 259 c 0
 600 243 598 227 595 211 c 1
 587 172 l 1
200 260 m 1
 495 260 l 1
 490 314 439 350 367 350 c 0
 293 350 228 315 200 260 c 1
EndSplineSet
EndChar
StartChar: f
Encoding: 102 102
Width: 600
Flags: HMW
HStem: 0 100<162 220 320 438> 337 100<245 270 392 521> 523 100<465.5 509.5>
VStem: 166 433
Fore
370 337 m 1
 320 100 l 1
 459 100 l 2
 479 100 486 99 494 96 c 0
 507 92 516 76 516 61 c 0
 516 44 507 27 493 15 c 0
 479 4 466 0 438 0 c 2
 140 0 l 2
 100 0 84 12 84 40 c 0
 84 56 93 73 107 85 c 0
 122 98 130 100 162 100 c 2
 220 100 l 1
 270 337 l 1
 224 337 l 2
 182 337 166 348 166 377 c 0
 166 393 175 411 189 423 c 0
 204 435 213 437 245 437 c 2
 291 437 l 1
 299 474 l 2
 319 566 405 623 525 623 c 0
 566 623 628 616 658 607 c 0
 680 601 691 589 691 570 c 0
 691 539 662 509 632 509 c 0
 626 509 617 510 605 512 c 0
 570 519 525 523 494 523 c 0
 437 523 407 507 399 474 c 1
 392 437 l 1
 542 437 l 2
 563 437 569 436 577 433 c 0
 590 429 599 414 599 397 c 0
 599 381 590 364 576 352 c 0
 562 340 550 337 521 337 c 2
 370 337 l 1
EndSplineSet
EndChar
StartChar: g
Encoding: 103 103
Width: 600
Flags: W
HStem: -205 100<162 295> -13.8798 100.772<265 289> 337 100<581 619> 351 99.1779<344 361>
VStem: 73.2471 103.552<168 193>
DStem: 417 35 581 337 405 -20 505 -20
Fore
495 401 m 1
 502 437 l 1
 619 437 l 2
 639 437 645 436 653 433 c 0
 666 429 675 414 675 397 c 0
 675 381 666 364 652 352 c 0
 638 340 627 337 597 337 c 2
 581 337 l 1
 505 -20 l 1
 483 -126 384 -205 274 -205 c 2
 163 -205 l 2
 122 -205 106 -194 106 -165 c 0
 106 -149 115 -131 129 -120 c 0
 144 -107 153 -105 184 -105 c 2
 293 -105 l 2
 350 -105 394 -72 405 -20 c 2
 417 35 l 1
 363 1 317 -14 265 -14 c 0
 151 -14 73 60 73 168 c 0
 73 318 211 451 365 451 c 0
 418 451 463 434 495 401 c 1
345 351 m 0
 259 351 176 274 176 193 c 0
 176 130 223 86 289 86 c 0
 377 86 459 163 459 244 c 0
 459 307 412 351 345 351 c 0
EndSplineSet
MinimumDistance: x7,-1 
EndChar
StartChar: h
Encoding: 104 104
Width: 600
Flags: HMW
HStem: 0 100<111 117 425 431> 350 100<402 419> 524 99
VStem: 33 247 346 247
Fore
328 624 m 1
 278 389 l 1
 327 430 376 450 428 450 c 0
 516 450 574 401 574 325 c 0
 574 312 573 298 570 284 c 2
 530 100 l 1
 536 100 l 2
 557 100 563 99 571 96 c 0
 584 91 593 76 593 60 c 0
 593 44 584 27 570 15 c 0
 556 3 544 0 515 0 c 2
 403 0 l 2
 362 0 346 11 346 40 c 0
 346 56 355 73 369 85 c 0
 384 97 394 100 425 100 c 2
 431 100 l 1
 467 271 l 1
 470 283 471 294 471 302 c 0
 471 331 442 350 396 350 c 0
 348 350 324 339 256 283 c 1
 217 100 l 1
 223 100 l 2
 243 100 249 99 258 96 c 0
 270 91 280 76 280 60 c 0
 280 44 271 26 257 15 c 0
 243 3 230 0 201 0 c 2
 89 0 l 2
 49 0 33 11 33 40 c 0
 33 56 42 73 56 85 c 0
 71 97 80 100 111 100 c 2
 117 100 l 1
 207 524 l 1
 191 524 l 2
 149 524 134 535 134 564 c 0
 134 580 143 598 157 610 c 0
 171 621 181 624 212 624 c 2
 328 624 l 1
EndSplineSet
EndChar
StartChar: i
Encoding: 105 105
Width: 600
Flags: HMW
HStem: 0 100<150 272 372 472> 337 100<265 322> 518 105<351 446>
VStem: 72 478
Fore
443 437 m 1
 372 100 l 1
 493 100 l 2
 513 100 520 99 528 96 c 0
 541 92 550 76 550 60 c 0
 550 44 541 27 527 15 c 0
 513 4 500 0 472 0 c 2
 129 0 l 2
 88 0 72 11 72 40 c 0
 72 56 81 73 95 85 c 0
 110 98 118 100 150 100 c 2
 272 100 l 1
 322 337 l 1
 244 337 l 2
 202 337 186 348 186 377 c 0
 186 393 195 411 209 422 c 0
 224 435 233 437 265 437 c 2
 443 437 l 1
469 623 m 1
 446 518 l 1
 328 518 l 1
 351 623 l 1
 469 623 l 1
EndSplineSet
EndChar
StartChar: j
Encoding: 106 106
Width: 600
Flags: HMW
HStem: -205 100<161 253> 337 100<279 460> 518 105<443 540>
Fore
460 337 m 1
 258 337 l 2
 217 337 201 348 201 377 c 0
 201 393 210 410 224 422 c 0
 239 435 248 437 279 437 c 2
 581 437 l 1
 484 -20 l 1
 462 -125 362 -205 253 -205 c 2
 140 -205 l 2
 99 -205 83 -194 83 -165 c 0
 83 -149 92 -132 106 -120 c 0
 121 -107 130 -105 161 -105 c 2
 271 -105 l 2
 329 -105 373 -72 384 -20 c 2
 460 337 l 1
563 623 m 1
 540 518 l 1
 421 518 l 1
 443 623 l 1
 563 623 l 1
EndSplineSet
EndChar
StartChar: k
Encoding: 107 107
Width: 600
Flags: W
HStem: 0 100<97 136 492 525> 337 100<501 550> 524 99.1048<209 225>
VStem: 329.008 252.992<40 60> 359.009 246.991<376 398>
DStem: 226 524 347 624 136 100 275 287 226 524 249 164 136 100 215 0 270 178 362 241 354 87 492 100 367 350 501 337 275 287 362 241
Fore
249 164 m 1
 215 0 l 1
 98 0 l 2
 58 0 42 11 42 40 c 0
 42 56 51 73 65 85 c 0
 79 97 89 100 120 100 c 2
 136 100 l 1
 226 524 l 1
 210 524 l 2
 192 524 183 525 175 528 c 0
 162 532 153 547 153 563 c 0
 153 580 162 598 176 610 c 0
 190 621 201 624 231 624 c 2
 347 624 l 1
 275 287 l 1
 367 350 l 1
 361 361 359 366 359 376 c 0
 359 393 367 410 382 422 c 0
 396 434 407 437 437 437 c 2
 549 437 l 2
 590 437 606 426 606 398 c 0
 606 381 597 364 583 352 c 0
 568 340 558 337 528 337 c 2
 501 337 l 1
 362 241 l 1
 492 100 l 1
 525 100 l 2
 544 100 552 99 560 96 c 0
 573 92 582 76 582 60 c 0
 582 44 573 27 559 15 c 0
 545 3 532 0 504 0 c 2
 386 0 l 2
 345 0 329 11 329 40 c 0
 329 57 336 71 354 87 c 1
 270 178 l 1
 249 164 l 1
EndSplineSet
EndChar
StartChar: l
Encoding: 108 108
Width: 600
Flags: HMW
HStem: 0 100<150 272 372 472> 524 100<305 362>
VStem: 72 478
Fore
483 624 m 1
 372 100 l 1
 493 100 l 2
 513 100 520 99 528 96 c 0
 541 92 550 76 550 60 c 0
 550 44 541 27 527 15 c 0
 513 4 500 0 472 0 c 2
 129 0 l 2
 88 0 72 11 72 40 c 0
 72 56 81 73 95 85 c 0
 110 98 118 100 150 100 c 2
 272 100 l 1
 362 524 l 1
 283 524 l 2
 267 524 256 525 249 528 c 0
 236 532 226 548 226 564 c 0
 226 580 235 598 250 610 c 0
 264 621 274 624 305 624 c 2
 483 624 l 1
EndSplineSet
EndChar
StartChar: m
Encoding: 109 109
Width: 600
Flags: HMW
HStem: 0 100<42 48 48 63> 417 20<141 234 234 234>
VStem: -9 223<52 57.5>
Fore
234 437 m 1
 229 413 l 1
 270 441 292 450 322 450 c 0
 361 450 391 434 413 401 c 1
 452 435 487 450 527 450 c 0
 590 450 634 409 634 350 c 0
 634 337 633 330 631 319 c 1
 584 100 l 1
 618 100 635 87 635 60 c 0
 635 44 626 27 612 15 c 0
 598 3 585 0 557 0 c 2
 463 0 l 1
 529 311 l 1
 531 318 531 324 531 330 c 0
 530 343 521 350 503 350 c 0
 476 350 459 341 417 305 c 1
 374 100 l 1
 407 100 424 87 424 60 c 0
 424 44 415 27 401 15 c 0
 387 3 374 0 346 0 c 2
 252 0 l 1
 318 311 l 1
 320 318 321 326 321 329 c 0
 321 343 311 350 293 350 c 0
 265 350 243 339 206 305 c 1
 163 100 l 1
 197 100 214 87 214 60 c 0
 214 44 205 27 191 15 c 0
 177 3 164 0 136 0 c 2
 48 0 l 2
 7 0 -9 11 -9 40 c 0
 -9 75 21 100 63 100 c 1
 113 337 l 1
 79 337 62 350 62 377 c 0
 62 393 71 410 86 422 c 0
 100 434 110 437 141 437 c 2
 234 437 l 1
EndSplineSet
EndChar
StartChar: n
Encoding: 110 110
Width: 600
Flags: W
HStem: 0 100<88 117 218 223 415 432> 349.998 100.002<394 428> 417 20G<194 288>
VStem: 33.0117 245.988<40 60> 359.012 223.988<40 60> 471.991 103.009<301 328>
DStem: 167 337 255 282 117 100 217 100 469 278 570 282 432 100 531 100
Fore
288 437 m 1
 278 389 l 1
 336 435 373 450 428 450 c 0
 516 450 575 401 575 328 c 0
 575 312 573 298 570 282 c 1
 531 100 l 1
 566 100 583 87 583 60 c 0
 583 44 574 27 560 15 c 0
 546 3 533 0 505 0 c 2
 416 0 l 2
 375 0 359 11 359 40 c 0
 359 56 368 73 382 85 c 0
 396 97 407 100 432 100 c 1
 469 278 l 2
 471 287 472 294 472 301 c 0
 472 333 444 350 394 350 c 0
 348 350 313 333 255 282 c 1
 217 100 l 1
 223 100 l 2
 243 100 249 99 257 96 c 0
 270 91 279 76 279 60 c 0
 279 44 270 27 256 15 c 0
 242 3 230 0 201 0 c 2
 89 0 l 2
 49 0 33 11 33 40 c 0
 33 56 42 73 56 85 c 0
 70 97 80 100 111 100 c 2
 117 100 l 1
 167 337 l 1
 132 337 115 350 115 377 c 0
 115 393 124 411 138 422 c 0
 153 434 163 437 194 437 c 2
 288 437 l 1
EndSplineSet
MinimumDistance: x3,-1 
EndChar
StartChar: o
Encoding: 111 111
Width: 600
Flags: HMW
HStem: -16 100<279.5 368.5> 350 99
VStem: 85 101 507 101
Fore
399 450 m 0
 523 450 609 372 609 260 c 0
 609 115 460 -16 297 -16 c 0
 169 -16 84 60 84 174 c 0
 84 231 111 295 158 346 c 0
 216 410 308 450 399 450 c 0
376 350 m 0
 274 350 186 277 186 192 c 0
 186 129 241 84 318 84 c 0
 419 84 507 158 507 242 c 0
 507 305 452 350 376 350 c 0
EndSplineSet
EndChar
StartChar: p
Encoding: 112 112
Width: 600
Flags: W
HStem: -205 100<13 52 153 210> 10 100<326 348> 337 99.0171<128 145> 350 99.0458<398 406> 417 20G<151 267>
VStem: -41.9883 307.988<-165 -144> 522 100.284<251 259>
DStem: 146 337 188 66 52 -105 152 -105
Fore
188 66 m 1
 152 -105 l 1
 210 -105 l 2
 228 -105 236 -106 244 -109 c 0
 257 -113 266 -128 266 -144 c 0
 266 -161 257 -178 243 -190 c 0
 229 -202 218 -205 188 -205 c 2
 14 -205 l 2
 -26 -205 -42 -194 -42 -165 c 0
 -42 -149 -33 -132 -19 -120 c 0
 -5 -108 5 -105 36 -105 c 2
 52 -105 l 1
 146 337 l 1
 129 337 l 2
 88 337 73 348 73 377 c 0
 73 393 82 410 96 422 c 0
 110 434 120 437 151 437 c 2
 267 437 l 1
 257 392 l 1
 315 434 361 450 423 450 c 0
 545 450 623 379 623 269 c 0
 623 127 490 10 329 10 c 0
 272 10 231 27 188 66 c 1
398 350 m 0
 301 350 225 290 221 211 c 0
 220 186 232 157 251 139 c 0
 273 120 304 110 346 110 c 0
 387 110 423 120 453 139 c 0
 494 166 522 211 522 252 c 0
 522 312 473 350 398 350 c 0
EndSplineSet
EndChar
StartChar: q
Encoding: 113 113
Width: 600
Flags: W
HStem: -205 100<328 408 508 525> 10.4114 99.9062<277 305> 337 100<602 640> 350 100<349 375>
VStem: 75.7749 104.028<177 208> 272.012 308.988<-166 -145>
DStem: 444 66 602 337 408 -105 508 -105
Fore
408 -105 m 1
 444 66 l 1
 384 26 336 10 277 10 c 0
 158 10 75 78 75 177 c 0
 75 250 114 328 177 381 c 0
 231 426 300 450 373 450 c 0
 435 450 474 434 514 392 c 1
 523 437 l 1
 640 437 l 2
 660 437 666 436 674 433 c 0
 687 428 696 414 696 397 c 0
 696 381 687 364 673 352 c 0
 659 340 648 337 618 337 c 2
 602 337 l 1
 508 -105 l 1
 524 -105 l 2
 544 -105 550 -106 559 -109 c 0
 572 -114 581 -128 581 -145 c 0
 581 -161 572 -178 558 -190 c 0
 544 -202 532 -205 503 -205 c 2
 329 -205 l 2
 312 -205 301 -204 294 -201 c 0
 282 -197 272 -181 272 -166 c 0
 272 -150 281 -131 295 -120 c 0
 309 -108 320 -105 350 -105 c 2
 408 -105 l 1
356 350 m 0
 314 350 279 340 248 321 c 0
 207 294 179 249 179 208 c 0
 179 148 228 110 305 110 c 0
 347 110 383 120 413 139 c 0
 453 165 482 211 482 249 c 0
 482 313 435 350 356 350 c 0
EndSplineSet
EndChar
StartChar: r
Encoding: 114 114
Width: 600
Flags: HMW
HStem: 0 100<141 200 300 418> 338 99<236 250>
Fore
371 437 m 1
 358 373 l 1
 455 434 492 449 541 449 c 0
 594 449 650 410 650 375 c 0
 650 345 619 314 588 314 c 0
 574 314 565 319 553 332 c 0
 541 345 532 350 517 350 c 0
 486 350 438 323 331 248 c 1
 300 100 l 1
 439 100 l 2
 459 100 466 99 474 96 c 0
 487 92 496 76 496 60 c 0
 496 44 487 27 473 15 c 0
 459 4 446 0 418 0 c 2
 120 0 l 2
 80 0 64 11 64 40 c 0
 64 56 73 73 87 85 c 0
 101 98 110 100 141 100 c 2
 200 100 l 1
 250 338 l 1
 215 338 l 2
 175 338 159 349 159 377 c 0
 159 393 168 410 182 422 c 0
 195 433 211 437 236 437 c 2
 371 437 l 1
EndSplineSet
EndChar
StartChar: s
Encoding: 115 115
Width: 600
Flags: W
HStem: -16 100<300 329> 1.00608 165.994<124 159> 281.012 168.988<516 555> 350 100<370 396>
VStem: 156.017 112.983<289 312> 443.977 112.023<131 150>
Fore
475 312 m 2
 472 321 l 1
 449 341 418 350 376 350 c 0
 321 350 269 331 269 312 c 0
 269 305 278 296 291 291 c 0
 303 286 309 285 371 276 c 0
 444 266 481 255 507 239 c 0
 538 219 556 187 556 150 c 0
 556 57 445 -16 301 -16 c 0
 243 -16 195 -6 159 13 c 1
 145 4 137 1 124 1 c 0
 100 1 83 16 83 39 c 0
 83 45 84 52 87 67 c 2
 94 100 l 2
 104 146 124 167 159 167 c 0
 185 167 198 153 201 123 c 1
 224 97 264 84 318 84 c 0
 386 84 444 106 444 131 c 0
 444 143 434 155 417 162 c 0
 402 169 381 173 328 179 c 0
 206 192 156 224 156 289 c 0
 156 379 260 450 394 450 c 0
 442 450 482 442 517 424 c 1
 530 444 539 450 555 450 c 0
 577 450 592 436 592 414 c 0
 592 407 591 398 588 384 c 2
 580 347 l 2
 574 320 571 311 561 301 c 0
 548 289 531 281 516 281 c 0
 495 281 483 290 475 312 c 2
EndSplineSet
MinimumDistance: x7,-1 
EndChar
StartChar: t
Encoding: 116 116
Width: 600
Flags: W
HStem: -15.8196 99.8196<291 318> 337 100<150 185 308 489> 337 254<286 293>
VStem: 94.0116 450.988<377 397> 137.002 103.998<92 117> 137.669 408.671<80 84>
DStem: 186 337 286 337 140 122 244 141 226 525 326 525 207 437 307 437
Fore
286 337 m 1
 244 141 l 2
 242 132 241 123 241 117 c 0
 241 95 267 84 318 84 c 0
 371 84 422 95 472 118 c 0
 490 127 497 129 508 129 c 0
 531 129 547 113 547 89 c 0
 547 67 536 50 512 37 c 0
 457 7 361 -16 291 -16 c 0
 247 -16 203 -4 174 16 c 0
 151 32 137 60 137 92 c 0
 137 104 138 112 140 122 c 2
 186 337 l 1
 151 337 l 2
 110 337 94 348 94 377 c 0
 94 393 103 411 117 423 c 0
 132 435 140 437 172 437 c 2
 207 437 l 1
 226 525 l 1
 231 551 235 561 245 571 c 0
 257 583 274 591 290 591 c 0
 313 591 330 575 330 553 c 0
 330 545 330 544 326 525 c 2
 307 437 l 1
 488 437 l 2
 508 437 514 436 523 433 c 0
 536 429 545 414 545 397 c 0
 545 381 536 364 522 352 c 0
 508 340 496 337 467 337 c 2
 286 337 l 1
EndSplineSet
MinimumDistance: x26,-1 
EndChar
StartChar: u
Encoding: 117 117
Width: 600
Flags: HMW
HStem: 0 21<410 504 410 410> 338 99<468 482>
VStem: 124 102
Fore
603 437 m 1
 531 100 l 1
 566 100 583 87 583 61 c 0
 583 44 574 26 559 15 c 1
 546 3 533 0 504 0 c 2
 410 0 l 1
 420 48 l 1
 360 1 326 -13 270 -13 c 0
 182 -13 123 36 123 110 c 0
 123 127 124 140 128 156 c 1
 166 338 l 1
 150 338 l 2
 110 338 94 349 94 378 c 0
 94 393 103 411 117 423 c 0
 131 434 141 437 172 437 c 2
 288 437 l 1
 229 159 l 1
 227 151 226 144 226 136 c 0
 226 105 253 87 301 87 c 0
 351 87 380 101 443 155 c 1
 482 338 l 1
 447 338 l 2
 406 338 390 349 390 377 c 0
 390 393 399 411 413 423 c 0
 428 434 437 437 468 437 c 2
 603 437 l 1
EndSplineSet
EndChar
StartChar: v
Encoding: 118 118
Width: 600
Flags: HMW
HStem: 0 21<247 350 247 247> 337 100<264 264 264 270 589 589 589 605>
VStem: 81 266 414 269
Fore
327 122 m 1
 481 337 l 1
 471 337 l 2
 430 337 414 348 414 377 c 0
 414 393 423 410 437 422 c 0
 451 434 461 437 492 437 c 2
 626 437 l 2
 645 437 653 436 661 433 c 0
 674 429 683 414 683 398 c 0
 683 381 674 364 660 352 c 0
 646 340 635 337 605 337 c 2
 589 337 l 1
 350 0 l 1
 247 0 l 1
 151 337 l 1
 138 337 l 2
 97 337 81 348 81 377 c 0
 81 393 90 410 104 422 c 0
 118 434 129 437 159 437 c 2
 291 437 l 2
 309 437 317 436 325 433 c 0
 338 429 347 413 347 397 c 0
 347 381 338 364 324 352 c 0
 310 340 299 337 270 337 c 2
 264 337 l 1
 327 122 l 1
EndSplineSet
EndChar
StartChar: w
Encoding: 119 119
Width: 600
Flags: W
HStem: 0 343<373 421> 338 99<233.031 254 513 520>
VStem: 82.0116 225.988<377 398> 457.012 226.988<377 397>
DStem: 127 338 233 338 140 0 239 185 521 338 620 338 448 185 465 0
Fore
340 181 m 1
 234 0 l 1
 140 0 l 1
 127 338 l 1
 97 339 82 352 82 377 c 0
 82 393 91 411 105 422 c 0
 120 435 129 437 160 437 c 2
 252 437 l 2
 272 437 278 436 286 433 c 0
 299 429 308 414 308 398 c 0
 308 382 299 364 286 352 c 0
 272 341 263 338 233 338 c 1
 239 185 l 1
 332 343 l 1
 421 343 l 1
 448 185 l 1
 521 338 l 1
 514 338 l 2
 495 338 487 339 479 342 c 0
 466 346 457 361 457 377 c 0
 457 393 466 411 480 422 c 0
 494 434 504 437 535 437 c 2
 627 437 l 2
 647 437 654 436 662 433 c 0
 675 429 684 414 684 397 c 0
 684 384 678 369 667 358 c 0
 654 344 643 340 620 338 c 1
 465 0 l 1
 373 0 l 1
 340 181 l 1
EndSplineSet
EndChar
StartChar: x
Encoding: 120 120
Width: 600
Flags: HMW
HStem: 0 21<66.5 87 87 197 379.5 400 400 512> 417 20<198 291 291 301 492 584 584 594>
VStem: 414 227<381.5 384>
Fore
421 227 m 1
 545 100 l 1
 575 99 590 86 590 60 c 0
 590 44 581 27 567 15 c 0
 553 3 541 0 512 0 c 2
 400 0 l 2
 359 0 343 11 343 40 c 0
 343 67 364 92 395 100 c 1
 333 161 l 1
 246 100 l 1
 269 89 276 81 276 62 c 0
 276 45 267 27 253 15 c 0
 239 3 226 0 197 0 c 2
 87 0 l 2
 46 0 30 11 30 40 c 0
 30 53 36 68 47 79 c 0
 60 94 72 98 96 100 c 1
 268 228 l 1
 163 337 l 1
 134 340 120 353 120 377 c 0
 120 393 129 411 143 422 c 0
 158 434 168 437 198 437 c 2
 291 437 l 2
 311 437 317 436 325 433 c 0
 338 428 347 414 347 397 c 0
 347 377 333 355 310 342 c 1
 361 293 l 1
 432 343 l 1
 419 354 414 363 414 376 c 0
 414 392 423 410 437 422 c 0
 452 434 462 437 492 437 c 2
 584 437 l 2
 604 437 610 436 619 433 c 0
 632 429 641 414 641 398 c 0
 641 365 615 341 576 337 c 1
 421 227 l 1
EndSplineSet
EndChar
StartChar: y
Encoding: 121 121
Width: 600
Flags: HMW
HStem: -205 100<65 165> 337 100<255 255 599 599>
VStem: 435 227<381 385>
Fore
243 3 m 1
 142 337 l 1
 115 341 102 353 102 377 c 0
 102 393 111 411 125 422 c 0
 140 434 149 437 180 437 c 2
 270 437 l 2
 290 437 296 436 304 433 c 0
 317 429 326 414 326 398 c 0
 326 362 297 338 255 337 c 1
 323 114 l 1
 489 337 l 1
 484 337 l 2
 452 337 435 351 435 377 c 0
 435 393 444 411 458 422 c 0
 472 434 482 437 513 437 c 2
 605 437 l 2
 625 437 632 436 640 433 c 0
 653 429 662 414 662 397 c 0
 662 365 636 341 599 337 c 1
 274 -105 l 1
 279 -105 l 2
 298 -105 306 -106 314 -109 c 0
 327 -113 336 -128 336 -144 c 0
 336 -161 327 -178 313 -190 c 0
 299 -202 287 -205 258 -205 c 2
 44 -205 l 2
 3 -205 -13 -194 -13 -165 c 0
 -13 -149 -4 -132 10 -120 c 0
 25 -108 34 -105 65 -105 c 2
 165 -105 l 1
 243 3 l 1
EndSplineSet
EndChar
StartChar: z
Encoding: 122 122
Width: 600
Flags: W
HStem: 0 100<266 441> 0 154<490.488 504> 337 100<269 416>
DStem: 417 337 582 356 103 83 265 100
Fore
265 100 m 1
 441 100 l 1
 451 135 472 154 502 154 c 0
 525 154 542 138 542 117 c 0
 542 110 541 103 538 88 c 2
 519 0 l 1
 85 0 l 1
 103 83 l 1
 417 337 l 1
 269 337 l 1
 267 328 l 2
 261 301 258 293 248 283 c 0
 235 270 219 262 203 262 c 0
 180 262 163 278 163 299 c 0
 163 305 165 319 167 328 c 2
 190 437 l 1
 599 437 l 1
 582 356 l 1
 265 100 l 1
EndSplineSet
MinimumDistance: x17,-1 
EndChar
StartChar: braceleft
Encoding: 123 123
Width: 600
Flags: W
VStem: 217 168.993<194 227> 241.004 101.996<-48 -30>
DStem: 280 151 378 142 244 -22 345 -15 353 492 451 485 318 328 418 328
Fore
451 485 m 1
 418 328 l 1
 408 284 398 266 370 240 c 1
 381 222 386 209 386 194 c 0
 386 184 383 164 378 142 c 1
 345 -15 l 1
 344 -21 343 -27 343 -30 c 0
 343 -46 349 -51 373 -52 c 0
 398 -54 413 -69 413 -91 c 0
 413 -126 383 -153 345 -153 c 0
 286 -153 241 -108 241 -48 c 0
 241 -39 242 -31 244 -22 c 2
 280 151 l 1
 282 158 283 165 283 169 c 0
 283 181 276 187 256 189 c 0
 229 192 217 204 217 227 c 0
 217 262 240 286 278 290 c 0
 304 293 312 300 318 328 c 2
 353 492 l 2
 368 563 440 623 511 623 c 0
 539 623 556 608 556 583 c 0
 556 552 529 525 495 522 c 1
 468 522 458 513 451 485 c 1
EndSplineSet
MinimumDistance: x0,-1 
EndChar
StartChar: bar
Encoding: 124 124
Width: 600
Flags: W
DStem: 368 556 468 556 231 -87 331 -87
Fore
468 556 m 2
 331 -87 l 1
 326 -113 322 -122 312 -132 c 0
 299 -145 283 -153 267 -153 c 0
 244 -153 227 -137 227 -116 c 0
 227 -109 228 -100 231 -87 c 1
 368 556 l 1
 373 581 378 592 387 601 c 0
 399 614 416 622 432 622 c 0
 455 622 472 606 472 584 c 0
 472 578 471 570 468 556 c 2
EndSplineSet
MinimumDistance: x0,-1 
EndChar
StartChar: braceright
Encoding: 125 125
Width: 600
Flags: HMW
VStem: 314 169
Fore
249 -15 m 1
 282 142 l 1
 292 186 302 204 330 230 c 1
 319 248 314 261 314 276 c 0
 314 286 317 306 322 328 c 1
 355 485 l 1
 356 491 357 497 357 500 c 0
 357 516 351 521 327 522 c 0
 302 524 287 539 287 562 c 0
 287 596 317 623 355 623 c 0
 414 623 459 578 459 518 c 0
 459 509 458 501 456 492 c 2
 420 319 l 1
 418 312 417 305 417 301 c 0
 417 289 424 283 444 281 c 0
 471 278 483 266 483 243 c 0
 483 208 460 184 422 180 c 0
 396 177 388 169 382 142 c 2
 347 -22 l 2
 332 -93 260 -153 189 -153 c 0
 161 -153 144 -138 144 -113 c 0
 144 -82 171 -55 205 -52 c 1
 232 -52 242 -43 249 -15 c 1
EndSplineSet
EndChar
StartChar: asciitilde
Encoding: 126 126
Width: 600
Flags: HMW
HStem: 179 105<445 451>
Fore
565 364 m 0
 588 364 606 347 606 324 c 0
 606 305 596 288 571 262 c 0
 506 197 474 179 428 179 c 0
 390 179 356 200 308 254 c 0
 291 272 279 281 271 281 c 0
 262 281 250 272 216 239 c 0
 183 207 174 201 156 201 c 0
 133 201 114 219 114 240 c 0
 114 264 128 284 169 322 c 0
 218 367 253 385 295 385 c 0
 337 385 361 370 416 307 c 0
 430 292 441 284 449 284 c 0
 460 284 477 297 508 330 c 0
 534 357 546 364 565 364 c 0
EndSplineSet
EndChar
StartChar: exclamdown
Encoding: 161 161
Width: 600
Flags: HMW
HStem: 294 132
VStem: 300 153<353 366.5>
Fore
197 -114 m 1
 289 183 l 1
 299 214 321 232 349 232 c 0
 374 232 389 217 389 191 c 0
 389 189 389 186 388 183 c 1
 354 -114 l 2
 349 -158 344 -173 326 -192 c 0
 307 -214 279 -227 252 -227 c 0
 213 -227 186 -202 186 -167 c 0
 186 -154 189 -142 197 -114 c 1
382 426 m 2
 399 426 l 2
 431 426 453 404 453 373 c 0
 453 333 413 294 371 294 c 2
 353 294 l 2
 322 294 300 316 300 346 c 0
 300 387 339 426 382 426 c 2
EndSplineSet
EndChar
StartChar: cent
Encoding: 162 162
Width: 600
Flags: HMW
HStem: 427 234
VStem: 144 102<261.5 322.5>
Fore
372 99 m 1
 356 22 l 1
 350 -5 346 -13 336 -23 c 0
 324 -36 307 -44 291 -44 c 0
 269 -44 251 -27 251 -7 c 0
 251 1 251 2 255 22 c 1
 273 103 l 1
 191 124 144 183 144 265 c 0
 144 380 237 489 361 517 c 1
 377 594 l 1
 383 621 387 631 397 640 c 1
 410 654 426 661 442 661 c 0
 465 661 482 645 482 623 c 0
 482 616 482 614 477 594 c 1
 463 527 l 1
 493 523 514 515 531 503 c 1
 540 506 546 507 552 507 c 0
 576 507 593 491 593 469 c 0
 593 463 592 456 589 441 c 2
 580 399 l 1
 574 373 571 364 561 354 c 0
 549 341 531 333 516 333 c 0
 504 333 490 339 484 347 c 0
 478 354 478 356 477 384 c 0
 476 414 456 427 410 427 c 0
 322 427 246 363 246 288 c 0
 246 235 290 197 351 197 c 0
 388 197 425 209 464 233 c 0
 478 242 488 245 501 245 c 0
 523 245 541 227 541 204 c 0
 541 158 472 116 372 99 c 1
EndSplineSet
EndChar
StartChar: sterling
Encoding: 163 163
Width: 600
Flags: HMW
HStem: 0 100<267 442> 243 100<172 216 320 366 320 320> 498 99
VStem: 212 104
Fore
366 243 m 2
 320 243 l 1
 309 180 297 148 267 100 c 1
 471 100 l 1
 482 130 501 146 530 146 c 0
 554 146 571 131 571 108 c 0
 571 83 558 53 539 34 c 0
 515 10 487 0 442 0 c 2
 121 0 l 2
 80 0 64 11 64 40 c 0
 64 72 84 92 126 100 c 1
 170 104 204 156 219 243 c 1
 150 243 l 2
 132 243 124 244 115 247 c 0
 102 252 93 266 93 283 c 0
 93 299 102 317 116 328 c 0
 131 341 140 343 172 343 c 2
 216 343 l 1
 213 361 212 372 212 385 c 0
 212 504 306 598 425 598 c 0
 497 598 563 553 563 505 c 0
 563 474 532 444 501 444 c 0
 483 444 479 447 461 472 c 0
 449 490 430 498 404 498 c 0
 351 498 315 462 315 409 c 0
 315 399 316 378 318 355 c 2
 319 343 l 1
 387 343 l 2
 407 343 413 342 422 339 c 0
 435 334 444 320 444 303 c 0
 444 287 435 270 421 258 c 0
 406 246 396 243 366 243 c 2
EndSplineSet
EndChar
StartChar: currency
Encoding: 164 164
Width: 600
Flags: HMW
HStem: 97 100<319.5 337.5> 388 99
VStem: 164 102 459 102<306 333.5>
Fore
213 388 m 1
 188 420 l 2
 181 428 171 454 171 461 c 0
 171 489 204 519 234 519 c 0
 251 519 257 515 275 493 c 2
 301 462 l 1
 342 481 368 488 403 488 c 0
 440 488 462 482 495 461 c 1
 532 491 l 2
 559 513 568 517 585 517 c 0
 609 517 626 500 626 476 c 0
 626 456 618 444 589 420 c 2
 551 388 l 1
 558 363 561 341 561 326 c 0
 561 286 543 240 510 196 c 1
 535 162 l 2
 549 144 553 136 553 124 c 0
 553 95 520 64 488 64 c 0
 472 64 465 69 448 90 c 2
 421 122 l 1
 380 103 355 97 320 97 c 0
 285 97 262 103 229 123 c 1
 190 91 l 2
 162 68 155 64 137 64 c 0
 114 64 96 81 96 105 c 0
 96 125 104 137 133 162 c 2
 173 196 l 1
 166 221 163 243 163 258 c 0
 163 297 181 344 213 388 c 1
382 388 m 0
 322 388 266 332 266 273 c 0
 266 230 298 197 341 197 c 0
 401 197 459 254 459 313 c 0
 459 357 427 388 382 388 c 0
EndSplineSet
EndChar
StartChar: yen
Encoding: 165 165
Width: 600
Flags: W
HStem: 0 100<200 272 373 417> 135 56<184 278 392 485> 225 56<204 284 436 501> 480 100<188 189 616 638>
VStem: 133.012 226.988<520 541> 147.012 327.988<40 61> 156.013 357.987<157 170> 176.013 356.987<247 259> 467.012 225.988<520 540>
DStem: 189 480 310 481 285 281 375 348 279 135 379 135 272 100 372 100 298 225 398 225 291 191 391 191 498 481 616 480 375 348 435 281
Fore
375 348 m 1
 498 481 l 1
 477 487 467 500 467 520 c 0
 467 536 476 553 490 565 c 0
 505 578 514 580 545 580 c 2
 636 580 l 2
 658 580 662 580 671 576 c 0
 684 572 693 557 693 540 c 0
 693 524 684 507 670 495 c 0
 656 483 644 480 618 480 c 2
 616 480 l 1
 435 281 l 1
 507 281 l 2
 526 281 533 275 533 259 c 0
 533 239 517 225 495 225 c 2
 398 225 l 1
 391 191 l 1
 488 191 l 2
 507 191 514 185 514 170 c 0
 514 149 499 135 476 135 c 2
 379 135 l 1
 372 100 l 1
 418 100 l 2
 440 100 444 100 453 96 c 0
 466 91 475 77 475 61 c 0
 475 44 466 27 452 15 c 0
 438 4 425 0 397 0 c 2
 204 0 l 2
 163 0 147 11 147 40 c 0
 147 56 156 74 170 86 c 0
 185 98 194 100 225 100 c 2
 272 100 l 1
 279 135 l 1
 182 135 l 2
 163 135 156 141 156 157 c 0
 156 177 171 191 194 191 c 2
 291 191 l 1
 298 225 l 1
 201 225 l 2
 183 225 176 231 176 247 c 0
 176 267 191 281 213 281 c 2
 285 281 l 1
 189 480 l 1
 181 480 l 2
 150 480 133 494 133 520 c 0
 133 536 142 554 156 565 c 0
 171 578 179 580 211 580 c 2
 303 580 l 2
 325 580 329 580 338 576 c 0
 351 571 360 556 360 541 c 0
 360 513 338 487 310 481 c 1
 375 348 l 1
EndSplineSet
EndChar
StartChar: brokenbar
Encoding: 166 166
Width: 600
Flags: W
DStem: 274 116 374 116 231 -87 331 -87 368 556 468 556 325 353 425 353
Fore
468 556 m 2
 425 353 l 1
 419 326 416 318 406 308 c 0
 393 295 377 287 361 287 c 0
 338 287 321 303 321 324 c 0
 321 330 323 344 325 353 c 2
 368 556 l 1
 373 581 378 592 387 601 c 0
 399 614 416 622 432 622 c 0
 455 622 472 606 472 584 c 0
 472 578 471 570 468 556 c 2
374 116 m 2
 331 -87 l 1
 325 -113 322 -122 312 -132 c 0
 299 -145 283 -153 267 -153 c 0
 244 -153 227 -137 227 -116 c 0
 227 -109 228 -100 231 -87 c 1
 274 116 l 1
 280 142 284 151 293 161 c 0
 306 174 323 182 339 182 c 0
 361 182 378 166 378 145 c 0
 378 138 376 125 374 116 c 2
EndSplineSet
MinimumDistance: x0,-1 
EndChar
StartChar: section
Encoding: 167 167
Width: 600
Flags: W
HStem: -170 88<153 297> -170 182<125 130> 493 90<396 535>
VStem: 93.0039 99.9961<259 284> 222.008 87.9918<415 433> 375.981 89.0193<-21 3> 493.984 100.016<126 154>
DStem: 72 -43 160 -43 45 -170 152 -82 536 493 643 583 528 456 616 456
Fore
536 493 m 1
 392 493 l 2
 350 493 310 464 310 433 c 0
 310 410 340 379 397 342 c 2
 478 291 l 2
 569 233 594 204 594 154 c 0
 594 85 542 27 464 10 c 1
 465 7 465 4 465 3 c 0
 465 -23 457 -51 444 -73 c 0
 406 -137 348 -170 276 -170 c 2
 45 -170 l 1
 72 -43 l 2
 80 -6 98 12 128 12 c 0
 149 12 164 -2 164 -20 c 0
 164 -26 164 -27 160 -43 c 1
 152 -82 l 1
 297 -82 l 2
 337 -82 376 -52 376 -21 c 0
 376 2 345 34 291 69 c 2
 198 130 l 2
 123 178 93 215 93 259 c 0
 93 325 144 382 223 402 c 1
 222 408 222 411 222 415 c 0
 222 444 243 488 270 518 c 0
 311 563 358 583 418 583 c 2
 643 583 l 1
 616 456 l 2
 608 418 591 401 560 401 c 0
 541 401 525 415 525 432 c 0
 525 437 526 449 528 456 c 1
 536 493 l 1
261 326 m 1
 258 326 l 1
 247 326 l 2
 217 325 193 307 193 284 c 0
 193 260 213 237 262 205 c 2
 352 147 l 1
 398 114 412 103 425 88 c 1
 433 88 l 1
 443 88 l 2
 472 89 494 106 494 126 c 0
 494 150 466 181 417 214 c 2
 329 271 l 2
 300 290 291 297 261 326 c 1
EndSplineSet
EndChar
StartChar: dieresis
Encoding: 168 168
Width: 600
Flags: HMW
HStem: 534 120<316.5 328.5 524.5 536.5>
VStem: 261 123<587.5 600> 469 123<587.5 600>
Fore
335 654 m 0
 364 654 384 634 384 606 c 0
 384 569 348 534 309 534 c 0
 282 534 261 555 261 582 c 0
 261 618 298 654 335 654 c 0
543 654 m 0
 572 654 592 634 592 606 c 0
 592 569 556 534 517 534 c 0
 490 534 469 555 469 582 c 0
 469 618 506 654 543 654 c 0
EndSplineSet
EndChar
StartChar: copyright
Encoding: 169 169
Width: 600
Flags: HMW
HStem: -15 73<256 385> 118 71<318.5 363.5> 395 71<351.5 393> 525 73<337.5 466.5>
VStem: 48 75<189.5 316> 190 72 600 75<267 393.5>
Fore
192 269 m 1
 200 305 l 1
 219 397 301 466 390 466 c 0
 419 466 439 461 465 447 c 1
 472 460 483 466 497 466 c 0
 513 466 524 455 524 441 c 0
 524 437 523 432 522 428 c 1
 521 422 l 1
 509 368 l 2
 503 340 488 324 465 324 c 0
 444 324 437 334 437 363 c 0
 437 380 409 395 377 395 c 0
 326 395 282 357 271 304 c 1
 263 270 l 1
 262 264 262 258 262 252 c 0
 264 211 293 189 344 189 c 0
 383 189 397 194 425 218 c 0
 433 225 443 229 452 229 c 0
 469 229 481 217 481 200 c 0
 481 159 404 118 327 118 c 0
 245 118 189 166 189 238 c 0
 189 250 190 258 192 269 c 1
429 598 m 0
 571 598 675 495 675 355 c 0
 675 164 491 -15 293 -15 c 0
 152 -15 48 88 48 228 c 0
 48 420 232 598 429 598 c 0
412 525 m 0
 263 525 123 389 123 243 c 0
 123 136 202 58 310 58 c 0
 460 58 600 194 600 340 c 0
 600 447 521 525 412 525 c 0
EndSplineSet
EndChar
StartChar: ordfeminine
Encoding: 170 170
Width: 600
Flags: W
HStem: 182 77<214 490> 273.117 78.8826<314 330> 284.517 77.4835<510 513> 417 70<376 398> 517 78<398 426>
VStem: 170.003 360.997<204 229> 195 363.993<331 354> 195.008 92.9917<354 370> 266 272.976<515 532>
DStem: 442 410 537 490 436 383 509 362
Fore
415 284 m 1
 417 295 l 1
 374 279 343 273 305 273 c 0
 241 273 195 307 195 354 c 0
 195 374 205 397 223 419 c 0
 261 464 320 487 396 487 c 0
 416 487 429 486 457 482 c 1
 459 490 l 1
 459 496 l 1
 458 511 443 517 406 517 c 0
 384 517 357 513 326 506 c 0
 313 503 303 501 296 501 c 0
 279 501 266 514 266 532 c 0
 266 549 276 565 292 572 c 0
 315 583 381 595 420 595 c 0
 494 595 539 565 539 515 c 0
 539 504 539 499 537 490 c 2
 509 362 l 1
 516 362 l 2
 548 362 559 354 559 331 c 0
 559 303 536 284 500 284 c 2
 415 284 l 1
436 383 m 1
 442 410 l 1
 410 416 396 417 377 417 c 0
 332 417 288 394 288 370 c 0
 288 360 305 352 326 352 c 0
 359 352 404 365 436 383 c 1
471 182 m 2
 215 182 l 2
 179 182 170 186 170 204 c 0
 170 246 184 259 232 259 c 2
 486 259 l 2
 519 259 531 251 531 229 c 0
 531 216 524 203 513 193 c 0
 502 184 494 182 471 182 c 2
EndSplineSet
MinimumDistance: x16,-1 
EndChar
StartChar: guillemotleft
Encoding: 171 171
Width: 600
Flags: W
Fore
222 218 m 1
 343 77 l 1
 350 70 354 60 354 55 c 0
 354 38 334 20 314 20 c 0
 305 20 301 22 289 33 c 2
 80 218 l 1
 367 402 l 2
 384 413 389 415 398 415 c 0
 414 415 425 405 425 391 c 0
 425 380 419 370 403 358 c 2
 222 218 l 1
451 218 m 1
 572 77 l 2
 579 69 583 61 583 54 c 0
 583 38 563 20 543 20 c 0
 534 20 530 22 518 33 c 2
 309 218 l 1
 596 402 l 2
 613 413 618 415 627 415 c 0
 643 415 654 405 654 391 c 0
 654 380 648 370 632 358 c 2
 451 218 l 1
EndSplineSet
EndChar
StartChar: logicalnot
Encoding: 172 172
Width: 600
Flags: HMW
HStem: 345 100<203 439>
Fore
560 445 m 1
 504 181 l 1
 498 154 495 146 485 136 c 0
 473 123 455 115 440 115 c 0
 417 115 400 131 400 152 c 0
 400 159 401 170 404 181 c 1
 439 345 l 1
 182 345 l 2
 141 345 125 356 125 385 c 0
 125 401 134 419 148 431 c 0
 163 443 171 445 203 445 c 2
 560 445 l 1
EndSplineSet
EndChar
StartChar: registered
Encoding: 174 174
Width: 600
Flags: HMW
HStem: -15 73<256 385> 126 71<223.5 225 225 239> 387 71<351 351 351 376> 525 73<338 467>
VStem: 48 75<189.5 316> 188 158 424 71 600 75<267 393.5>
Fore
321 246 m 1
 311 197 l 1
 335 197 346 188 346 169 c 0
 346 144 324 126 294 126 c 2
 225 126 l 2
 200 126 187 135 187 154 c 0
 187 179 208 197 239 197 c 1
 279 387 l 1
 254 388 243 396 243 416 c 0
 243 441 264 458 296 458 c 2
 389 458 l 2
 455 458 496 426 496 373 c 0
 496 329 464 287 415 266 c 1
 434 244 439 235 453 197 c 1
 473 195 482 187 482 169 c 0
 482 144 461 126 430 126 c 2
 390 126 l 1
 388 175 362 233 336 246 c 1
 321 246 l 1
336 316 m 1
 362 316 l 2
 395 316 424 337 424 360 c 0
 424 377 406 387 376 387 c 2
 351 387 l 1
 336 316 l 1
429 598 m 0
 572 598 675 495 675 355 c 0
 675 163 491 -15 293 -15 c 0
 152 -15 48 88 48 228 c 0
 48 420 232 598 429 598 c 0
413 525 m 0
 263 525 123 389 123 243 c 0
 123 136 202 58 310 58 c 0
 460 58 600 194 600 340 c 0
 600 447 521 525 413 525 c 0
EndSplineSet
EndChar
StartChar: macron
Encoding: 175 175
Width: 600
Flags: HMW
HStem: 546 80<311 538>
VStem: 249 351<579.5 593>
Fore
311 626 m 2
 555 626 l 2
 588 626 600 617 600 593 c 0
 600 566 574 546 538 546 c 2
 294 546 l 2
 261 546 249 554 249 579 c 0
 249 607 274 626 311 626 c 2
EndSplineSet
EndChar
StartChar: degree
Encoding: 176 176
Width: 600
Flags: HMW
HStem: 243 61<336.5 400> 535 61<377.5 440.5>
VStem: 210 62<369.5 432> 506 62<408 470.5>
Fore
428 596 m 0
 509 596 568 537 568 457 c 0
 568 346 462 243 350 243 c 0
 269 243 210 302 210 383 c 0
 210 494 315 596 428 596 c 0
414 535 m 0
 341 535 272 468 272 396 c 0
 272 343 310 304 363 304 c 0
 437 304 506 372 506 444 c 0
 506 497 467 535 414 535 c 0
EndSplineSet
EndChar
StartChar: plusminus
Encoding: 177 177
Width: 600
Flags: W
HStem: 0 100<108 514> 330 100<178 320 443 584> 330 294<422 442>
VStem: 52.0116 517.988<40 60> 122.012 517.988<370 390>
DStem: 321 330 420 330 299 230 399 230 369 558 469 558 342 430 442 430
Fore
420 330 m 1
 399 230 l 1
 393 203 390 195 380 185 c 0
 368 172 351 164 335 164 c 0
 312 164 295 180 295 201 c 0
 295 210 295 211 299 230 c 2
 321 330 l 1
 179 330 l 2
 138 330 122 341 122 370 c 0
 122 386 131 404 145 416 c 0
 160 428 169 430 200 430 c 2
 342 430 l 1
 369 558 l 1
 378 602 399 624 433 624 c 0
 456 624 473 608 473 586 c 0
 473 579 472 574 469 558 c 1
 442 430 l 1
 583 430 l 2
 605 430 609 430 618 426 c 0
 631 421 640 407 640 390 c 0
 640 374 631 357 617 345 c 0
 603 333 591 330 562 330 c 2
 420 330 l 1
130 100 m 2
 513 100 l 2
 535 100 539 100 548 96 c 0
 561 91 570 77 570 60 c 0
 570 44 561 27 547 15 c 0
 533 3 521 0 492 0 c 2
 109 0 l 2
 68 0 52 11 52 40 c 0
 52 56 61 74 75 86 c 0
 90 98 99 100 130 100 c 2
EndSplineSet
EndChar
StartChar: twosuperior
Encoding: 178 178
Width: 600
Flags: W
HStem: 247 67<322 430> 247 99<459.578 474> 570 66.2271<414 426>
VStem: 470 67.2385<525 535>
Fore
321 314 m 1
 430 314 l 1
 437 335 450 346 469 346 c 0
 484 346 496 335 496 321 c 0
 496 317 495 309 494 303 c 1
 482 247 l 1
 202 247 l 1
 217 315 l 1
 452 481 470 497 470 529 c 0
 470 553 447 570 415 570 c 0
 392 570 370 562 354 546 c 0
 347 540 346 539 336 520 c 0
 329 508 315 500 301 500 c 0
 286 500 274 511 274 526 c 0
 274 540 287 564 306 583 c 0
 338 617 383 637 430 637 c 0
 494 637 538 598 538 542 c 0
 538 478 513 451 321 314 c 1
EndSplineSet
EndChar
StartChar: threesuperior
Encoding: 179 179
Width: 600
Flags: W
HStem: 238 67<320 362> 570 66.0879<418 426>
VStem: 451 68<366 374> 475 67.028<535 543>
Fore
389 484 m 2
 413 484 l 2
 445 484 475 510 475 536 c 0
 475 557 454 570 420 570 c 0
 387 570 370 564 347 543 c 0
 340 537 329 533 321 533 c 0
 306 533 294 545 294 559 c 0
 294 599 364 637 438 637 c 0
 502 637 543 603 543 548 c 0
 543 510 518 473 476 450 c 2
 476 450 474 449 473 448 c 1
 503 431 519 404 519 374 c 0
 519 344 500 306 472 281 c 0
 438 251 396 238 335 238 c 0
 265 238 218 257 218 285 c 0
 218 306 238 326 259 326 c 0
 267 326 271 325 279 318 c 0
 292 308 309 305 347 305 c 0
 413 305 451 327 451 367 c 0
 451 383 437 401 418 411 c 0
 407 416 400 417 374 418 c 0
 356 419 346 428 346 444 c 0
 346 465 366 484 389 484 c 2
EndSplineSet
EndChar
StartChar: acute
Encoding: 180 180
Width: 600
Flags: W
DStem: 551 680 585 624 393 569 427 512
Fore
585 624 m 2
 427 512 l 2
 409 499 402 496 392 496 c 0
 374 496 362 508 362 526 c 0
 362 541 372 554 393 569 c 2
 551 680 l 2
 569 693 575 696 586 696 c 0
 604 696 616 684 616 667 c 0
 616 652 607 639 585 624 c 2
EndSplineSet
MinimumDistance: x0,-1 
EndChar
StartChar: mu
Encoding: 181 181
Width: 600
Flags: HMW
HStem: 0 21<410 504 410 410> 338 99<468 482>
Fore
193 -7 m 1
 176 -87 l 1
 171 -113 167 -122 157 -132 c 0
 144 -145 128 -153 112 -153 c 0
 89 -153 72 -137 72 -116 c 0
 72 -109 73 -100 76 -87 c 1
 166 338 l 1
 150 338 l 2
 110 338 94 349 94 377 c 0
 94 407 127 440 156 438 c 2
 171 437 l 1
 288 437 l 1
 225 144 l 2
 223 134 222 125 222 120 c 0
 222 98 243 84 276 84 c 0
 321 84 368 100 439 138 c 1
 482 338 l 1
 447 338 l 2
 406 338 390 349 390 377 c 0
 390 393 399 411 413 423 c 0
 428 434 438 437 468 437 c 2
 603 437 l 1
 531 100 l 1
 567 100 583 88 583 61 c 0
 583 44 574 27 559 15 c 0
 545 3 533 0 504 0 c 2
 410 0 l 1
 415 23 l 1
 354 -4 301 -16 249 -16 c 0
 229 -16 212 -13 193 -7 c 1
EndSplineSet
EndChar
StartChar: paragraph
Encoding: 182 182
Width: 600
Flags: HMW
HStem: -174 78<171 249 447 467> 505 78<455 499 455 455 575 575 575 610>
VStem: 123 114<327.5 339.5>
Fore
575 505 m 1
 447 -96 l 1
 484 -96 l 2
 517 -96 529 -104 529 -127 c 0
 529 -143 519 -159 503 -168 c 0
 495 -173 487 -174 467 -174 c 2
 374 -174 l 2
 353 -174 345 -165 341 -140 c 1
 323 -169 315 -174 291 -174 c 2
 154 -174 l 2
 121 -174 108 -165 108 -143 c 0
 108 -128 119 -110 135 -102 c 0
 144 -97 150 -96 171 -96 c 2
 249 -96 l 1
 309 185 l 1
 197 197 123 256 123 334 c 0
 123 345 124 353 126 361 c 1
 135 407 l 1
 156 504 287 583 429 583 c 2
 626 583 l 2
 659 583 672 574 672 552 c 0
 672 536 662 520 645 511 c 0
 637 506 631 505 610 505 c 2
 575 505 l 1
326 266 m 1
 376 500 l 1
 310 488 257 449 248 405 c 2
 239 361 l 2
 238 356 237 351 237 347 c 0
 237 308 269 279 326 266 c 1
499 505 m 1
 455 505 l 1
 327 -96 l 1
 339 -102 343 -108 344 -124 c 1
 352 -109 359 -102 371 -96 c 1
 499 505 l 1
EndSplineSet
EndChar
StartChar: periodcentered
Encoding: 183 183
Width: 600
Flags: HMW
HStem: 214 132
VStem: 283 153<273.5 287>
Fore
354 214 m 2
 337 214 l 2
 305 214 283 236 283 267 c 0
 283 307 323 346 365 346 c 2
 382 346 l 2
 414 346 436 324 436 294 c 0
 436 253 396 214 354 214 c 2
EndSplineSet
EndChar
StartChar: cedilla
Encoding: 184 184
Width: 600
Flags: HMW
HStem: -229 70<258.5 280> -100 100<262 278>
VStem: 309 72<-137.5 -119>
Fore
262 0 m 1
 332 0 l 1
 323 -41 l 1
 365 -50 381 -68 381 -108 c 0
 381 -175 323 -229 251 -229 c 0
 224 -229 185 -218 164 -205 c 0
 150 -196 143 -187 143 -174 c 0
 143 -152 164 -131 187 -131 c 0
 195 -131 197 -132 213 -142 c 0
 229 -152 250 -159 267 -159 c 0
 293 -159 309 -147 309 -128 c 0
 309 -110 293 -100 263 -100 c 0
 257 -100 252 -100 240 -102 c 1
 262 0 l 1
EndSplineSet
EndChar
StartChar: onesuperior
Encoding: 185 185
Width: 600
Flags: HMW
HStem: 247 67<276 333 400 443>
VStem: 224 269
Fore
469 638 m 1
 400 314 l 1
 457 314 l 2
 484 314 494 307 494 288 c 0
 494 263 474 247 443 247 c 2
 261 247 l 2
 236 247 224 255 224 274 c 0
 224 299 244 314 276 314 c 2
 333 314 l 1
 383 551 l 1
 333 539 l 2
 321 536 317 535 311 535 c 0
 297 535 287 546 287 562 c 0
 287 584 300 596 330 604 c 2
 469 638 l 1
EndSplineSet
EndChar
StartChar: ordmasculine
Encoding: 186 186
Width: 600
Flags: HMW
HStem: 182 77<229 467> 274 77 517 77
VStem: 485 80
Fore
427 595 m 0
 508 595 566 540 566 463 c 0
 566 363 468 273 359 273 c 0
 278 273 219 326 219 400 c 0
 219 498 322 595 427 595 c 0
411 517 m 0
 356 517 300 466 300 416 c 0
 300 380 334 351 375 351 c 0
 431 351 485 397 485 445 c 0
 485 487 454 517 411 517 c 0
467 182 m 2
 212 182 l 2
 181 182 168 191 168 213 c 0
 168 225 175 239 186 248 c 0
 198 257 204 259 229 259 c 2
 484 259 l 2
 516 259 528 251 528 229 c 0
 528 216 521 203 510 193 c 0
 499 184 490 182 467 182 c 2
EndSplineSet
EndChar
StartChar: guillemotright
Encoding: 187 187
Width: 600
Flags: W
Fore
476 217 m 1
 355 358 l 1
 348 365 344 375 344 380 c 0
 344 397 364 415 384 415 c 0
 393 415 397 413 409 402 c 2
 617 217 l 1
 331 33 l 2
 314 22 309 20 300 20 c 0
 284 20 273 30 273 44 c 0
 273 55 279 65 295 77 c 2
 476 217 l 1
246 217 m 1
 125 358 l 2
 118 366 114 374 114 381 c 0
 114 397 134 415 154 415 c 0
 163 415 167 413 179 402 c 2
 387 217 l 1
 101 33 l 2
 84 22 79 20 70 20 c 0
 54 20 43 30 43 44 c 0
 43 55 49 65 65 77 c 2
 246 217 l 1
EndSplineSet
EndChar
StartChar: onequarter
Encoding: 188 188
Width: 600
Flags: HMW
HStem: 0 67<520 539> 83 67<478 543> 247 67<77 134 201 244>
VStem: 25 269 470 166
Fore
270 638 m 1
 201 314 l 1
 258 314 l 2
 285 314 295 307 295 288 c 0
 295 263 274 247 244 247 c 2
 62 247 l 2
 37 247 25 255 25 274 c 0
 25 299 45 314 77 314 c 2
 134 314 l 1
 184 551 l 1
 134 539 l 2
 122 536 118 535 112 535 c 0
 98 535 88 546 88 562 c 0
 88 584 101 597 131 604 c 2
 270 638 l 1
586 528 m 2
 229 77 l 2
 214 58 204 51 189 51 c 0
 173 51 162 62 162 78 c 0
 162 88 165 93 178 110 c 2
 535 561 l 2
 551 581 560 587 575 587 c 0
 590 587 602 575 602 560 c 0
 602 552 597 542 586 528 c 2
673 380 m 1
 624 150 l 1
 645 149 655 141 655 124 c 0
 655 101 637 85 610 83 c 1
 606 67 l 1
 627 66 637 57 637 40 c 0
 637 16 616 0 585 0 c 2
 506 0 l 2
 481 0 470 8 470 27 c 0
 470 52 489 67 520 67 c 2
 539 67 l 1
 543 83 l 1
 380 83 l 1
 391 138 l 1
 589 380 l 1
 673 380 l 1
557 150 m 1
 584 279 l 1
 478 150 l 1
 557 150 l 1
EndSplineSet
EndChar
StartChar: onehalf
Encoding: 189 189
Width: 600
Flags: W
HStem: 0 67<469 577> 0 99<606.578 619> 247 67<64 134 202 249> 323 67<561 575>
VStem: 25.2796 268.746<274 288> 617 67.2174<278 290>
DStem: 184 551 270 638 134 314 201 314 535 561 585 528 178 110 229 77
Fore
270 638 m 1
 201 314 l 1
 258 314 l 2
 285 314 295 307 295 288 c 0
 295 263 274 247 244 247 c 2
 62 247 l 2
 37 247 25 255 25 274 c 0
 25 299 45 314 77 314 c 2
 134 314 l 1
 184 551 l 1
 134 539 l 2
 122 536 118 535 112 535 c 0
 98 535 88 546 88 562 c 0
 88 584 101 597 131 604 c 2
 270 638 l 1
585 528 m 2
 229 77 l 2
 214 58 203 51 189 51 c 0
 173 51 162 62 162 78 c 0
 162 87 165 94 178 110 c 2
 535 561 l 1
 550 581 560 587 575 587 c 0
 590 587 602 575 602 560 c 0
 602 551 598 544 585 528 c 2
468 67 m 1
 577 67 l 1
 584 88 597 99 616 99 c 0
 631 99 643 88 643 74 c 0
 643 70 642 62 641 56 c 1
 629 0 l 1
 349 0 l 1
 363 68 l 1
 599 234 617 250 617 282 c 0
 617 306 594 323 562 323 c 0
 539 323 517 315 501 299 c 0
 494 293 494 292 483 273 c 0
 476 261 462 253 448 253 c 0
 433 253 421 264 421 279 c 0
 421 293 434 316 453 336 c 0
 485 370 530 390 577 390 c 0
 641 390 685 351 685 295 c 0
 685 231 659 203 468 67 c 1
EndSplineSet
EndChar
StartChar: threequarters
Encoding: 190 190
Width: 600
Flags: W
HStem: 0 67<507 540> 83 67<478 542> 238 67<120 162> 570 66.0879<218 231>
VStem: 251 68<366 374> 275 67.0279<535 543> 469.279 166.894<27 40>
DStem: 534 561 585 528 178 110 229 77 585 279 673 380 557 150 624 150 589 380 585 279 391 138 477 150
Fore
189 484 m 2
 213 484 l 2
 245 484 275 510 275 536 c 0
 275 557 254 570 220 570 c 0
 187 570 170 564 147 543 c 0
 140 537 130 533 121 533 c 0
 106 533 94 545 94 559 c 0
 94 599 164 637 238 637 c 0
 302 637 343 603 343 548 c 0
 343 510 318 473 276 450 c 2
 276 450 274 449 273 448 c 1
 303 431 319 404 319 374 c 0
 319 344 300 307 272 281 c 0
 238 251 196 238 135 238 c 0
 65 238 18 257 18 285 c 0
 18 306 38 326 59 326 c 0
 67 326 70 325 79 318 c 0
 92 308 109 305 147 305 c 0
 213 305 251 327 251 367 c 0
 251 383 237 401 218 411 c 0
 207 416 200 417 174 418 c 0
 156 419 146 428 146 444 c 0
 146 465 166 484 189 484 c 2
585 528 m 2
 229 77 l 2
 214 58 203 51 188 51 c 0
 173 51 161 62 161 78 c 0
 161 88 164 93 178 110 c 2
 534 561 l 2
 550 581 559 587 574 587 c 0
 589 587 601 575 601 560 c 0
 601 552 596 541 585 528 c 2
673 380 m 1
 624 150 l 1
 645 149 655 141 655 124 c 0
 655 101 637 85 610 83 c 1
 607 67 l 1
 627 66 637 57 637 40 c 0
 637 16 616 0 585 0 c 2
 506 0 l 2
 481 0 469 8 469 27 c 0
 469 52 489 67 520 67 c 2
 540 67 l 1
 543 83 l 1
 379 83 l 1
 391 138 l 1
 589 380 l 1
 673 380 l 1
557 150 m 1
 585 279 l 1
 477 150 l 1
 557 150 l 1
EndSplineSet
EndChar
StartChar: questiondown
Encoding: 191 191
Width: 600
Flags: HMW
HStem: -227 100<234 275> 254 132
VStem: 70 102<-79 -52> 289 153<313 326.5>
Fore
477 -89 m 2
 460 -168 l 1
 351 -215 308 -227 242 -227 c 0
 135 -227 70 -171 70 -79 c 0
 70 -25 93 28 131 62 c 0
 166 92 207 115 277 143 c 1
 289 179 310 197 339 197 c 0
 362 197 379 180 379 159 c 0
 379 151 379 150 375 131 c 2
 363 75 l 1
 214 22 172 -6 172 -57 c 0
 172 -101 205 -127 263 -127 c 0
 301 -127 338 -119 374 -103 c 1
 377 -89 l 2
 383 -61 386 -54 396 -43 c 0
 408 -31 426 -23 441 -23 c 0
 464 -23 481 -39 481 -60 c 0
 481 -67 480 -76 477 -89 c 2
370 386 m 2
 388 386 l 2
 420 386 442 364 442 333 c 0
 442 293 402 254 360 254 c 2
 342 254 l 2
 311 254 289 276 289 306 c 0
 289 347 328 386 370 386 c 2
EndSplineSet
EndChar
StartChar: Agrave
Encoding: 192 192
Width: 600
Flags: HMW
HStem: 0 100<52.5 68 176 178 438 461> 158 100<273 430> 483 100<262 304>
VStem: -11 267 360 273
Fore
450 158 m 1
 212 158 l 1
 176 100 l 1
 199 100 l 2
 220 100 226 99 234 96 c 0
 247 92 256 76 256 60 c 0
 256 44 247 27 233 15 c 0
 219 3 207 0 178 0 c 2
 46 0 l 2
 5 0 -11 11 -11 40 c 0
 -11 56 -2 74 12 85 c 0
 27 97 37 100 68 100 c 1
 304 483 l 1
 241 483 l 2
 200 483 184 494 184 523 c 0
 184 539 193 557 207 569 c 0
 222 581 230 583 262 583 c 2
 478 583 l 1
 575 100 l 1
 595 100 602 99 611 96 c 0
 624 91 633 76 633 60 c 0
 633 44 624 26 610 15 c 0
 596 3 583 0 555 0 c 2
 416 0 l 2
 376 0 360 11 360 40 c 0
 360 56 369 73 383 85 c 0
 398 98 406 100 438 100 c 2
 461 100 l 1
 450 158 l 1
430 258 m 1
 392 450 l 1
 273 258 l 1
 430 258 l 1
385 824 m 2
 495 712 l 2
 506 701 511 692 511 683 c 0
 511 661 488 640 465 640 c 0
 456 640 447 645 437 656 c 2
 327 767 l 1
 316 777 311 787 311 794 c 0
 311 818 333 839 356 839 c 0
 367 839 373 836 385 824 c 2
EndSplineSet
EndChar
StartChar: Aacute
Encoding: 193 193
Width: 600
Flags: HMW
HStem: 0 100<52.5 68 176 178 438 461> 158 100<273 430> 483 100<262 304>
VStem: -11 267 360 273
Fore
450 158 m 1
 212 158 l 1
 176 100 l 1
 199 100 l 2
 220 100 226 99 234 96 c 0
 247 92 256 76 256 60 c 0
 256 44 247 27 233 15 c 0
 219 3 207 0 178 0 c 2
 46 0 l 2
 5 0 -11 11 -11 40 c 0
 -11 56 -2 74 12 85 c 0
 27 97 37 100 68 100 c 1
 304 483 l 1
 241 483 l 2
 200 483 184 494 184 523 c 0
 184 539 193 557 207 569 c 0
 222 581 230 583 262 583 c 2
 478 583 l 1
 575 100 l 1
 595 100 602 99 611 96 c 0
 624 91 633 76 633 60 c 0
 633 44 624 26 610 15 c 0
 596 3 583 0 555 0 c 2
 416 0 l 2
 376 0 360 11 360 40 c 0
 360 56 369 73 383 85 c 0
 398 98 406 100 438 100 c 2
 461 100 l 1
 450 158 l 1
430 258 m 1
 392 450 l 1
 273 258 l 1
 430 258 l 1
573 767 m 2
 416 656 l 2
 400 645 390 640 381 640 c 0
 364 640 351 652 351 669 c 0
 351 684 361 698 382 712 c 2
 539 824 l 2
 555 835 564 839 575 839 c 0
 593 839 605 827 605 810 c 0
 605 794 597 784 573 767 c 2
EndSplineSet
EndChar
StartChar: Acircumflex
Encoding: 194 194
Width: 600
Flags: HMW
HStem: 0 100<52.5 68 176 178 438 461> 158 100<273 430> 483 100<262 304>
VStem: -11 267 360 273
Fore
450 158 m 1
 212 158 l 1
 176 100 l 1
 199 100 l 2
 220 100 226 99 234 96 c 0
 247 92 256 76 256 60 c 0
 256 44 247 27 233 15 c 0
 219 3 207 0 178 0 c 2
 46 0 l 2
 5 0 -11 11 -11 40 c 0
 -11 56 -2 74 12 85 c 0
 27 97 37 100 68 100 c 1
 304 483 l 1
 241 483 l 2
 200 483 184 494 184 523 c 0
 184 539 193 557 207 569 c 0
 222 581 230 583 262 583 c 2
 478 583 l 1
 575 100 l 1
 595 100 602 99 611 96 c 0
 624 91 633 76 633 60 c 0
 633 44 624 26 610 15 c 0
 596 3 583 0 555 0 c 2
 416 0 l 2
 376 0 360 11 360 40 c 0
 360 56 369 73 383 85 c 0
 398 98 406 100 438 100 c 2
 461 100 l 1
 450 158 l 1
430 258 m 1
 392 450 l 1
 273 258 l 1
 430 258 l 1
444 750 m 1
 310 653 l 2
 296 643 288 640 279 640 c 0
 263 640 251 652 251 668 c 0
 251 685 256 692 283 711 c 2
 463 839 l 1
 586 711 l 1
 591 706 l 2
 602 696 604 692 604 683 c 0
 604 661 582 640 561 640 c 0
 552 640 544 644 535 653 c 2
 444 750 l 1
EndSplineSet
EndChar
StartChar: Atilde
Encoding: 195 195
Width: 600
Flags: W
HStem: 0 100<45 68 177 200 413 460 576 576> 158 100<274 429> 483 100<240 303> 667.688 68.312<512 514> 730 68.0277<366 373>
VStem: -10.9884 266.988<40 60> 360.012 272.988<40 60>
DStem: 304 483 392 450 68 100 273 258 304 483 212 158 68 100 176 100 392 450 478 583 430 258 575 100
Fore
450 158 m 1
 212 158 l 1
 176 100 l 1
 199 100 l 2
 220 100 226 99 234 96 c 0
 247 92 256 76 256 60 c 0
 256 44 247 27 233 15 c 0
 219 3 207 0 178 0 c 2
 46 0 l 2
 5 0 -11 11 -11 40 c 0
 -11 56 -2 74 12 85 c 0
 27 97 37 100 68 100 c 1
 304 483 l 1
 241 483 l 2
 200 483 184 494 184 523 c 0
 184 539 193 557 207 569 c 0
 222 581 230 583 262 583 c 2
 478 583 l 1
 575 100 l 1
 595 100 602 99 611 96 c 0
 624 91 633 76 633 60 c 0
 633 44 624 26 610 15 c 0
 596 3 583 0 555 0 c 2
 416 0 l 2
 376 0 360 11 360 40 c 0
 360 56 369 73 383 85 c 0
 398 98 406 100 438 100 c 2
 461 100 l 1
 450 158 l 1
430 258 m 1
 392 450 l 1
 273 258 l 1
 430 258 l 1
606 799 m 0
 620 799 633 788 633 776 c 0
 633 764 624 750 604 728 c 0
 564 685 534 667 501 667 c 0
 479 667 450 681 412 709 c 0
 388 726 380 730 366 730 c 0
 348 730 339 724 298 682 c 0
 291 674 281 670 272 670 c 0
 258 670 247 680 247 693 c 0
 247 708 259 726 283 751 c 1
 315 782 348 799 379 799 c 0
 401 799 418 792 461 762 c 0
 489 743 502 736 513 736 c 0
 529 736 534 740 566 775 c 0
 578 788 596 799 606 799 c 0
EndSplineSet
EndChar
StartChar: Adieresis
Encoding: 196 196
Width: 600
Flags: W
HStem: 0 100<45 68 177 200 415 460 576 576> 158 100<274 429> 483 100<240 303> 678.008 121.992<323 348 531 556>
VStem: -10.9884 266.988<40 60> 275.009 121.991<727 751> 360.012 272.988<40 60> 483.009 121.991<727 751>
DStem: 304 483 392 450 68 100 273 258 304 483 212 158 68 100 176 100 392 450 478 583 430 258 575 100
Fore
450 158 m 1
 212 158 l 1
 176 100 l 1
 199 100 l 2
 220 100 226 99 234 96 c 0
 247 92 256 76 256 60 c 0
 256 44 247 27 233 15 c 0
 219 3 207 0 178 0 c 2
 46 0 l 2
 5 0 -11 11 -11 40 c 0
 -11 56 -2 74 12 85 c 0
 27 97 37 100 68 100 c 1
 304 483 l 1
 241 483 l 2
 200 483 184 494 184 523 c 0
 184 539 193 557 207 569 c 0
 222 581 230 583 262 583 c 2
 478 583 l 1
 575 100 l 1
 595 100 602 99 611 96 c 0
 624 91 633 76 633 60 c 0
 633 44 624 26 610 15 c 0
 596 3 583 0 555 0 c 2
 416 0 l 2
 376 0 360 11 360 40 c 0
 360 56 369 73 383 85 c 0
 398 98 406 100 438 100 c 2
 461 100 l 1
 450 158 l 1
430 258 m 1
 392 450 l 1
 273 258 l 1
 430 258 l 1
348 800 m 0
 376 800 397 779 397 751 c 0
 397 713 361 678 323 678 c 0
 298 678 275 701 275 727 c 0
 275 763 312 800 348 800 c 0
556 800 m 0
 584 800 605 779 605 751 c 0
 605 713 569 678 531 678 c 0
 506 678 483 701 483 727 c 0
 483 763 520 800 556 800 c 0
EndSplineSet
EndChar
StartChar: Aring
Encoding: 197 197
Width: 600
Flags: W
HStem: 0 100<45 68 177 200 415 460 576 576> 158 100<274 429> 483 100<240 303> 630 54<417 431> 817 54<455 468>
VStem: -10.9884 266.988<40 60> 318 54<728 740> 360.012 272.988<40 60> 513 53.3242<761 768>
DStem: 304 483 392 450 68 100 273 258 304 483 212 158 68 100 176 100 392 450 478 583 430 258 575 100
Fore
450 158 m 1
 212 158 l 1
 176 100 l 1
 199 100 l 2
 220 100 226 99 234 96 c 0
 247 92 256 76 256 60 c 0
 256 44 247 27 233 15 c 0
 219 3 207 0 178 0 c 2
 46 0 l 2
 5 0 -11 11 -11 40 c 0
 -11 56 -2 74 12 85 c 0
 27 97 37 100 68 100 c 1
 304 483 l 1
 241 483 l 2
 200 483 184 494 184 523 c 0
 184 539 193 557 207 569 c 0
 222 581 230 583 262 583 c 2
 478 583 l 1
 575 100 l 1
 595 100 602 99 611 96 c 0
 624 91 633 76 633 60 c 0
 633 44 624 26 610 15 c 0
 596 3 583 0 555 0 c 2
 416 0 l 2
 376 0 360 11 360 40 c 0
 360 56 369 73 383 85 c 0
 398 98 406 100 438 100 c 2
 461 100 l 1
 450 158 l 1
430 258 m 1
 392 450 l 1
 273 258 l 1
 430 258 l 1
469 871 m 0
 525 871 567 831 567 776 c 0
 567 738 555 710 528 682 c 0
 496 649 456 630 416 630 c 0
 361 630 318 672 318 726 c 0
 318 799 393 871 469 871 c 0
456 817 m 0
 413 817 372 778 372 738 c 0
 372 707 396 684 428 684 c 0
 471 684 513 723 513 762 c 0
 513 796 491 817 456 817 c 0
EndSplineSet
MinimumDistance: x18,-1 
EndChar
StartChar: AE
Encoding: 198 198
Width: 600
Flags: W
HStem: 0 100<46 75 270 289 390 535> 0 189<595 614> 158 101<259 300> 187.01 209.99<476 521> 243 340<419 437> 352 231<613 619> 483 99.2587<256 270 470 595>
VStem: -9.98837 220.988<40 65>
DStem: 271 483 367 471 75 100 258 259 271 483 208 158 75 100 178 100 301 158 419 243 289 100 389 100 367 471 470 483 322 259 440 342 367 471 556 331 322 259 540 253 540 123 640 123 535 100 614 0 596 483 717 583 582 418 682 418
Fore
75 100 m 1
 271 483 l 1
 257 483 l 2
 216 483 201 494 201 523 c 0
 201 539 210 556 224 569 c 0
 239 581 247 583 279 583 c 2
 717 583 l 1
 682 418 l 1
 676 391 673 383 663 373 c 0
 650 360 634 352 617 352 c 0
 596 352 578 369 578 389 c 0
 578 396 579 405 582 418 c 2
 596 483 l 1
 470 483 l 1
 440 342 l 1
 459 342 l 1
 469 377 491 397 521 397 c 0
 543 397 561 380 561 360 c 0
 561 352 561 351 556 331 c 1
 540 253 l 1
 534 226 531 218 521 208 c 0
 508 195 492 187 476 187 c 0
 453 187 436 204 436 225 c 0
 436 229 436 233 438 243 c 1
 419 243 l 1
 389 100 l 1
 535 100 l 1
 540 123 l 2
 546 149 550 158 560 168 c 0
 572 181 589 189 604 189 c 0
 628 189 645 173 645 151 c 0
 645 143 645 142 640 123 c 1
 614 0 l 1
 266 0 l 2
 236 0 219 14 219 41 c 0
 219 72 247 100 280 100 c 2
 289 100 l 1
 301 158 l 1
 208 158 l 1
 178 100 l 1
 200 97 211 85 211 65 c 0
 211 27 182 0 141 0 c 2
 47 0 l 2
 6 0 -10 12 -10 40 c 0
 -10 56 -1 74 13 85 c 0
 28 98 37 100 68 100 c 2
 75 100 l 1
322 259 m 1
 367 471 l 1
 258 259 l 1
 322 259 l 1
EndSplineSet
EndChar
StartChar: Ccedilla
Encoding: 199 199
Width: 600
Flags: HMW
HStem: -229 70<263.5 285> 497 100<364 449>
VStem: 80 102<174.5 204> 314 72<-137.5 -119.5>
Fore
334 -14 m 1
 328 -42 l 1
 370 -50 386 -69 386 -109 c 0
 386 -174 328 -229 258 -229 c 0
 201 -229 148 -203 148 -174 c 0
 148 -152 169 -131 192 -131 c 0
 200 -131 202 -132 218 -142 c 0
 234 -153 255 -159 272 -159 c 0
 298 -159 314 -147 314 -128 c 0
 314 -111 298 -100 273 -100 c 0
 267 -100 263 -100 246 -102 c 1
 265 -9 l 1
 230 -2 213 4 190 15 c 0
 121 47 80 115 80 195 c 0
 80 213 82 231 86 249 c 2
 100 315 l 2
 134 475 277 597 432 597 c 0
 484 597 517 589 567 563 c 2
 576 559 l 1
 593 576 606 583 623 583 c 0
 646 583 663 567 663 545 c 0
 663 538 663 534 659 517 c 1
 641 433 l 1
 635 407 631 398 622 388 c 0
 610 375 593 367 577 367 c 0
 553 367 537 383 538 406 c 1
 539 425 l 2
 541 463 483 497 415 497 c 0
 313 497 222 420 200 315 c 1
 186 251 l 2
 183 238 182 225 182 214 c 0
 182 135 245 86 347 86 c 0
 393 86 436 95 463 109 c 0
 475 116 476 116 508 143 c 0
 522 154 534 159 547 159 c 0
 570 159 588 141 588 118 c 0
 588 93 564 64 518 36 c 0
 470 5 415 -9 334 -14 c 1
EndSplineSet
EndChar
StartChar: Egrave
Encoding: 200 200
Width: 600
Flags: W
HStem: 0 100<79 116 217 471> 0 219<536.449 550> 243 99<268 330> 243 340<246 267> 366 217<547 558> 483 99.2755<181 196 297 530>
DStem: 197 483 297 483 116 100 267 342 197 483 453 349 116 100 428 236 197 483 246 243 116 100 216 100 328 767 386 824 438 656 496 712 531 483 652 583 520 433 620 433
Fore
246 243 m 1
 216 100 l 1
 471 100 l 1
 483 152 l 1
 488 180 492 188 502 198 c 0
 514 211 531 219 546 219 c 0
 569 219 587 203 587 182 c 0
 587 175 586 170 583 152 c 1
 550 0 l 1
 80 0 l 2
 39 0 23 12 23 40 c 0
 23 56 32 74 46 85 c 0
 61 98 70 100 101 100 c 2
 116 100 l 1
 197 483 l 1
 182 483 l 2
 141 483 125 494 125 523 c 0
 125 539 134 556 149 569 c 0
 163 581 172 583 204 583 c 2
 652 583 l 1
 620 433 l 2
 614 405 611 397 601 387 c 0
 589 374 572 366 556 366 c 0
 534 366 516 382 516 404 c 0
 516 410 517 420 520 433 c 2
 531 483 l 1
 297 483 l 1
 267 342 l 1
 352 342 l 1
 353 349 l 1
 359 378 362 385 372 395 c 0
 385 408 402 416 417 416 c 0
 440 416 457 400 457 379 c 0
 457 371 456 367 453 349 c 1
 428 236 l 2
 422 208 419 201 409 190 c 0
 397 178 380 170 365 170 c 0
 342 170 325 186 325 207 c 0
 325 214 326 222 329 236 c 1
 331 243 l 1
 246 243 l 1
386 824 m 2
 496 712 l 1
 507 702 512 692 512 683 c 0
 512 661 489 640 466 640 c 0
 457 640 449 645 438 656 c 2
 328 767 l 2
 317 778 312 787 312 795 c 0
 312 818 334 839 358 839 c 0
 368 839 375 835 386 824 c 2
EndSplineSet
EndChar
StartChar: Eacute
Encoding: 201 201
Width: 600
Flags: W
HStem: 0 100<79 116 217 471> 0 219<535.937 550> 243 99<268 330> 243 340<246 267> 366 217<547 558> 483 99.2755<181 196 297 530>
DStem: 197 483 297 483 116 100 267 342 197 483 453 349 116 100 428 236 197 483 246 243 116 100 216 100 531 483 652 583 520 433 620 433 547 824 581 767 390 712 424 656
Fore
246 243 m 1
 216 100 l 1
 471 100 l 1
 483 152 l 1
 488 180 492 188 502 198 c 0
 514 212 531 219 546 219 c 0
 569 219 587 203 587 182 c 0
 587 174 586 170 583 152 c 1
 550 0 l 1
 80 0 l 2
 40 0 23 12 23 40 c 0
 23 56 32 74 46 85 c 0
 61 98 70 100 101 100 c 2
 116 100 l 1
 197 483 l 1
 182 483 l 2
 141 483 125 494 125 523 c 0
 125 539 134 557 149 569 c 0
 163 581 172 583 204 583 c 2
 652 583 l 1
 620 433 l 2
 614 405 611 397 601 387 c 0
 589 374 572 366 556 366 c 0
 534 366 516 382 516 404 c 0
 516 410 517 420 520 433 c 2
 531 483 l 1
 297 483 l 1
 267 342 l 1
 352 342 l 1
 353 349 l 1
 359 378 362 385 372 395 c 0
 385 408 402 416 417 416 c 0
 440 416 457 400 457 378 c 0
 457 370 457 369 453 349 c 1
 428 236 l 2
 422 208 419 201 409 190 c 0
 397 178 380 170 365 170 c 0
 342 170 325 186 325 207 c 0
 325 214 326 222 329 236 c 1
 331 243 l 1
 246 243 l 1
581 767 m 2
 424 656 l 2
 409 645 398 640 388 640 c 0
 371 640 358 652 358 669 c 0
 358 684 367 696 390 712 c 2
 547 824 l 2
 564 836 572 839 582 839 c 0
 600 839 612 827 612 810 c 0
 612 795 603 782 581 767 c 2
EndSplineSet
EndChar
StartChar: Ecircumflex
Encoding: 202 202
Width: 600
Flags: W
HStem: 0 100<79 116 217 471> 0 219<542 550> 243 99<268 330> 243 340<246 267> 366 217<547 558> 483 99.2755<181 196 297 530>
DStem: 197 483 297 483 116 100 267 342 197 483 453 349 116 100 428 236 197 483 246 243 116 100 216 100 452 750 471 839 543 653 594 711 471 839 452 750 291 711 318 653 531 483 652 583 520 433 620 433
Fore
246 243 m 1
 216 100 l 1
 471 100 l 1
 483 152 l 1
 488 180 492 188 502 198 c 0
 514 211 531 219 546 219 c 0
 569 219 587 203 587 182 c 0
 587 175 586 170 583 152 c 1
 550 0 l 1
 80 0 l 2
 39 0 23 12 23 40 c 0
 23 56 32 74 46 85 c 0
 61 98 70 100 101 100 c 2
 116 100 l 1
 197 483 l 1
 182 483 l 2
 141 483 125 494 125 523 c 0
 125 539 134 556 149 569 c 0
 163 581 172 583 204 583 c 2
 652 583 l 1
 620 433 l 2
 614 405 611 397 601 387 c 0
 589 374 572 366 556 366 c 0
 534 366 516 382 516 404 c 0
 516 410 517 420 520 433 c 2
 531 483 l 1
 297 483 l 1
 267 342 l 1
 352 342 l 1
 353 349 l 1
 359 378 362 385 372 395 c 0
 385 408 402 416 417 416 c 0
 440 416 457 400 457 379 c 0
 457 371 456 367 453 349 c 1
 428 236 l 2
 422 208 419 201 409 190 c 0
 397 178 380 170 365 170 c 0
 342 170 325 186 325 207 c 0
 325 214 326 222 329 236 c 1
 331 243 l 1
 246 243 l 1
452 750 m 1
 318 653 l 1
 304 644 296 640 287 640 c 0
 271 640 259 652 259 669 c 0
 259 685 264 691 291 711 c 2
 471 839 l 1
 594 711 l 2
 596 709 599 706 602 704 c 0
 610 696 612 691 612 683 c 0
 612 662 590 640 569 640 c 0
 560 640 552 644 543 653 c 2
 452 750 l 1
EndSplineSet
EndChar
StartChar: Edieresis
Encoding: 203 203
Width: 600
Flags: W
HStem: 0 100<79 116 217 471> 0 219<538 550> 243 99<268 330> 243 340<246 267> 366 217<547 566> 483 99.2755<181 196 297 530> 678.008 121.992<331 356 539 564>
VStem: 283.009 121.991<727 751> 491.009 121.991<727 751>
DStem: 197 483 297 483 116 100 267 342 197 483 453 349 116 100 428 236 197 483 246 243 116 100 216 100 531 483 652 583 520 433 620 433
Fore
246 243 m 1
 216 100 l 1
 471 100 l 1
 483 152 l 1
 488 180 492 188 502 198 c 0
 514 212 531 219 546 219 c 0
 569 219 587 203 587 182 c 0
 587 174 586 170 583 152 c 1
 550 0 l 1
 80 0 l 2
 40 0 23 12 23 40 c 0
 23 56 32 74 46 85 c 0
 61 98 70 100 101 100 c 2
 116 100 l 1
 197 483 l 1
 182 483 l 2
 141 483 125 494 125 523 c 0
 125 539 134 557 149 569 c 0
 163 581 172 583 204 583 c 2
 652 583 l 1
 620 433 l 2
 614 405 611 397 601 387 c 0
 589 374 572 366 556 366 c 0
 534 366 516 382 516 404 c 0
 516 410 517 420 520 433 c 2
 531 483 l 1
 297 483 l 1
 267 342 l 1
 352 342 l 1
 353 349 l 1
 359 378 362 385 372 395 c 0
 385 408 402 416 417 416 c 0
 440 416 457 400 457 378 c 0
 457 370 457 369 453 349 c 1
 428 236 l 2
 422 208 419 201 409 190 c 0
 397 178 380 170 365 170 c 0
 342 170 325 186 325 207 c 0
 325 214 326 222 329 236 c 1
 331 243 l 1
 246 243 l 1
356 800 m 0
 384 800 405 779 405 751 c 0
 405 713 369 678 331 678 c 0
 306 678 283 701 283 727 c 0
 283 763 320 800 356 800 c 0
564 800 m 0
 592 800 613 779 613 751 c 0
 613 713 577 678 539 678 c 0
 514 678 491 701 491 727 c 0
 491 763 528 800 564 800 c 0
EndSplineSet
EndChar
StartChar: Igrave
Encoding: 204 204
Width: 600
Flags: HMW
HStem: 0 100<171 272 372 451> 483 100<274 353 453 554 453 453>
VStem: 196 436
Fore
453 483 m 1
 372 100 l 1
 472 100 l 2
 492 100 499 99 507 96 c 0
 520 92 529 77 529 61 c 0
 529 44 520 27 506 15 c 0
 492 3 480 0 451 0 c 2
 150 0 l 2
 109 0 93 11 93 40 c 0
 93 56 102 73 116 85 c 0
 131 98 139 100 171 100 c 2
 272 100 l 1
 353 483 l 1
 252 483 l 2
 211 483 196 494 196 523 c 0
 196 539 205 557 219 568 c 0
 234 581 242 583 274 583 c 2
 575 583 l 2
 595 583 602 582 610 579 c 0
 622 575 632 559 632 544 c 0
 632 527 623 509 609 498 c 0
 594 486 584 483 554 483 c 2
 453 483 l 1
395 824 m 2
 505 712 l 1
 516 702 521 692 521 683 c 0
 521 661 498 640 475 640 c 0
 467 640 457 645 447 656 c 2
 337 767 l 1
 326 777 321 787 321 795 c 0
 321 818 343 839 367 839 c 0
 377 839 383 836 395 824 c 2
EndSplineSet
EndChar
StartChar: Iacute
Encoding: 205 205
Width: 600
Flags: HMW
HStem: 0 100<171 272 372 451> 483 100<274 353 453 554 453 453>
VStem: 196 436
Fore
453 483 m 1
 372 100 l 1
 472 100 l 2
 492 100 499 99 507 96 c 0
 520 92 529 77 529 61 c 0
 529 44 520 27 506 15 c 0
 492 3 480 0 451 0 c 2
 150 0 l 2
 109 0 93 11 93 40 c 0
 93 56 102 73 116 85 c 0
 131 98 139 100 171 100 c 2
 272 100 l 1
 353 483 l 1
 252 483 l 2
 211 483 196 494 196 523 c 0
 196 539 205 557 219 568 c 0
 234 581 242 583 274 583 c 2
 575 583 l 2
 595 583 602 582 610 579 c 0
 622 575 632 559 632 544 c 0
 632 527 623 509 609 498 c 0
 594 486 584 483 554 483 c 2
 453 483 l 1
569 767 m 1
 419 656 l 1
 393 640 393 640 384 640 c 0
 367 640 354 652 354 669 c 0
 354 684 362 696 384 712 c 2
 535 824 l 2
 550 835 559 839 569 839 c 0
 587 839 600 827 600 810 c 0
 600 796 592 783 576 772 c 2
 569 767 l 1
EndSplineSet
EndChar
StartChar: Icircumflex
Encoding: 206 206
Width: 600
Flags: HMW
HStem: 0 100<171 272 372 451> 483 100<274 353 453 554 453 453>
VStem: 196 436
Fore
453 483 m 1
 372 100 l 1
 472 100 l 2
 492 100 499 99 507 96 c 0
 520 92 529 77 529 61 c 0
 529 44 520 27 506 15 c 0
 492 3 480 0 451 0 c 2
 150 0 l 2
 109 0 93 11 93 40 c 0
 93 56 102 73 116 85 c 0
 131 98 139 100 171 100 c 2
 272 100 l 1
 353 483 l 1
 252 483 l 2
 211 483 196 494 196 523 c 0
 196 539 205 557 219 568 c 0
 234 581 242 583 274 583 c 2
 575 583 l 2
 595 583 602 582 610 579 c 0
 622 575 632 559 632 544 c 0
 632 527 623 509 609 498 c 0
 594 486 584 483 554 483 c 2
 453 483 l 1
461 750 m 1
 326 653 l 2
 313 644 305 640 296 640 c 0
 280 640 268 652 268 668 c 0
 268 685 274 692 300 711 c 2
 480 839 l 1
 603 711 l 2
 619 694 620 693 620 683 c 0
 620 661 599 640 577 640 c 0
 569 640 561 644 552 653 c 2
 461 750 l 1
EndSplineSet
EndChar
StartChar: Idieresis
Encoding: 207 207
Width: 600
Flags: W
HStem: 0 100<149 272 373 473> 483 100<251 352 453 576> 678.008 121.992<340 365 548 573>
VStem: 93.0117 435.988<40 61> 196.012 435.988<523 544> 292.009 121.991<727 751> 500.009 121.991<727 751>
DStem: 353 483 453 483 272 100 372 100
Fore
453 483 m 1
 372 100 l 1
 472 100 l 2
 492 100 499 99 507 96 c 0
 520 92 529 77 529 61 c 0
 529 44 520 27 506 15 c 0
 492 3 480 0 451 0 c 2
 150 0 l 2
 109 0 93 11 93 40 c 0
 93 56 102 73 116 85 c 0
 131 98 139 100 171 100 c 2
 272 100 l 1
 353 483 l 1
 252 483 l 2
 211 483 196 494 196 523 c 0
 196 539 205 557 219 568 c 0
 234 581 242 583 274 583 c 2
 575 583 l 2
 595 583 602 582 610 579 c 0
 622 575 632 559 632 544 c 0
 632 527 623 509 609 498 c 0
 594 486 584 483 554 483 c 2
 453 483 l 1
365 800 m 0
 393 800 414 779 414 751 c 0
 414 713 378 678 340 678 c 0
 315 678 292 701 292 727 c 0
 292 763 329 800 365 800 c 0
573 800 m 0
 601 800 622 779 622 751 c 0
 622 713 586 678 548 678 c 0
 523 678 500 701 500 727 c 0
 500 763 537 800 573 800 c 0
EndSplineSet
EndChar
StartChar: Eth
Encoding: 208 208
Width: 600
Flags: HMW
HStem: 0 100<83.5 96 196 285> 243 100<247 300> 483 100<277 277 277 387>
VStem: 62 316 520 101
Fore
126 243 m 1
 119 243 l 2
 78 243 62 254 62 283 c 0
 62 299 71 316 85 328 c 0
 100 341 108 343 140 343 c 2
 147 343 l 1
 177 483 l 1
 142 483 126 496 126 523 c 0
 126 539 135 556 149 569 c 0
 164 581 172 583 204 583 c 2
 417 583 l 2
 539 583 622 497 622 369 c 0
 622 348 620 326 615 305 c 1
 605 258 l 1
 590 185 553 123 497 75 c 0
 437 23 371 0 285 0 c 2
 80 0 l 2
 39 0 23 12 23 40 c 0
 23 56 32 73 46 85 c 0
 60 97 71 100 96 100 c 1
 126 243 l 1
226 243 m 1
 196 100 l 1
 306 100 l 2
 366 100 401 112 440 144 c 0
 475 174 495 210 506 261 c 2
 516 307 l 2
 519 321 520 335 520 350 c 0
 520 392 503 434 475 457 c 0
 456 474 424 483 387 483 c 2
 277 483 l 1
 247 343 l 1
 321 343 l 2
 341 343 348 342 356 339 c 0
 368 335 378 319 378 304 c 0
 378 287 369 269 355 258 c 0
 341 246 328 243 300 243 c 2
 226 243 l 1
EndSplineSet
EndChar
StartChar: Ntilde
Encoding: 209 209
Width: 600
Flags: HMW
HStem: 0 100<81 94 194 207> 483 100<519 533 633 645.5> 730 68
VStem: 21 264 442 264
Fore
380 730 m 0
 362 730 353 724 314 684 c 0
 305 674 296 670 286 670 c 0
 272 670 261 680 261 693 c 0
 261 708 273 728 299 753 c 0
 331 783 363 799 393 799 c 0
 416 799 432 792 476 762 c 0
 504 742 517 736 528 736 c 0
 543 736 548 739 576 770 c 0
 593 788 610 799 621 799 c 0
 635 799 648 788 648 776 c 0
 648 764 639 749 619 728 c 0
 579 685 548 667 516 667 c 0
 494 667 462 682 426 709 c 0
 403 726 395 730 380 730 c 0
256 394 m 1
 194 100 l 1
 229 100 l 2
 249 100 255 99 263 96 c 0
 276 92 285 77 285 61 c 0
 285 44 276 27 262 15 c 0
 249 4 235 0 207 0 c 2
 78 0 l 2
 37 0 21 11 21 40 c 0
 21 56 30 73 44 85 c 0
 58 97 68 100 94 100 c 1
 175 483 l 1
 160 483 l 2
 119 483 104 494 104 523 c 0
 104 539 113 556 127 568 c 0
 141 580 151 583 182 583 c 2
 296 583 l 1
 471 191 l 1
 533 483 l 1
 498 483 l 2
 457 483 442 494 442 523 c 0
 442 539 451 556 465 569 c 0
 480 581 488 583 519 583 c 2
 649 583 l 2
 669 583 676 582 684 579 c 0
 697 575 706 560 706 543 c 0
 706 527 697 510 683 498 c 0
 669 486 658 483 633 483 c 1
 530 0 l 1
 432 0 l 1
 256 394 l 1
EndSplineSet
EndChar
StartChar: Ograve
Encoding: 210 210
Width: 600
Flags: HMW
HStem: -13 99 497 99
VStem: 75 103<198 266> 546 102
Fore
426 597 m 0
 554 597 649 498 649 366 c 0
 649 270 610 174 541 102 c 0
 472 30 380 -14 297 -14 c 0
 170 -14 75 86 75 220 c 0
 75 312 116 411 182 481 c 0
 250 552 345 597 426 597 c 0
405 497 m 0
 290 497 178 371 178 243 c 0
 178 153 237 86 317 86 c 0
 434 86 546 211 546 342 c 0
 546 431 486 497 405 497 c 0
398 824 m 2
 508 712 l 1
 519 702 524 692 524 683 c 0
 524 661 501 640 478 640 c 0
 469 640 460 645 450 656 c 2
 340 767 l 1
 329 777 324 787 324 795 c 0
 324 818 346 839 370 839 c 0
 380 839 386 836 398 824 c 2
EndSplineSet
EndChar
StartChar: Oacute
Encoding: 211 211
Width: 600
Flags: HMW
HStem: -13 99 497 99
VStem: 75 103<198 266> 546 102
Fore
426 597 m 0
 554 597 649 498 649 366 c 0
 649 270 610 174 541 102 c 0
 472 30 380 -14 297 -14 c 0
 170 -14 75 86 75 220 c 0
 75 312 116 411 182 481 c 0
 250 552 345 597 426 597 c 0
405 497 m 0
 290 497 178 371 178 243 c 0
 178 153 237 86 317 86 c 0
 434 86 546 211 546 342 c 0
 546 431 486 497 405 497 c 0
587 767 m 2
 429 656 l 2
 413 644 403 640 394 640 c 0
 376 640 364 652 364 670 c 0
 364 684 374 698 395 712 c 2
 552 824 l 1
 569 835 577 839 588 839 c 0
 605 839 618 827 618 810 c 0
 618 795 610 783 587 767 c 2
EndSplineSet
EndChar
StartChar: Ocircumflex
Encoding: 212 212
Width: 600
Flags: HMW
HStem: -14 100<277 338.5> 497 99
VStem: 75 103<198 266> 546 102
Fore
426 597 m 0
 554 597 649 498 649 366 c 0
 649 270 610 174 541 102 c 0
 472 30 380 -14 297 -14 c 0
 170 -14 75 86 75 220 c 0
 75 312 116 411 182 481 c 0
 250 552 345 597 426 597 c 0
405 497 m 0
 290 497 178 371 178 243 c 0
 178 153 237 86 317 86 c 0
 434 86 546 211 546 342 c 0
 546 431 486 497 405 497 c 0
460 750 m 1
 326 653 l 2
 313 644 304 640 295 640 c 0
 279 640 267 652 267 668 c 0
 267 685 271 691 299 711 c 2
 479 839 l 1
 603 711 l 2
 620 693 620 693 620 683 c 0
 620 661 599 640 577 640 c 0
 568 640 561 644 552 653 c 2
 460 750 l 1
EndSplineSet
EndChar
StartChar: Otilde
Encoding: 213 213
Width: 600
Flags: W
HStem: -13.7461 99.7461<308 318> 497 99.0303<405 411> 667.659 68.3414<535 537> 730 68.0233<388 395>
VStem: 75.0578 102.942<226 245> 546 102.123<341 354>
Fore
426 597 m 0
 554 597 649 498 649 366 c 0
 649 270 610 174 541 102 c 0
 472 30 380 -14 297 -14 c 0
 169 -14 75 85 75 220 c 0
 75 312 116 411 182 481 c 0
 250 552 345 597 426 597 c 0
405 497 m 0
 290 497 178 371 178 243 c 0
 178 153 237 86 317 86 c 0
 434 86 546 211 546 342 c 0
 546 431 486 497 405 497 c 0
629 799 m 0
 643 799 656 788 656 776 c 0
 656 764 647 750 627 728 c 0
 586 684 557 667 524 667 c 0
 502 667 472 681 434 709 c 0
 410 726 402 730 388 730 c 0
 370 730 361 724 320 682 c 0
 313 675 303 670 294 670 c 0
 280 670 269 680 269 693 c 0
 269 709 282 729 309 754 c 0
 340 784 372 799 401 799 c 0
 424 799 440 791 484 762 c 0
 512 742 525 736 536 736 c 0
 551 736 556 740 584 770 c 0
 602 789 617 799 629 799 c 0
EndSplineSet
EndChar
StartChar: Odieresis
Encoding: 214 214
Width: 600
Flags: W
HStem: -13.3259 99.3259<315 318> 497 99.0303<405 415> 678.008 121.992<339 364 547 572>
VStem: 75.0578 102.942<226 245> 291.009 121.991<727 751> 499.009 121.991<727 751> 546 102.123<341 354>
Fore
426 597 m 0
 554 597 649 498 649 366 c 0
 649 270 610 174 541 102 c 0
 472 30 380 -14 297 -14 c 0
 170 -14 75 86 75 220 c 0
 75 312 116 411 182 481 c 0
 250 552 345 597 426 597 c 0
405 497 m 0
 290 497 178 371 178 243 c 0
 178 153 237 86 317 86 c 0
 434 86 546 211 546 342 c 0
 546 431 486 497 405 497 c 0
364 800 m 0
 392 800 413 779 413 751 c 0
 413 713 377 678 339 678 c 0
 314 678 291 701 291 727 c 0
 291 763 328 800 364 800 c 0
572 800 m 0
 600 800 621 779 621 751 c 0
 621 713 585 678 547 678 c 0
 522 678 499 701 499 727 c 0
 499 763 536 800 572 800 c 0
EndSplineSet
EndChar
StartChar: multiply
Encoding: 215 215
Width: 600
Flags: W
DStem: 207 383 293 454 288 280 374 351 288 280 344 209 163 177 219 106 344 209 430 280 425 106 511 177 499 454 555 383 374 351 430 280
Fore
344 209 m 1
 219 106 l 2
 194 85 183 80 167 80 c 0
 143 80 126 97 126 120 c 0
 126 141 134 153 163 177 c 2
 288 280 l 1
 207 383 l 2
 192 401 189 408 189 421 c 0
 189 450 221 480 252 480 c 0
 267 480 277 474 293 454 c 2
 374 351 l 1
 499 454 l 2
 525 475 534 480 551 480 c 0
 575 480 592 463 592 440 c 0
 592 420 583 407 555 383 c 2
 430 280 l 1
 511 177 l 2
 525 159 529 151 529 139 c 0
 529 110 497 80 466 80 c 0
 450 80 441 85 425 106 c 2
 344 209 l 1
EndSplineSet
MinimumDistance: x14,-1 
EndChar
StartChar: Oslash
Encoding: 216 216
Width: 600
Flags: HMW
HStem: -14 100<305.5 339.5> 497 99
VStem: 75 103<230 307> 546 103<317.5 353>
Fore
165 28 m 1
 97 -40 l 2
 72 -65 63 -70 44 -70 c 0
 21 -70 4 -54 4 -33 c 0
 4 -16 10 -5 35 19 c 2
 108 92 l 1
 85 132 75 171 75 220 c 0
 75 413 247 597 427 597 c 0
 480 597 525 581 566 549 c 1
 624 607 l 2
 649 632 660 638 678 638 c 0
 700 638 717 622 717 600 c 0
 717 582 711 573 687 548 c 1
 621 483 l 1
 640 449 649 409 649 365 c 0
 649 270 610 174 542 102 c 0
 473 30 381 -14 298 -14 c 0
 248 -14 203 0 165 28 c 1
538 400 m 1
 244 107 l 1
 267 93 292 86 319 86 c 0
 435 86 546 212 546 342 c 0
 546 364 544 380 538 400 c 1
190 174 m 1
 487 471 l 1
 463 488 436 497 405 497 c 0
 290 497 178 371 178 243 c 0
 178 217 182 197 190 174 c 1
EndSplineSet
EndChar
StartChar: Ugrave
Encoding: 217 217
Width: 600
Flags: HMW
HStem: -14 100<288 354.5> 483 100<274 274 274 309 519 532 632 644.5>
VStem: 111 100 441 264
Fore
632 483 m 1
 573 205 l 1
 547 81 427 -14 298 -14 c 0
 189 -14 110 59 110 158 c 0
 110 173 112 188 115 205 c 1
 174 483 l 1
 138 483 123 495 123 523 c 0
 123 539 132 557 146 569 c 0
 161 581 170 583 201 583 c 2
 331 583 l 2
 353 583 357 583 365 579 c 0
 378 575 387 559 387 544 c 0
 387 527 378 509 364 498 c 0
 350 486 339 483 309 483 c 2
 274 483 l 1
 213 196 l 1
 212 189 211 182 211 176 c 0
 211 124 257 86 319 86 c 0
 390 86 458 135 471 196 c 2
 532 483 l 1
 497 483 l 2
 456 483 441 494 441 523 c 0
 441 539 450 556 464 569 c 0
 479 581 487 583 519 583 c 2
 648 583 l 2
 668 583 675 582 683 579 c 0
 696 575 705 560 705 544 c 0
 705 527 696 509 682 498 c 0
 668 487 657 483 632 483 c 1
399 824 m 2
 509 712 l 2
 520 701 525 692 525 683 c 0
 525 661 502 640 479 640 c 0
 470 640 461 645 451 656 c 2
 340 767 l 2
 330 777 325 787 325 795 c 0
 325 818 347 839 370 839 c 0
 381 839 387 836 399 824 c 2
EndSplineSet
EndChar
StartChar: Uacute
Encoding: 218 218
Width: 600
Flags: HMW
HStem: -14 100<288 354.5> 483 100<274 274 274 309 519 532 632 644.5>
VStem: 111 100 441 264
Fore
632 483 m 1
 573 205 l 1
 547 81 427 -14 298 -14 c 0
 189 -14 110 59 110 158 c 0
 110 173 112 188 115 205 c 1
 174 483 l 1
 138 483 123 495 123 523 c 0
 123 539 132 557 146 569 c 0
 161 581 170 583 201 583 c 2
 331 583 l 2
 353 583 357 583 365 579 c 0
 378 575 387 559 387 544 c 0
 387 527 378 509 364 498 c 0
 350 486 339 483 309 483 c 2
 274 483 l 1
 213 196 l 1
 212 189 211 182 211 176 c 0
 211 124 257 86 319 86 c 0
 390 86 458 135 471 196 c 2
 532 483 l 1
 497 483 l 2
 456 483 441 494 441 523 c 0
 441 539 450 556 464 569 c 0
 479 581 487 583 519 583 c 2
 648 583 l 2
 668 583 675 582 683 579 c 0
 696 575 705 560 705 544 c 0
 705 527 696 509 682 498 c 0
 668 487 657 483 632 483 c 1
587 767 m 2
 429 656 l 1
 414 644 404 640 395 640 c 0
 377 640 365 652 365 670 c 0
 365 684 375 698 395 712 c 2
 553 824 l 2
 569 835 578 839 589 839 c 0
 606 839 619 827 619 810 c 0
 619 794 612 784 587 767 c 2
EndSplineSet
EndChar
StartChar: Ucircumflex
Encoding: 219 219
Width: 600
Flags: HMW
HStem: -14 100<288 354.5> 483 100<274 274 274 309 519 532 632 644.5>
VStem: 111 100 441 264
Fore
632 483 m 1
 573 205 l 1
 547 81 427 -14 298 -14 c 0
 189 -14 110 59 110 158 c 0
 110 173 112 188 115 205 c 1
 174 483 l 1
 138 483 123 495 123 523 c 0
 123 539 132 557 146 569 c 0
 161 581 170 583 201 583 c 2
 331 583 l 2
 353 583 357 583 365 579 c 0
 378 575 387 559 387 544 c 0
 387 527 378 509 364 498 c 0
 350 486 339 483 309 483 c 2
 274 483 l 1
 213 196 l 1
 212 189 211 182 211 176 c 0
 211 124 257 86 319 86 c 0
 390 86 458 135 471 196 c 2
 532 483 l 1
 497 483 l 2
 456 483 441 494 441 523 c 0
 441 539 450 556 464 569 c 0
 479 581 487 583 519 583 c 2
 648 583 l 2
 668 583 675 582 683 579 c 0
 696 575 705 560 705 544 c 0
 705 527 696 509 682 498 c 0
 668 487 657 483 632 483 c 1
461 750 m 1
 327 653 l 2
 313 643 305 640 296 640 c 0
 280 640 268 652 268 669 c 0
 268 685 273 692 300 711 c 2
 480 839 l 1
 603 711 l 2
 606 708 609 706 611 703 c 1
 619 696 621 691 621 683 c 0
 621 661 599 640 578 640 c 0
 569 640 561 644 552 653 c 2
 461 750 l 1
EndSplineSet
EndChar
StartChar: Udieresis
Encoding: 220 220
Width: 600
Flags: W
HStem: -13.9696 99.9696<302 320> 483 100<274 331 494 531 632.031 650> 678.008 121.992<340 365 548 573>
VStem: 110.793 100.207<175 177> 123.012 263.988<523 544> 292.009 121.991<727 751> 441.012 263.988<523 544> 500.009 121.991<727 751>
DStem: 174 483 274 483 115 205 213 196 532 483 632 483 471 196 573 205
Fore
632 483 m 1
 573 205 l 1
 547 81 427 -14 298 -14 c 0
 189 -14 110 59 110 158 c 0
 110 173 112 188 115 205 c 1
 174 483 l 1
 138 483 123 495 123 523 c 0
 123 539 132 557 146 569 c 0
 161 581 170 583 201 583 c 2
 331 583 l 2
 353 583 357 583 365 579 c 0
 378 575 387 559 387 544 c 0
 387 527 378 509 364 498 c 0
 350 486 339 483 309 483 c 2
 274 483 l 1
 213 196 l 1
 212 189 211 182 211 176 c 0
 211 124 257 86 319 86 c 0
 390 86 458 135 471 196 c 2
 532 483 l 1
 497 483 l 2
 456 483 441 494 441 523 c 0
 441 539 450 556 464 569 c 0
 479 581 487 583 519 583 c 2
 648 583 l 2
 668 583 675 582 683 579 c 0
 696 575 705 560 705 544 c 0
 705 527 696 509 682 498 c 0
 668 487 657 483 632 483 c 1
365 800 m 0
 393 800 414 779 414 751 c 0
 414 713 378 678 340 678 c 0
 315 678 292 701 292 727 c 0
 292 763 329 800 365 800 c 0
573 800 m 0
 601 800 622 779 622 751 c 0
 622 713 586 678 548 678 c 0
 523 678 500 701 500 727 c 0
 500 763 537 800 573 800 c 0
EndSplineSet
EndChar
StartChar: Yacute
Encoding: 221 221
Width: 600
Flags: W
HStem: 0 100<182 272 373 436> 483 100<188 188 617 639>
VStem: 128.012 365.988<40 61> 134.012 223.988<523 544> 467.012 226.988<523 544>
DStem: 188 483 308 483 302 245 374 348 302 245 402 245 272 100 372 100 497 483 617 483 374 348 402 245 556 824 590 767 398 712 433 656
Fore
590 767 m 2
 433 656 l 2
 417 644 407 640 398 640 c 0
 380 640 368 652 368 669 c 0
 368 684 378 698 398 712 c 2
 556 824 l 2
 572 835 581 839 592 839 c 0
 609 839 622 827 622 810 c 0
 622 794 614 784 590 767 c 2
402 245 m 1
 372 100 l 1
 437 100 l 2
 457 100 464 99 472 96 c 0
 485 92 494 76 494 61 c 0
 494 45 485 26 471 15 c 0
 457 4 444 0 416 0 c 2
 185 0 l 2
 144 0 128 12 128 40 c 0
 128 56 137 74 151 85 c 0
 166 98 175 100 206 100 c 2
 272 100 l 1
 302 245 l 1
 188 483 l 1
 182 483 l 2
 151 483 134 497 134 523 c 0
 134 539 143 557 157 568 c 0
 172 581 181 583 212 583 c 2
 302 583 l 2
 322 583 328 582 336 579 c 0
 349 575 358 560 358 544 c 0
 358 517 341 496 308 483 c 1
 374 348 l 1
 497 483 l 1
 475 492 467 503 467 523 c 0
 467 539 476 556 490 569 c 1
 504 580 514 583 545 583 c 2
 638 583 l 2
 658 583 664 582 672 579 c 0
 685 575 694 559 694 544 c 0
 694 527 685 510 671 498 c 0
 657 486 645 483 620 483 c 2
 617 483 l 1
 402 245 l 1
EndSplineSet
EndChar
StartChar: Thorn
Encoding: 222 222
Width: 600
Flags: HMW
HStem: 0 100<101 116 216 293> 140 100<246 322> 343 100<289 387 387 398> 483 100<297 297 297 396>
VStem: 23 349 484 104<300 316.5>
Fore
224 140 m 1
 216 100 l 1
 314 100 l 2
 335 100 341 99 350 96 c 0
 362 92 372 76 372 61 c 0
 372 45 363 26 349 15 c 0
 335 4 321 0 293 0 c 2
 80 0 l 2
 39 0 23 12 23 40 c 0
 23 56 32 73 46 85 c 0
 60 97 70 100 101 100 c 2
 116 100 l 1
 197 483 l 1
 182 483 l 2
 162 483 156 484 148 487 c 0
 135 491 126 507 126 523 c 0
 126 539 135 556 149 568 c 0
 163 580 175 583 204 583 c 2
 417 583 l 2
 458 583 474 572 474 543 c 0
 474 527 465 510 451 498 c 0
 436 486 427 483 396 483 c 2
 297 483 l 1
 289 443 l 1
 387 443 l 2
 461 443 503 435 535 415 c 0
 568 394 588 358 588 321 c 0
 588 279 566 234 530 201 c 0
 482 157 425 140 322 140 c 2
 224 140 l 1
246 240 m 1
 376 240 l 2
 448 240 484 261 484 302 c 0
 484 331 459 343 398 343 c 2
 267 343 l 1
 246 240 l 1
EndSplineSet
EndChar
StartChar: germandbls
Encoding: 223 223
Width: 600
Flags: W
HStem: -16 171.99<338 370> 0 100<77 116> 523 99.1264<379 390>
VStem: 22.0117 227.988<40 63> 444 101.02<470 480> 466.995 102.005<191 214>
DStem: 196 478 293 461 116 100 216 100
Fore
116 100 m 1
 196 478 l 2
 214 563 299 623 400 623 c 0
 488 623 546 570 546 490 c 0
 546 441 530 405 489 365 c 1
 542 328 569 278 569 214 c 0
 569 158 547 98 511 53 c 0
 473 7 427 -16 370 -16 c 0
 310 -16 272 18 272 74 c 0
 272 121 300 156 338 156 c 0
 359 156 375 143 375 125 c 2
 375 113 l 2
 375 94 383 84 399 84 c 0
 434 84 467 137 467 191 c 0
 467 227 449 261 418 281 c 0
 402 292 375 299 342 303 c 0
 309 307 296 318 296 342 c 0
 296 375 321 398 360 402 c 0
 394 406 407 411 423 425 c 0
 436 438 444 454 444 470 c 0
 444 503 420 523 380 523 c 0
 331 523 301 502 293 461 c 1
 216 100 l 1
 239 96 250 84 250 63 c 0
 250 41 237 19 216 7 c 0
 207 2 193 0 171 0 c 2
 78 0 l 2
 38 0 22 11 22 40 c 0
 22 56 31 73 45 85 c 0
 59 97 69 100 100 100 c 2
 116 100 l 1
EndSplineSet
MinimumDistance: x5,-1 
EndChar
StartChar: agrave
Encoding: 224 224
Width: 600
Flags: HMW
HStem: 0 21<388 388 388 505> 196 92<295.5 337> 350 100<361.5 397.5>
VStem: 65 109<108.5 112.5> 453 104
Fore
388 0 m 1
 393 23 l 1
 340 -2 278 -16 219 -16 c 0
 130 -16 65 32 65 98 c 0
 65 127 79 159 105 190 c 0
 158 253 244 288 346 288 c 0
 378 288 408 285 447 278 c 1
 452 301 l 2
 453 305 453 305 453 311 c 0
 453 338 426 350 369 350 c 0
 337 350 295 344 249 333 c 0
 232 329 218 327 207 327 c 0
 185 327 169 343 169 366 c 0
 169 388 182 408 202 417 c 0
 236 433 334 450 389 450 c 0
 493 450 557 407 557 337 c 0
 557 324 556 314 553 302 c 1
 510 100 l 1
 527 100 l 2
 547 100 553 99 561 96 c 0
 574 92 583 77 583 61 c 0
 583 44 574 27 560 15 c 0
 547 3 534 0 505 0 c 2
 388 0 l 1
418 135 m 1
 428 185 l 1
 390 192 354 196 320 196 c 0
 271 196 230 182 198 156 c 0
 182 142 174 130 174 118 c 0
 174 99 203 84 241 84 c 0
 296 84 355 101 418 135 c 1
350 680 m 2
 460 569 l 1
 471 559 476 549 476 540 c 0
 476 517 453 496 430 496 c 0
 421 496 414 500 402 512 c 2
 292 624 l 1
 281 634 276 644 276 652 c 0
 276 675 298 696 322 696 c 0
 332 696 338 693 350 680 c 2
EndSplineSet
EndChar
StartChar: aacute
Encoding: 225 225
Width: 600
Flags: HMW
HStem: 0 21<389 389 389 506> 196 92<296.5 338> 350 100<362.5 398.5>
VStem: 66 109<108.5 112.5> 454 104
Fore
389 0 m 1
 394 23 l 1
 341 -2 279 -16 220 -16 c 0
 131 -16 66 32 66 98 c 0
 66 127 80 159 106 190 c 0
 159 253 245 288 347 288 c 0
 379 288 409 285 448 278 c 1
 453 301 l 2
 454 305 454 305 454 311 c 0
 454 338 427 350 370 350 c 0
 338 350 296 344 250 333 c 0
 233 329 219 327 208 327 c 0
 186 327 170 343 170 366 c 0
 170 388 183 408 203 417 c 0
 237 433 335 450 390 450 c 0
 494 450 558 407 558 337 c 0
 558 324 557 314 554 302 c 1
 511 100 l 1
 528 100 l 2
 548 100 554 99 562 96 c 0
 575 92 584 77 584 61 c 0
 584 44 575 27 561 15 c 0
 548 3 535 0 506 0 c 2
 389 0 l 1
419 135 m 1
 429 185 l 1
 391 192 355 196 321 196 c 0
 272 196 231 182 199 156 c 0
 183 142 175 130 175 118 c 0
 175 99 204 84 242 84 c 0
 297 84 356 101 419 135 c 1
553 624 m 2
 395 512 l 2
 377 499 370 496 360 496 c 0
 342 496 330 508 330 526 c 0
 330 541 340 554 361 569 c 2
 519 680 l 2
 537 693 543 696 554 696 c 0
 572 696 584 684 584 667 c 0
 584 652 575 639 553 624 c 2
EndSplineSet
EndChar
StartChar: acircumflex
Encoding: 226 226
Width: 600
Flags: HMW
HStem: 0 21<388 388 388 505> 196 92<295.5 337> 350 100<361.5 397.5>
VStem: 65 109<108.5 112.5> 453 104
Fore
388 0 m 1
 393 23 l 1
 340 -2 278 -16 219 -16 c 0
 130 -16 65 32 65 98 c 0
 65 127 79 159 105 190 c 0
 158 253 244 288 346 288 c 0
 378 288 408 285 447 278 c 1
 452 301 l 2
 453 305 453 305 453 311 c 0
 453 338 426 350 369 350 c 0
 337 350 295 344 249 333 c 0
 232 329 218 327 207 327 c 0
 185 327 169 343 169 366 c 0
 169 388 182 408 202 417 c 0
 236 433 334 450 389 450 c 0
 493 450 557 407 557 337 c 0
 557 324 556 314 553 302 c 1
 510 100 l 1
 527 100 l 2
 547 100 553 99 561 96 c 0
 574 92 583 77 583 61 c 0
 583 44 574 27 560 15 c 0
 547 3 534 0 505 0 c 2
 388 0 l 1
418 135 m 1
 428 185 l 1
 390 192 354 196 320 196 c 0
 271 196 230 182 198 156 c 0
 182 142 174 130 174 118 c 0
 174 99 203 84 241 84 c 0
 296 84 355 101 418 135 c 1
420 607 m 1
 286 510 l 2
 273 501 264 497 255 497 c 0
 239 497 227 509 227 525 c 0
 227 542 232 548 259 567 c 2
 439 696 l 1
 563 567 l 2
 579 551 580 550 580 540 c 0
 580 518 559 497 537 497 c 0
 528 497 520 501 512 510 c 2
 420 607 l 1
EndSplineSet
EndChar
StartChar: atilde
Encoding: 227 227
Width: 600
Flags: W
HStem: -15.952 99.952<225 243> 0 21G<388 505> 0.0485444 99.9515<510 527> 196 92<319 348> 350 100<368 394> 523.659 68.3414<491 493> 587 68.1179<346 353>
VStem: 65.0055 108.994<98 118> 452.987 104.013<311 337>
DStem: 452 301 553 302 447 278 510 100
Fore
388 0 m 1
 393 23 l 1
 340 -2 278 -16 219 -16 c 0
 130 -16 65 32 65 98 c 0
 65 127 79 159 105 190 c 0
 158 253 244 288 346 288 c 0
 378 288 408 285 447 278 c 1
 452 301 l 2
 453 305 453 305 453 311 c 0
 453 338 426 350 369 350 c 0
 337 350 295 344 249 333 c 0
 232 329 218 327 207 327 c 0
 185 327 169 343 169 366 c 0
 169 388 182 408 202 417 c 0
 236 433 334 450 389 450 c 0
 493 450 557 407 557 337 c 0
 557 324 556 314 553 302 c 1
 510 100 l 1
 527 100 l 2
 547 100 553 99 561 96 c 0
 574 92 583 77 583 61 c 0
 583 44 574 27 560 15 c 0
 547 3 534 0 505 0 c 2
 388 0 l 1
418 135 m 1
 428 185 l 1
 390 192 354 196 320 196 c 0
 271 196 230 182 198 156 c 0
 182 142 174 130 174 118 c 0
 174 99 203 84 241 84 c 0
 296 84 355 101 418 135 c 1
585 656 m 0
 599 656 612 645 612 633 c 0
 612 621 603 606 583 584 c 0
 542 540 513 523 480 523 c 0
 458 523 428 538 390 566 c 0
 367 583 359 587 345 587 c 0
 327 587 318 580 280 541 c 0
 270 530 261 526 251 526 c 0
 237 526 226 536 226 549 c 0
 226 565 239 585 266 611 c 0
 297 640 329 656 358 656 c 0
 380 656 397 648 440 618 c 0
 469 598 481 592 492 592 c 0
 507 592 512 595 540 626 c 0
 558 646 573 656 585 656 c 0
EndSplineSet
MinimumDistance: x15,-1 
EndChar
StartChar: adieresis
Encoding: 228 228
Width: 600
Flags: W
HStem: -15.952 99.952<225 243> 0 21G<388 505> 0.0485444 99.9515<510 527> 196 92<319 348> 350 100<368 394> 534.008 119.992<298 324 506 532>
VStem: 65.0055 108.994<98 118> 250.009 122.991<582 606> 452.987 104.013<311 337> 458.009 122.991<582 606>
DStem: 452 301 553 302 447 278 510 100
Fore
388 0 m 1
 393 23 l 1
 340 -2 278 -16 219 -16 c 0
 130 -16 65 32 65 98 c 0
 65 127 79 159 105 190 c 0
 158 253 244 288 346 288 c 0
 378 288 408 285 447 278 c 1
 452 301 l 2
 453 305 453 305 453 311 c 0
 453 338 426 350 369 350 c 0
 337 350 295 344 249 333 c 0
 232 329 218 327 207 327 c 0
 185 327 169 343 169 366 c 0
 169 388 182 408 202 417 c 0
 236 433 334 450 389 450 c 0
 493 450 557 407 557 337 c 0
 557 324 556 314 553 302 c 1
 510 100 l 1
 527 100 l 2
 547 100 553 99 561 96 c 0
 574 92 583 77 583 61 c 0
 583 44 574 27 560 15 c 0
 547 3 534 0 505 0 c 2
 388 0 l 1
418 135 m 1
 428 185 l 1
 390 192 354 196 320 196 c 0
 271 196 230 182 198 156 c 0
 182 142 174 130 174 118 c 0
 174 99 203 84 241 84 c 0
 296 84 355 101 418 135 c 1
324 654 m 0
 353 654 373 634 373 606 c 0
 373 569 337 534 298 534 c 0
 271 534 250 555 250 582 c 0
 250 618 287 654 324 654 c 0
532 654 m 0
 561 654 581 634 581 606 c 0
 581 569 545 534 506 534 c 0
 479 534 458 555 458 582 c 0
 458 618 495 654 532 654 c 0
EndSplineSet
MinimumDistance: x34,-1 
EndChar
StartChar: aring
Encoding: 229 229
Width: 600
Flags: W
HStem: -15.952 99.952<225 243> 0 21G<388 505> 0.0485444 99.9515<510 527> 196 92<319 348> 350 100<368 394> 486 54<393 406> 674 53<428 443>
VStem: 65.0055 108.994<98 118> 293 54<584 597> 452.987 104.013<311 337> 490 54<617 629>
DStem: 452 301 553 302 447 278 510 100
Fore
388 0 m 1
 393 23 l 1
 340 -2 278 -16 219 -16 c 0
 130 -16 65 32 65 98 c 0
 65 127 79 159 105 190 c 0
 158 253 244 288 346 288 c 0
 378 288 408 285 447 278 c 1
 452 301 l 2
 453 305 453 305 453 311 c 0
 453 338 426 350 369 350 c 0
 337 350 295 344 249 333 c 0
 232 329 218 327 207 327 c 0
 185 327 169 343 169 366 c 0
 169 388 182 408 202 417 c 0
 236 433 334 450 389 450 c 0
 493 450 557 407 557 337 c 0
 557 324 556 314 553 302 c 1
 510 100 l 1
 527 100 l 2
 547 100 553 99 561 96 c 0
 574 92 583 77 583 61 c 0
 583 44 574 27 560 15 c 0
 547 3 534 0 505 0 c 2
 388 0 l 1
418 135 m 1
 428 185 l 1
 390 192 354 196 320 196 c 0
 271 196 230 182 198 156 c 0
 182 142 174 130 174 118 c 0
 174 99 203 84 241 84 c 0
 296 84 355 101 418 135 c 1
443 727 m 0
 502 727 544 687 544 629 c 0
 544 556 469 486 392 486 c 0
 335 486 293 527 293 584 c 0
 293 656 368 727 443 727 c 0
432 674 m 0
 390 674 347 635 347 595 c 0
 347 563 371 540 404 540 c 0
 447 540 490 579 490 618 c 0
 490 651 466 674 432 674 c 0
EndSplineSet
MinimumDistance: x16,-1 
EndChar
StartChar: ae
Encoding: 230 230
Width: 600
Flags: W
HStem: -15.9136 99.9136<163 178 446 459> 172 86<418 557> 197 89<238 258> 349.99 100.01<282 302 507 531>
VStem: 14.4628 103.534<106 130> 558 107<272 292>
Fore
647 172 m 1
 397 172 l 1
 400 109 418 84 459 84 c 0
 481 84 500 89 531 101 c 0
 562 113 579 118 592 118 c 0
 613 118 628 102 628 80 c 0
 628 58 618 39 599 26 c 0
 567 4 490 -16 437 -16 c 0
 399 -16 377 -8 346 16 c 1
 334 5 320 -1 305 -1 c 0
 290 -1 280 5 272 16 c 1
 230 -7 198 -16 156 -16 c 0
 67 -16 14 30 14 106 c 0
 14 156 31 195 64 221 c 0
 112 258 194 286 256 286 c 0
 271 286 289 284 315 281 c 1
 319 301 l 2
 320 305 320 310 320 314 c 0
 319 336 304 350 282 350 c 0
 265 350 256 348 187 329 c 0
 178 326 169 325 163 325 c 0
 141 325 125 342 125 365 c 0
 125 391 142 413 170 424 c 0
 201 435 275 450 302 450 c 0
 349 450 380 433 406 394 c 1
 451 433 488 450 531 450 c 0
 609 450 665 384 665 290 c 0
 665 267 662 243 657 218 c 1
 647 172 l 1
283 130 m 1
 295 189 l 1
 273 195 258 197 241 197 c 0
 198 197 147 182 130 164 c 0
 122 155 117 143 117 130 c 0
 117 101 140 84 177 84 c 0
 207 84 234 96 283 130 c 1
417 258 m 1
 557 258 l 1
 558 268 558 275 558 280 c 0
 558 323 539 350 507 350 c 0
 483 350 457 333 440 307 c 0
 432 295 426 282 417 258 c 1
EndSplineSet
EndChar
StartChar: ccedilla
Encoding: 231 231
Width: 600
Flags: W
HStem: -229 70<265 278> 241.041 208.959<541 586> 350 100<380 408>
VStem: 92.5059 102.767<156 179> 317.985 72.015<-128 -109>
Fore
338 -16 m 1
 332 -42 l 1
 374 -50 390 -69 390 -109 c 0
 390 -174 332 -229 263 -229 c 0
 205 -229 153 -203 153 -174 c 0
 153 -152 174 -131 197 -131 c 0
 204 -131 207 -132 223 -142 c 0
 238 -152 260 -159 276 -159 c 0
 302 -159 318 -147 318 -128 c 0
 318 -109 302 -100 269 -100 c 0
 265 -100 259 -101 250 -102 c 1
 268 -14 l 1
 239 -11 225 -8 205 -2 c 0
 135 22 92 82 92 156 c 0
 92 223 123 297 173 351 c 0
 233 416 314 450 406 450 c 0
 462 450 508 440 543 420 c 1
 554 441 566 450 586 450 c 0
 609 450 626 436 626 415 c 0
 626 406 626 404 621 384 c 1
 605 307 l 1
 600 281 595 271 586 261 c 0
 574 249 557 241 541 241 c 0
 528 241 514 247 507 255 c 0
 502 262 500 268 500 289 c 0
 500 306 496 316 485 325 c 0
 463 341 428 350 385 350 c 0
 321 350 271 328 234 282 c 0
 210 251 195 213 195 179 c 0
 195 115 245 84 348 84 c 0
 428 84 464 94 512 128 c 0
 523 136 533 140 544 140 c 0
 568 140 585 123 585 99 c 0
 585 70 556 40 504 16 c 0
 461 -3 409 -14 338 -16 c 1
EndSplineSet
MinimumDistance: x2,-1 
EndChar
StartChar: egrave
Encoding: 232 232
Width: 600
Flags: HMW
HStem: -16 100<281 334> 172 88<200 495> 350 100<330 403>
Fore
587 172 m 1
 178 172 l 1
 189 112 237 84 325 84 c 0
 369 84 398 89 493 112 c 0
 506 115 519 117 528 117 c 0
 551 117 566 101 566 79 c 0
 566 57 554 39 533 28 c 0
 490 5 374 -16 294 -16 c 0
 158 -16 74 55 74 169 c 0
 74 318 221 450 387 450 c 0
 517 450 600 375 600 259 c 0
 600 243 598 227 595 211 c 1
 587 172 l 1
200 260 m 1
 495 260 l 1
 490 314 439 350 367 350 c 0
 293 350 228 315 200 260 c 1
362 680 m 2
 472 569 l 1
 483 559 488 549 488 540 c 0
 488 517 465 496 442 496 c 0
 433 496 426 500 414 512 c 2
 304 624 l 1
 293 634 288 644 288 652 c 0
 288 675 310 696 334 696 c 0
 344 696 350 693 362 680 c 2
EndSplineSet
EndChar
StartChar: eacute
Encoding: 233 233
Width: 600
Flags: HMW
HStem: -16 100<281 334> 172 88<200 495> 350 100<330 403>
Fore
587 172 m 1
 178 172 l 1
 189 112 237 84 325 84 c 0
 369 84 398 89 493 112 c 0
 506 115 519 117 528 117 c 0
 551 117 566 101 566 79 c 0
 566 57 554 39 533 28 c 0
 490 5 374 -16 294 -16 c 0
 158 -16 74 55 74 169 c 0
 74 318 221 450 387 450 c 0
 517 450 600 375 600 259 c 0
 600 243 598 227 595 211 c 1
 587 172 l 1
200 260 m 1
 495 260 l 1
 490 314 439 350 367 350 c 0
 293 350 228 315 200 260 c 1
564 624 m 2
 406 512 l 2
 388 499 381 496 371 496 c 0
 353 496 341 508 341 526 c 0
 341 541 351 554 372 569 c 2
 530 680 l 2
 548 693 554 696 565 696 c 0
 583 696 595 684 595 667 c 0
 595 652 586 639 564 624 c 2
EndSplineSet
EndChar
StartChar: ecircumflex
Encoding: 234 234
Width: 600
Flags: HMW
HStem: -16 100<281 334> 172 88<200 495> 350 100<330 403>
Fore
587 172 m 1
 178 172 l 1
 189 112 237 84 325 84 c 0
 369 84 398 89 493 112 c 0
 506 115 519 117 528 117 c 0
 551 117 566 101 566 79 c 0
 566 57 554 39 533 28 c 0
 490 5 374 -16 294 -16 c 0
 158 -16 74 55 74 169 c 0
 74 318 221 450 387 450 c 0
 517 450 600 375 600 259 c 0
 600 243 598 227 595 211 c 1
 587 172 l 1
200 260 m 1
 495 260 l 1
 490 314 439 350 367 350 c 0
 293 350 228 315 200 260 c 1
435 607 m 1
 301 510 l 2
 288 501 279 497 270 497 c 0
 254 497 242 509 242 525 c 0
 242 542 247 548 274 567 c 2
 454 696 l 1
 578 567 l 2
 594 551 595 550 595 540 c 0
 595 518 574 497 552 497 c 0
 543 497 535 501 527 510 c 2
 435 607 l 1
EndSplineSet
EndChar
StartChar: edieresis
Encoding: 235 235
Width: 600
Flags: HMW
HStem: -16 100<281 334> 172 88<200 495> 350 100<330 403> 534 120<320.5 332.5 528.5 540.5>
VStem: 265 123<587.5 600> 473 123<587.5 600>
Fore
587 172 m 1
 178 172 l 1
 189 112 237 84 325 84 c 0
 369 84 398 89 493 112 c 0
 506 115 519 117 528 117 c 0
 551 117 566 101 566 79 c 0
 566 57 554 39 533 28 c 0
 490 5 374 -16 294 -16 c 0
 158 -16 74 55 74 169 c 0
 74 318 221 450 387 450 c 0
 517 450 600 375 600 259 c 0
 600 243 598 227 595 211 c 1
 587 172 l 1
200 260 m 1
 495 260 l 1
 490 314 439 350 367 350 c 0
 293 350 228 315 200 260 c 1
339 654 m 0
 368 654 388 634 388 606 c 0
 388 569 352 534 313 534 c 0
 286 534 265 555 265 582 c 0
 265 618 302 654 339 654 c 0
547 654 m 0
 576 654 596 634 596 606 c 0
 596 569 560 534 521 534 c 0
 494 534 473 555 473 582 c 0
 473 618 510 654 547 654 c 0
EndSplineSet
EndChar
StartChar: igrave
Encoding: 236 236
Width: 600
Flags: HMW
HStem: 0 100<150 272 372 472> 337 100<265 322>
VStem: 72 478
Fore
443 437 m 1
 372 100 l 1
 493 100 l 2
 513 100 520 99 528 96 c 0
 541 92 550 76 550 60 c 0
 550 44 541 27 527 15 c 0
 513 4 500 0 472 0 c 2
 129 0 l 2
 88 0 72 11 72 40 c 0
 72 56 81 73 95 85 c 0
 110 98 118 100 150 100 c 2
 272 100 l 1
 322 337 l 1
 244 337 l 2
 202 337 186 348 186 377 c 0
 186 393 195 411 209 422 c 0
 224 435 233 437 265 437 c 2
 443 437 l 1
351 680 m 2
 461 569 l 1
 472 559 477 549 477 540 c 0
 477 517 454 496 431 496 c 0
 422 496 415 500 403 512 c 2
 293 624 l 1
 282 634 277 644 277 652 c 0
 277 675 299 696 323 696 c 0
 333 696 339 693 351 680 c 2
EndSplineSet
EndChar
StartChar: iacute
Encoding: 237 237
Width: 600
Flags: HMW
HStem: 0 100<149 271 371 471> 337 100<264 321>
VStem: 71 478
Fore
442 437 m 1
 371 100 l 1
 492 100 l 2
 512 100 519 99 527 96 c 0
 540 92 549 76 549 60 c 0
 549 44 540 27 526 15 c 0
 512 4 499 0 471 0 c 2
 128 0 l 2
 87 0 71 11 71 40 c 0
 71 56 80 73 94 85 c 0
 109 98 117 100 149 100 c 2
 271 100 l 1
 321 337 l 1
 243 337 l 2
 201 337 185 348 185 377 c 0
 185 393 194 411 208 422 c 0
 223 435 232 437 264 437 c 2
 442 437 l 1
543 624 m 2
 385 512 l 2
 367 499 360 496 350 496 c 0
 332 496 320 508 320 526 c 0
 320 541 330 554 351 569 c 2
 509 680 l 2
 527 693 533 696 544 696 c 0
 562 696 574 684 574 667 c 0
 574 652 565 639 543 624 c 2
EndSplineSet
EndChar
StartChar: icircumflex
Encoding: 238 238
Width: 600
Flags: HMW
HStem: 0 100<150 272 372 472> 337 100<265 322>
VStem: 72 478
Fore
443 437 m 1
 372 100 l 1
 493 100 l 2
 513 100 520 99 528 96 c 0
 541 92 550 76 550 60 c 0
 550 44 541 27 527 15 c 0
 513 4 500 0 472 0 c 2
 129 0 l 2
 88 0 72 11 72 40 c 0
 72 56 81 73 95 85 c 0
 110 98 118 100 150 100 c 2
 272 100 l 1
 322 337 l 1
 244 337 l 2
 202 337 186 348 186 377 c 0
 186 393 195 411 209 422 c 0
 224 435 233 437 265 437 c 2
 443 437 l 1
413 607 m 1
 279 510 l 2
 266 501 257 497 248 497 c 0
 232 497 220 509 220 525 c 0
 220 542 225 548 252 567 c 2
 432 696 l 1
 556 567 l 2
 572 551 573 550 573 540 c 0
 573 518 552 497 530 497 c 0
 521 497 513 501 505 510 c 2
 413 607 l 1
EndSplineSet
EndChar
StartChar: idieresis
Encoding: 239 239
Width: 600
Flags: W
HStem: 0 100<128 272 373 492> 337 100<243 321> 534.008 121.992<293 318 501 526>
VStem: 72.0117 477.988<40 60> 245.009 121.991<583 607> 453.009 121.991<583 607>
DStem: 322 337 443 437 272 100 372 100
Fore
443 437 m 1
 372 100 l 1
 493 100 l 2
 513 100 520 99 528 96 c 0
 541 92 550 76 550 60 c 0
 550 44 541 27 527 15 c 0
 513 4 500 0 472 0 c 2
 129 0 l 2
 88 0 72 11 72 40 c 0
 72 56 81 73 95 85 c 0
 110 98 118 100 150 100 c 2
 272 100 l 1
 322 337 l 1
 244 337 l 2
 202 337 186 348 186 377 c 0
 186 393 195 411 209 422 c 0
 224 435 233 437 265 437 c 2
 443 437 l 1
318 656 m 0
 346 656 367 635 367 607 c 0
 367 569 331 534 293 534 c 0
 268 534 245 557 245 583 c 0
 245 619 282 656 318 656 c 0
526 656 m 0
 554 656 575 635 575 607 c 0
 575 569 539 534 501 534 c 0
 476 534 453 557 453 583 c 0
 453 619 490 656 526 656 c 0
EndSplineSet
MinimumDistance: x22,-1 
EndChar
StartChar: eth
Encoding: 240 240
Width: 600
Flags: HMW
HStem: -16 100<281.5 340> 350 93<340.5 406.5>
VStem: 83 104<159 198> 504 113<268 270.5>
Fore
542 583 m 2
 491 558 l 1
 528 528 543 512 562 486 c 0
 598 436 617 375 617 312 c 0
 617 224 585 137 533 84 c 0
 473 23 382 -16 298 -16 c 0
 173 -16 83 62 83 170 c 0
 83 226 112 292 159 343 c 0
 216 406 299 443 382 443 c 0
 431 443 459 433 514 396 c 1
 486 446 445 490 404 518 c 1
 301 468 l 2
 280 457 276 456 267 456 c 0
 253 456 244 467 244 484 c 0
 244 503 249 509 274 522 c 2
 331 551 l 1
 322 555 315 559 312 560 c 0
 303 565 296 568 296 568 c 1
 280 573 l 2
 267 578 260 586 260 597 c 0
 260 619 284 640 308 640 c 0
 331 640 360 630 401 609 c 2
 426 596 l 1
 512 637 l 2
 525 643 537 646 547 646 c 0
 562 646 572 635 572 620 c 0
 572 605 561 592 542 583 c 2
374 350 m 0
 278 350 187 271 187 188 c 0
 187 130 245 84 318 84 c 0
 374 84 429 108 469 149 c 0
 491 172 504 206 504 238 c 0
 504 303 450 350 374 350 c 0
EndSplineSet
EndChar
StartChar: ntilde
Encoding: 241 241
Width: 600
Flags: W
HStem: 0 100<88 117 218 223 415 432> 349.998 100.002<394 428> 417 20G<194 288> 523.657 68.3426<491 493> 587 68.1229<346 353>
VStem: 33.0117 245.988<40 60> 359.012 223.988<40 60> 471.991 103.009<301 328>
DStem: 167 337 255 282 117 100 217 100 469 278 570 282 432 100 531 100
Fore
345 587 m 0
 327 587 318 581 279 540 c 0
 270 531 261 526 251 526 c 0
 237 526 226 536 226 549 c 0
 226 565 239 585 265 610 c 0
 296 640 329 656 358 656 c 0
 381 656 397 648 441 618 c 0
 469 598 481 592 492 592 c 0
 508 592 513 596 545 631 c 0
 557 645 576 656 586 656 c 0
 600 656 613 645 613 633 c 0
 613 621 603 605 582 583 c 0
 542 540 513 523 480 523 c 0
 459 523 427 538 391 566 c 0
 368 583 359 587 345 587 c 0
288 437 m 1
 278 389 l 1
 336 435 373 450 428 450 c 0
 516 450 575 401 575 328 c 0
 575 312 573 298 570 282 c 1
 531 100 l 1
 566 100 583 87 583 60 c 0
 583 44 574 27 560 15 c 0
 546 3 533 0 505 0 c 2
 416 0 l 2
 375 0 359 11 359 40 c 0
 359 56 368 73 382 85 c 0
 396 97 407 100 432 100 c 1
 469 278 l 2
 471 287 472 294 472 301 c 0
 472 333 444 350 394 350 c 0
 348 350 313 333 255 282 c 1
 217 100 l 1
 223 100 l 2
 243 100 249 99 257 96 c 0
 270 91 279 76 279 60 c 0
 279 44 270 27 256 15 c 0
 242 3 230 0 201 0 c 2
 89 0 l 2
 49 0 33 11 33 40 c 0
 33 56 42 73 56 85 c 0
 70 97 80 100 111 100 c 2
 117 100 l 1
 167 337 l 1
 132 337 115 350 115 377 c 0
 115 393 124 411 138 422 c 0
 153 434 163 437 194 437 c 2
 288 437 l 1
EndSplineSet
MinimumDistance: x17,-1 
EndChar
StartChar: ograve
Encoding: 242 242
Width: 600
Flags: HMW
HStem: -16 100<279.5 368.5> 350 99
VStem: 85 101 507 101
Fore
399 450 m 0
 523 450 609 372 609 260 c 0
 609 115 460 -16 297 -16 c 0
 169 -16 84 60 84 174 c 0
 84 231 111 295 158 346 c 0
 216 410 308 450 399 450 c 0
376 350 m 0
 274 350 186 277 186 192 c 0
 186 129 241 84 318 84 c 0
 419 84 507 158 507 242 c 0
 507 305 452 350 376 350 c 0
361 680 m 2
 471 569 l 1
 482 559 487 549 487 540 c 0
 487 517 464 496 441 496 c 0
 432 496 425 500 413 512 c 2
 303 624 l 1
 292 634 287 644 287 652 c 0
 287 675 309 696 333 696 c 0
 343 696 349 693 361 680 c 2
EndSplineSet
EndChar
StartChar: oacute
Encoding: 243 243
Width: 600
Flags: HMW
HStem: -16 100<279.5 368.5> 350 99
VStem: 85 101 507 101
Fore
399 450 m 0
 523 450 609 372 609 260 c 0
 609 115 460 -16 297 -16 c 0
 169 -16 84 60 84 174 c 0
 84 231 111 295 158 346 c 0
 216 410 308 450 399 450 c 0
376 350 m 0
 274 350 186 277 186 192 c 0
 186 129 241 84 318 84 c 0
 419 84 507 158 507 242 c 0
 507 305 452 350 376 350 c 0
564 624 m 2
 406 512 l 2
 388 499 381 496 371 496 c 0
 353 496 341 508 341 526 c 0
 341 541 351 554 372 569 c 2
 530 680 l 2
 548 693 554 696 565 696 c 0
 583 696 595 684 595 667 c 0
 595 652 586 639 564 624 c 2
EndSplineSet
EndChar
StartChar: ocircumflex
Encoding: 244 244
Width: 600
Flags: HMW
HStem: -16 100<279.5 368.5> 350 99
VStem: 85 101 507 101
Fore
399 450 m 0
 523 450 609 372 609 260 c 0
 609 115 460 -16 297 -16 c 0
 169 -16 84 60 84 174 c 0
 84 231 111 295 158 346 c 0
 216 410 308 450 399 450 c 0
376 350 m 0
 274 350 186 277 186 192 c 0
 186 129 241 84 318 84 c 0
 419 84 507 158 507 242 c 0
 507 305 452 350 376 350 c 0
430 607 m 1
 296 510 l 2
 283 501 274 497 265 497 c 0
 249 497 237 509 237 525 c 0
 237 542 242 548 269 567 c 2
 449 696 l 1
 573 567 l 2
 589 551 590 550 590 540 c 0
 590 518 569 497 547 497 c 0
 538 497 530 501 522 510 c 2
 430 607 l 1
EndSplineSet
EndChar
StartChar: otilde
Encoding: 245 245
Width: 600
Flags: W
HStem: -15.9934 99.9934<299 320> 350 99.0058<374 388> 523.192 68.8079<500 507> 587 68.1179<360 361>
VStem: 84.7767 101.223<191 193> 507 101.059<240 256>
Fore
399 450 m 0
 523 450 609 372 609 260 c 0
 609 115 460 -16 297 -16 c 0
 169 -16 84 60 84 174 c 0
 84 231 111 295 158 346 c 0
 216 410 308 450 399 450 c 0
376 350 m 0
 274 350 186 277 186 192 c 0
 186 129 241 84 318 84 c 0
 419 84 507 158 507 242 c 0
 507 305 452 350 376 350 c 0
599 656 m 0
 613 656 626 645 626 633 c 0
 626 621 617 606 597 584 c 0
 556 540 527 523 494 523 c 0
 472 523 442 538 404 566 c 0
 381 583 373 587 359 587 c 0
 341 587 332 580 294 541 c 0
 284 530 275 526 265 526 c 0
 251 526 240 536 240 549 c 0
 240 565 253 585 280 611 c 0
 311 640 343 656 372 656 c 0
 394 656 411 648 454 618 c 0
 483 598 495 592 506 592 c 0
 521 592 526 595 554 626 c 0
 572 646 587 656 599 656 c 0
EndSplineSet
EndChar
StartChar: odieresis
Encoding: 246 246
Width: 600
Flags: W
HStem: -15.9934 99.9934<299 320> 350 99.0834<375 388> 534.008 119.992<309 335 517 543>
VStem: 84.7767 101.223<191 193> 261.009 122.991<582 606> 469.009 122.991<582 606> 507 101.059<240 256>
Fore
399 450 m 0
 523 450 609 372 609 260 c 0
 609 115 460 -16 297 -16 c 0
 169 -16 84 60 84 174 c 0
 84 231 111 295 158 346 c 0
 216 410 308 450 399 450 c 0
376 350 m 0
 274 350 186 277 186 192 c 0
 186 129 241 84 318 84 c 0
 419 84 507 158 507 242 c 0
 507 305 452 350 376 350 c 0
335 654 m 0
 364 654 384 634 384 606 c 0
 384 569 348 534 309 534 c 0
 282 534 261 555 261 582 c 0
 261 618 298 654 335 654 c 0
543 654 m 0
 572 654 592 634 592 606 c 0
 592 569 556 534 517 534 c 0
 490 534 469 555 469 582 c 0
 469 618 506 654 543 654 c 0
EndSplineSet
EndChar
StartChar: divide
Encoding: 247 247
Width: 600
Flags: HMW
HStem: 28 132<309.5 331.5> 230 100<179 541> 401 130
VStem: 244 153<85.5 102.5>
Fore
179 330 m 2
 562 330 l 2
 584 330 588 330 597 326 c 0
 610 321 619 307 619 290 c 0
 619 274 610 257 596 245 c 0
 582 233 570 230 541 230 c 2
 158 230 l 2
 117 230 101 241 101 270 c 0
 101 286 110 304 124 316 c 0
 139 328 148 330 179 330 c 2
335 160 m 0
 375 160 397 141 397 108 c 0
 397 63 357 28 306 28 c 0
 267 28 244 47 244 80 c 0
 244 125 284 160 335 160 c 0
413 532 m 0
 454 532 476 513 476 480 c 0
 476 435 436 400 385 400 c 0
 346 400 323 419 323 452 c 0
 323 496 363 532 413 532 c 0
EndSplineSet
EndChar
StartChar: oslash
Encoding: 248 248
Width: 600
Flags: HMW
HStem: -16 100<306.5 367> 350 100<324 383.5>
VStem: 83 102<184.5 234> 507 101
Fore
634 402 m 2
 583 359 l 1
 600 329 609 297 609 260 c 0
 609 116 460 -16 297 -16 c 0
 251 -16 211 -6 174 14 c 1
 106 -44 l 2
 82 -65 71 -70 56 -70 c 0
 33 -70 17 -54 17 -32 c 0
 17 -13 25 -1 52 22 c 2
 111 72 l 1
 92 103 83 136 83 174 c 0
 83 317 232 450 392 450 c 0
 437 450 491 437 521 419 c 1
 580 468 l 2
 604 489 614 494 630 494 c 0
 653 494 669 478 669 456 c 0
 669 437 661 424 634 402 c 2
496 286 m 1
 266 91 l 1
 283 86 297 84 316 84 c 0
 418 84 507 157 507 241 c 0
 507 258 504 271 496 286 c 1
197 145 m 1
 430 342 l 1
 410 347 393 350 374 350 c 0
 274 350 185 276 185 192 c 0
 185 177 189 161 197 145 c 1
EndSplineSet
EndChar
StartChar: ugrave
Encoding: 249 249
Width: 600
Flags: HMW
HStem: 0 21<410 504 410 410> 338 99<468 482>
VStem: 124 102
Fore
603 437 m 1
 531 100 l 1
 566 100 583 87 583 61 c 0
 583 44 574 26 559 15 c 1
 546 3 533 0 504 0 c 2
 410 0 l 1
 420 48 l 1
 360 1 326 -13 270 -13 c 0
 182 -13 123 36 123 110 c 0
 123 127 124 140 128 156 c 1
 166 338 l 1
 150 338 l 2
 110 338 94 349 94 378 c 0
 94 393 103 411 117 423 c 0
 131 434 141 437 172 437 c 2
 288 437 l 1
 229 159 l 1
 227 151 226 144 226 136 c 0
 226 105 253 87 301 87 c 0
 351 87 380 101 443 155 c 1
 482 338 l 1
 447 338 l 2
 406 338 390 349 390 377 c 0
 390 393 399 411 413 423 c 0
 428 434 437 437 468 437 c 2
 603 437 l 1
359 680 m 2
 469 569 l 1
 480 559 485 549 485 540 c 0
 485 517 462 496 439 496 c 0
 430 496 423 500 411 512 c 2
 301 624 l 1
 290 634 285 644 285 652 c 0
 285 675 307 696 331 696 c 0
 341 696 347 693 359 680 c 2
EndSplineSet
EndChar
StartChar: uacute
Encoding: 250 250
Width: 600
Flags: HMW
HStem: 0 21<410 504 410 410> 338 99<468 482>
VStem: 124 102
Fore
603 437 m 1
 531 100 l 1
 566 100 583 87 583 61 c 0
 583 44 574 26 559 15 c 1
 546 3 533 0 504 0 c 2
 410 0 l 1
 420 48 l 1
 360 1 326 -13 270 -13 c 0
 182 -13 123 36 123 110 c 0
 123 127 124 140 128 156 c 1
 166 338 l 1
 150 338 l 2
 110 338 94 349 94 378 c 0
 94 393 103 411 117 423 c 0
 131 434 141 437 172 437 c 2
 288 437 l 1
 229 159 l 1
 227 151 226 144 226 136 c 0
 226 105 253 87 301 87 c 0
 351 87 380 101 443 155 c 1
 482 338 l 1
 447 338 l 2
 406 338 390 349 390 377 c 0
 390 393 399 411 413 423 c 0
 428 434 437 437 468 437 c 2
 603 437 l 1
552 624 m 2
 394 512 l 2
 376 499 369 496 359 496 c 0
 341 496 329 508 329 526 c 0
 329 541 339 554 360 569 c 2
 518 680 l 2
 536 693 542 696 553 696 c 0
 571 696 583 684 583 667 c 0
 583 652 574 639 552 624 c 2
EndSplineSet
EndChar
StartChar: ucircumflex
Encoding: 251 251
Width: 600
Flags: HMW
HStem: 0 21<410 504 410 410> 338 99<468 482>
VStem: 124 102
Fore
603 437 m 1
 531 100 l 1
 566 100 583 87 583 61 c 0
 583 44 574 26 559 15 c 1
 546 3 533 0 504 0 c 2
 410 0 l 1
 420 48 l 1
 360 1 326 -13 270 -13 c 0
 182 -13 123 36 123 110 c 0
 123 127 124 140 128 156 c 1
 166 338 l 1
 150 338 l 2
 110 338 94 349 94 378 c 0
 94 393 103 411 117 423 c 0
 131 434 141 437 172 437 c 2
 288 437 l 1
 229 159 l 1
 227 151 226 144 226 136 c 0
 226 105 253 87 301 87 c 0
 351 87 380 101 443 155 c 1
 482 338 l 1
 447 338 l 2
 406 338 390 349 390 377 c 0
 390 393 399 411 413 423 c 0
 428 434 437 437 468 437 c 2
 603 437 l 1
425 607 m 1
 291 510 l 2
 278 501 269 497 260 497 c 0
 244 497 232 509 232 525 c 0
 232 542 237 548 264 567 c 2
 444 696 l 1
 568 567 l 2
 584 551 585 550 585 540 c 0
 585 518 564 497 542 497 c 0
 533 497 525 501 517 510 c 2
 425 607 l 1
EndSplineSet
EndChar
StartChar: udieresis
Encoding: 252 252
Width: 600
Flags: HMW
HStem: 0 21<410 504 410 410> 338 99<468 482> 534 120<311.5 323.5 519.5 531.5>
VStem: 124 102 256 123<587.5 600> 464 123<587.5 600>
Fore
603 437 m 1
 531 100 l 1
 566 100 583 87 583 61 c 0
 583 44 574 26 559 15 c 1
 546 3 533 0 504 0 c 2
 410 0 l 1
 420 48 l 1
 360 1 326 -13 270 -13 c 0
 182 -13 123 36 123 110 c 0
 123 127 124 140 128 156 c 1
 166 338 l 1
 150 338 l 2
 110 338 94 349 94 378 c 0
 94 393 103 411 117 423 c 0
 131 434 141 437 172 437 c 2
 288 437 l 1
 229 159 l 1
 227 151 226 144 226 136 c 0
 226 105 253 87 301 87 c 0
 351 87 380 101 443 155 c 1
 482 338 l 1
 447 338 l 2
 406 338 390 349 390 377 c 0
 390 393 399 411 413 423 c 0
 428 434 437 437 468 437 c 2
 603 437 l 1
330 654 m 0
 359 654 379 634 379 606 c 0
 379 569 343 534 304 534 c 0
 277 534 256 555 256 582 c 0
 256 618 293 654 330 654 c 0
538 654 m 0
 567 654 587 634 587 606 c 0
 587 569 551 534 512 534 c 0
 485 534 464 555 464 582 c 0
 464 618 501 654 538 654 c 0
EndSplineSet
EndChar
StartChar: yacute
Encoding: 253 253
Width: 600
Flags: HMW
HStem: -205 100<65 165> 337 100<255 255 599 599>
VStem: 435 227<381 385>
Fore
243 3 m 1
 142 337 l 1
 115 341 102 353 102 377 c 0
 102 393 111 411 125 422 c 0
 140 434 149 437 180 437 c 2
 270 437 l 2
 290 437 296 436 304 433 c 0
 317 429 326 414 326 398 c 0
 326 362 297 338 255 337 c 1
 323 114 l 1
 489 337 l 1
 484 337 l 2
 452 337 435 351 435 377 c 0
 435 393 444 411 458 422 c 0
 472 434 482 437 513 437 c 2
 605 437 l 2
 625 437 632 436 640 433 c 0
 653 429 662 414 662 397 c 0
 662 365 636 341 599 337 c 1
 274 -105 l 1
 279 -105 l 2
 298 -105 306 -106 314 -109 c 0
 327 -113 336 -128 336 -144 c 0
 336 -161 327 -178 313 -190 c 0
 299 -202 287 -205 258 -205 c 2
 44 -205 l 2
 3 -205 -13 -194 -13 -165 c 0
 -13 -149 -4 -132 10 -120 c 0
 25 -108 34 -105 65 -105 c 2
 165 -105 l 1
 243 3 l 1
585 624 m 2
 427 512 l 2
 409 499 402 496 392 496 c 0
 374 496 362 508 362 526 c 0
 362 541 372 554 393 569 c 2
 551 680 l 2
 569 693 575 696 586 696 c 0
 604 696 616 684 616 667 c 0
 616 652 607 639 585 624 c 2
EndSplineSet
EndChar
StartChar: thorn
Encoding: 254 254
Width: 600
Flags: HMW
HStem: -205 100<36 52 152 188> 10 100<325 366.5> 350 99 524 99
VStem: -42 308 522 100
Fore
188 66 m 1
 152 -105 l 1
 210 -105 l 2
 228 -105 236 -106 244 -109 c 0
 257 -113 266 -128 266 -144 c 0
 266 -161 257 -178 243 -190 c 0
 229 -202 218 -205 188 -205 c 2
 14 -205 l 2
 -26 -205 -42 -194 -42 -165 c 0
 -42 -149 -33 -132 -19 -120 c 0
 -5 -108 5 -105 36 -105 c 2
 52 -105 l 1
 185 524 l 1
 169 524 l 2
 128 524 113 535 113 564 c 0
 113 580 122 597 136 609 c 0
 150 621 160 624 191 624 c 2
 307 624 l 1
 257 392 l 1
 315 434 361 450 423 450 c 0
 545 450 623 379 623 269 c 0
 623 127 490 10 329 10 c 0
 272 10 231 27 188 66 c 1
398 350 m 0
 301 350 225 290 221 211 c 0
 220 186 232 157 251 139 c 0
 273 120 304 110 346 110 c 0
 387 110 423 120 453 139 c 0
 494 166 522 211 522 252 c 0
 522 312 473 350 398 350 c 0
EndSplineSet
EndChar
StartChar: ydieresis
Encoding: 255 255
Width: 600
Flags: W
HStem: -205 100<43 165 275 280> 337 100<256 263> 534.008 119.992<309 335 517 543>
VStem: -12.9883 348.988<-165 -144> 102.012 223.988<377 398> 261.009 122.991<582 606> 435.012 226.988<377 397> 469.009 122.991<582 606>
DStem: 142 337 255 337 243 3 323 114 243 3 599 337 165 -105 274 -105 489 337 599 337 323 114 274 -105
Fore
243 3 m 1
 142 337 l 1
 115 341 102 353 102 377 c 0
 102 393 111 411 125 422 c 0
 140 434 149 437 180 437 c 2
 270 437 l 2
 290 437 296 436 304 433 c 0
 317 429 326 414 326 398 c 0
 326 362 297 338 255 337 c 1
 323 114 l 1
 489 337 l 1
 484 337 l 2
 452 337 435 351 435 377 c 0
 435 393 444 411 458 422 c 0
 472 434 482 437 513 437 c 2
 605 437 l 2
 625 437 632 436 640 433 c 0
 653 429 662 414 662 397 c 0
 662 365 636 341 599 337 c 1
 274 -105 l 1
 279 -105 l 2
 298 -105 306 -106 314 -109 c 0
 327 -113 336 -128 336 -144 c 0
 336 -161 327 -178 313 -190 c 0
 299 -202 287 -205 258 -205 c 2
 44 -205 l 2
 3 -205 -13 -194 -13 -165 c 0
 -13 -149 -4 -132 10 -120 c 0
 25 -108 34 -105 65 -105 c 2
 165 -105 l 1
 243 3 l 1
335 654 m 0
 364 654 384 634 384 606 c 0
 384 569 348 534 309 534 c 0
 282 534 261 555 261 582 c 0
 261 618 298 654 335 654 c 0
543 654 m 0
 572 654 592 634 592 606 c 0
 592 569 556 534 517 534 c 0
 490 534 469 555 469 582 c 0
 469 618 506 654 543 654 c 0
EndSplineSet
MinimumDistance: x18,-1 
EndChar
StartChar: Amacron
Encoding: 256 256
Width: 600
Flags: HMW
HStem: 0 100<52.5 68 176 178 438 461> 158 100<273 430> 483 100<262 304> 696 80<296 523>
VStem: 360 273
Fore
450 158 m 1
 212 158 l 1
 176 100 l 1
 199 100 l 2
 220 100 226 99 234 96 c 0
 247 92 256 76 256 60 c 0
 256 44 247 27 233 15 c 0
 219 3 207 0 178 0 c 2
 46 0 l 2
 5 0 -11 11 -11 40 c 0
 -11 56 -2 74 12 85 c 0
 27 97 37 100 68 100 c 1
 304 483 l 1
 241 483 l 2
 200 483 184 494 184 523 c 0
 184 539 193 557 207 569 c 0
 222 581 230 583 262 583 c 2
 478 583 l 1
 575 100 l 1
 595 100 602 99 611 96 c 0
 624 91 633 76 633 60 c 0
 633 44 624 26 610 15 c 0
 596 3 583 0 555 0 c 2
 416 0 l 2
 376 0 360 11 360 40 c 0
 360 56 369 73 383 85 c 0
 398 98 406 100 438 100 c 2
 461 100 l 1
 450 158 l 1
430 258 m 1
 392 450 l 1
 273 258 l 1
 430 258 l 1
296 776 m 2
 540 776 l 2
 573 776 585 767 585 743 c 0
 585 716 559 696 523 696 c 2
 279 696 l 2
 246 696 234 704 234 729 c 0
 234 757 259 776 296 776 c 2
EndSplineSet
EndChar
StartChar: amacron
Encoding: 257 257
Width: 600
Flags: HMW
HStem: 0 21<388 388 388 505> 196 92<295.5 337> 350 100<361.5 397.5> 546 80<311 538>
VStem: 65 109<108.5 112.5> 453 104
Fore
388 0 m 1
 393 23 l 1
 340 -2 278 -16 219 -16 c 0
 130 -16 65 32 65 98 c 0
 65 127 79 159 105 190 c 0
 158 253 244 288 346 288 c 0
 378 288 408 285 447 278 c 1
 452 301 l 2
 453 305 453 305 453 311 c 0
 453 338 426 350 369 350 c 0
 337 350 295 344 249 333 c 0
 232 329 218 327 207 327 c 0
 185 327 169 343 169 366 c 0
 169 388 182 408 202 417 c 0
 236 433 334 450 389 450 c 0
 493 450 557 407 557 337 c 0
 557 324 556 314 553 302 c 1
 510 100 l 1
 527 100 l 2
 547 100 553 99 561 96 c 0
 574 92 583 77 583 61 c 0
 583 44 574 27 560 15 c 0
 547 3 534 0 505 0 c 2
 388 0 l 1
418 135 m 1
 428 185 l 1
 390 192 354 196 320 196 c 0
 271 196 230 182 198 156 c 0
 182 142 174 130 174 118 c 0
 174 99 203 84 241 84 c 0
 296 84 355 101 418 135 c 1
311 626 m 2
 555 626 l 2
 588 626 600 617 600 593 c 0
 600 566 574 546 538 546 c 2
 294 546 l 2
 261 546 249 554 249 579 c 0
 249 607 274 626 311 626 c 2
EndSplineSet
EndChar
StartChar: Abreve
Encoding: 258 258
Width: 600
Flags: HMW
HStem: 0 100<52.5 68 176 178 438 461> 158 100<273 430> 483 100<262 304> 647 67<396 436>
VStem: -11 267 360 273
Fore
450 158 m 1
 212 158 l 1
 176 100 l 1
 199 100 l 2
 220 100 226 99 234 96 c 0
 247 92 256 76 256 60 c 0
 256 44 247 27 233 15 c 0
 219 3 207 0 178 0 c 2
 46 0 l 2
 5 0 -11 11 -11 40 c 0
 -11 56 -2 74 12 85 c 0
 27 97 37 100 68 100 c 1
 304 483 l 1
 241 483 l 2
 200 483 184 494 184 523 c 0
 184 539 193 557 207 569 c 0
 222 581 230 583 262 583 c 2
 478 583 l 1
 575 100 l 1
 595 100 602 99 611 96 c 0
 624 91 633 76 633 60 c 0
 633 44 624 26 610 15 c 0
 596 3 583 0 555 0 c 2
 416 0 l 2
 376 0 360 11 360 40 c 0
 360 56 369 73 383 85 c 0
 398 98 406 100 438 100 c 2
 461 100 l 1
 450 158 l 1
430 258 m 1
 392 450 l 1
 273 258 l 1
 430 258 l 1
289 831 m 0
 309 831 314 824 317 791 c 0
 320 759 324 751 341 738 c 0
 360 722 383 714 409 714 c 0
 463 714 513 746 529 791 c 0
 540 821 551 831 572 831 c 0
 587 831 597 820 597 803 c 0
 597 729 492 647 396 647 c 0
 313 647 246 705 246 777 c 0
 246 808 264 831 289 831 c 0
EndSplineSet
EndChar
StartChar: abreve
Encoding: 259 259
Width: 600
Flags: HMW
HStem: 0 21<388 388 388 505> 196 92<295.5 337> 350 100<361.5 397.5> 503 68<393 439>
VStem: 65 109<108.5 112.5> 262 69 453 104
Fore
388 0 m 1
 393 23 l 1
 340 -2 278 -16 219 -16 c 0
 130 -16 65 32 65 98 c 0
 65 127 79 159 105 190 c 0
 158 253 244 288 346 288 c 0
 378 288 408 285 447 278 c 1
 452 301 l 2
 453 305 453 305 453 311 c 0
 453 338 426 350 369 350 c 0
 337 350 295 344 249 333 c 0
 232 329 218 327 207 327 c 0
 185 327 169 343 169 366 c 0
 169 388 182 408 202 417 c 0
 236 433 334 450 389 450 c 0
 493 450 557 407 557 337 c 0
 557 324 556 314 553 302 c 1
 510 100 l 1
 527 100 l 2
 547 100 553 99 561 96 c 0
 574 92 583 77 583 61 c 0
 583 44 574 27 560 15 c 0
 547 3 534 0 505 0 c 2
 388 0 l 1
418 135 m 1
 428 185 l 1
 390 192 354 196 320 196 c 0
 271 196 230 182 198 156 c 0
 182 142 174 130 174 118 c 0
 174 99 203 84 241 84 c 0
 296 84 355 101 418 135 c 1
306 687 m 0
 324 687 331 677 330 650 c 0
 330 602 365 571 421 571 c 0
 476 571 525 601 544 647 c 0
 558 678 567 687 587 687 c 0
 604 687 614 677 614 660 c 0
 614 640 599 609 578 584 c 0
 534 533 471 503 407 503 c 0
 324 503 261 558 261 630 c 0
 261 664 279 687 306 687 c 0
EndSplineSet
EndChar
StartChar: Aogonek
Encoding: 260 260
Width: 600
Flags: W
HStem: -207.22 77.9758<479 480> 0 100<45 68 177 200 415 460> 158 100<274 429> 483 100<240 303>
VStem: -10.9884 266.988<40 60> 360.012 272.988<40 60> 387 206<-144 -131>
DStem: 304 483 392 450 68 100 273 258 304 483 212 158 68 100 176 100 392 450 478 583 430 258 575 100
Fore
478 583 m 1
 575 100 l 1
 595 100 602 99 611 96 c 0
 624 91 633 76 633 60 c 0
 633 33 618 16 578 -2 c 0
 515 -30 469 -78 469 -114 c 0
 469 -125 474 -130 486 -130 c 0
 498 -130 505 -128 539 -114 c 0
 549 -109 555 -108 562 -108 c 0
 581 -108 593 -121 593 -140 c 0
 593 -154 584 -169 570 -178 c 0
 544 -195 497 -208 464 -208 c 0
 416 -208 387 -180 387 -135 c 0
 387 -93 408 -56 446 -31 c 0
 462 -21 473 -14 500 0 c 1
 416 0 l 2
 376 0 360 11 360 40 c 0
 360 56 369 73 383 85 c 0
 398 98 406 100 438 100 c 2
 461 100 l 1
 450 158 l 1
 212 158 l 1
 176 100 l 1
 199 100 l 2
 220 100 226 99 234 96 c 0
 247 92 256 76 256 60 c 0
 256 44 247 27 233 15 c 0
 219 3 207 0 178 0 c 2
 46 0 l 2
 5 0 -11 11 -11 40 c 0
 -11 56 -2 74 12 85 c 0
 27 97 37 100 68 100 c 1
 304 483 l 1
 241 483 l 2
 200 483 184 494 184 523 c 0
 184 539 193 557 207 569 c 0
 222 581 230 583 262 583 c 2
 478 583 l 1
430 258 m 1
 392 450 l 1
 273 258 l 1
 430 258 l 1
EndSplineSet
MinimumDistance: x9,-1 
EndChar
StartChar: aogonek
Encoding: 261 261
Width: 600
Flags: W
HStem: -207.316 76.2457<427 430> -15.952 99.952<225 243> 196 92<319 348> 350 100<368 394>
VStem: 65.0055 108.994<98 118> 335 211<-144 -132> 452.987 104.013<311 337>
DStem: 452 301 553 302 447 278 510 100
Fore
510 100 m 1
 527 100 l 2
 547 100 553 99 561 96 c 0
 574 92 583 77 583 61 c 0
 583 38 570 21 538 0 c 0
 469 -43 449 -59 431 -84 c 0
 421 -97 416 -109 416 -117 c 0
 416 -127 423 -132 435 -132 c 0
 448 -132 460 -128 491 -114 c 0
 502 -109 508 -108 515 -108 c 0
 533 -108 546 -120 546 -138 c 0
 546 -153 536 -169 522 -178 c 0
 494 -195 448 -208 412 -208 c 0
 364 -208 335 -183 335 -142 c 0
 335 -107 353 -70 383 -41 c 0
 399 -25 406 -21 442 0 c 1
 388 0 l 1
 393 23 l 1
 340 -2 278 -16 219 -16 c 0
 130 -16 65 32 65 98 c 0
 65 127 79 159 105 190 c 0
 158 253 244 288 346 288 c 0
 378 288 408 285 447 278 c 1
 452 301 l 2
 453 305 453 305 453 311 c 0
 453 338 426 350 369 350 c 0
 337 350 295 344 249 333 c 0
 232 329 218 327 207 327 c 0
 185 327 169 343 169 366 c 0
 169 388 182 408 202 417 c 0
 236 433 334 450 389 450 c 0
 493 450 557 407 557 337 c 0
 557 324 556 314 553 302 c 1
 510 100 l 1
418 135 m 1
 428 185 l 1
 390 192 354 196 320 196 c 0
 271 196 230 182 198 156 c 0
 182 142 174 130 174 118 c 0
 174 99 203 84 241 84 c 0
 296 84 355 101 418 135 c 1
EndSplineSet
MinimumDistance: x31,-1 
EndChar
StartChar: Cacute
Encoding: 262 262
Width: 600
Flags: HMW
HStem: -14 100<296 369> 497 100<364 448.5>
VStem: 80 102<174.5 204>
Fore
567 563 m 2
 576 559 l 1
 593 576 606 583 623 583 c 0
 646 583 663 567 663 545 c 0
 663 538 663 534 659 517 c 1
 641 433 l 1
 635 407 632 398 622 388 c 0
 610 375 593 367 577 367 c 0
 553 367 537 383 538 406 c 1
 539 425 l 2
 541 463 482 497 415 497 c 0
 313 497 222 420 200 315 c 1
 186 251 l 2
 183 238 182 225 182 214 c 0
 182 135 245 86 347 86 c 0
 393 86 436 95 463 109 c 0
 475 116 476 116 508 143 c 0
 522 154 534 159 547 159 c 0
 570 159 588 141 588 118 c 0
 588 99 576 80 550 59 c 0
 493 11 414 -14 324 -14 c 0
 176 -14 80 69 80 195 c 0
 80 213 82 231 86 249 c 2
 100 315 l 2
 134 475 277 597 432 597 c 0
 484 597 517 589 567 563 c 2
609 767 m 1
 459 656 l 1
 433 640 433 640 424 640 c 0
 407 640 394 652 394 669 c 0
 394 684 402 696 424 712 c 2
 575 824 l 2
 590 835 599 839 609 839 c 0
 627 839 640 827 640 810 c 0
 640 796 632 783 616 772 c 2
 609 767 l 1
EndSplineSet
EndChar
StartChar: cacute
Encoding: 263 263
Width: 600
Flags: HMW
HStem: -16 100<296.5 367> 350 100<360.5 407>
VStem: 94 101
Fore
622 384 m 1
 606 307 l 1
 600 282 596 271 586 261 c 0
 574 249 557 241 541 241 c 0
 529 241 515 247 508 255 c 0
 502 262 501 268 501 289 c 0
 501 306 497 316 486 325 c 0
 463 341 429 350 385 350 c 0
 321 350 271 327 234 282 c 0
 210 252 195 213 195 178 c 0
 195 115 245 84 348 84 c 0
 428 84 464 94 512 128 c 0
 523 136 533 140 545 140 c 0
 568 140 585 123 585 99 c 0
 585 79 570 57 544 39 c 0
 491 2 417 -16 317 -16 c 0
 244 -16 189 -2 154 26 c 0
 115 56 93 104 93 156 c 0
 93 223 124 297 174 351 c 0
 234 416 314 450 407 450 c 0
 463 450 509 440 544 420 c 1
 554 441 567 450 588 450 c 0
 612 450 626 436 626 412 c 0
 626 405 625 400 622 384 c 1
585 624 m 2
 427 512 l 2
 409 499 402 496 392 496 c 0
 374 496 362 508 362 526 c 0
 362 541 372 554 393 569 c 2
 551 680 l 2
 569 693 575 696 586 696 c 0
 604 696 616 684 616 667 c 0
 616 652 607 639 585 624 c 2
EndSplineSet
EndChar
StartChar: Ccaron
Encoding: 268 268
Width: 600
Flags: HMW
HStem: -14 100<296 369> 497 100<364 448.5>
VStem: 80 102<174.5 204>
Fore
567 563 m 2
 576 559 l 1
 593 576 606 583 623 583 c 0
 646 583 663 567 663 545 c 0
 663 538 663 534 659 517 c 1
 641 433 l 1
 635 407 632 398 622 388 c 0
 610 375 593 367 577 367 c 0
 553 367 537 383 538 406 c 1
 539 425 l 2
 541 463 482 497 415 497 c 0
 313 497 222 420 200 315 c 1
 186 251 l 2
 183 238 182 225 182 214 c 0
 182 135 245 86 347 86 c 0
 393 86 436 95 463 109 c 0
 475 116 476 116 508 143 c 0
 522 154 534 159 547 159 c 0
 570 159 588 141 588 118 c 0
 588 99 576 80 550 59 c 0
 493 11 414 -14 324 -14 c 0
 176 -14 80 69 80 195 c 0
 80 213 82 231 86 249 c 2
 100 315 l 2
 134 475 277 597 432 597 c 0
 484 597 517 589 567 563 c 2
451 729 m 1
 578 826 l 2
 589 834 600 839 609 839 c 0
 623 839 637 825 637 811 c 0
 637 796 630 785 612 773 c 2
 605 768 l 1
 432 640 l 1
 304 768 l 2
 290 782 287 787 287 797 c 0
 287 816 311 839 331 839 c 0
 339 839 346 835 355 826 c 2
 451 729 l 1
EndSplineSet
EndChar
StartChar: ccaron
Encoding: 269 269
Width: 600
Flags: HMW
HStem: -16 100<296.5 367> 350 100<360.5 407>
VStem: 94 101
Fore
622 384 m 1
 606 307 l 1
 600 282 596 271 586 261 c 0
 574 249 557 241 541 241 c 0
 529 241 515 247 508 255 c 0
 502 262 501 268 501 289 c 0
 501 306 497 316 486 325 c 0
 463 341 429 350 385 350 c 0
 321 350 271 327 234 282 c 0
 210 252 195 213 195 178 c 0
 195 115 245 84 348 84 c 0
 428 84 464 94 512 128 c 0
 523 136 533 140 545 140 c 0
 568 140 585 123 585 99 c 0
 585 79 570 57 544 39 c 0
 491 2 417 -16 317 -16 c 0
 244 -16 189 -2 154 26 c 0
 115 56 93 104 93 156 c 0
 93 223 124 297 174 351 c 0
 234 416 314 450 407 450 c 0
 463 450 509 440 544 420 c 1
 554 441 567 450 588 450 c 0
 612 450 626 436 626 412 c 0
 626 405 625 400 622 384 c 1
435 586 m 1
 568 682 l 2
 582 692 590 696 599 696 c 0
 615 696 627 684 627 667 c 0
 627 654 620 643 606 632 c 0
 602 630 598 627 595 625 c 2
 417 497 l 1
 291 625 l 2
 275 642 274 643 274 653 c 0
 274 675 295 696 317 696 c 0
 327 696 332 693 342 682 c 2
 435 586 l 1
EndSplineSet
EndChar
StartChar: Dcaron
Encoding: 270 270
Width: 600
Flags: HMW
HStem: 0 100<83.5 96 196 285> 483 100<277 277 277 387>
VStem: 520 101
Fore
96 100 m 1
 177 483 l 1
 142 483 126 496 126 523 c 0
 126 539 135 556 149 569 c 0
 164 581 172 583 204 583 c 2
 417 583 l 2
 539 583 622 497 622 369 c 0
 622 348 620 326 615 305 c 1
 605 258 l 1
 590 185 553 123 497 75 c 0
 437 23 371 0 285 0 c 2
 80 0 l 2
 39 0 23 12 23 40 c 0
 23 56 32 73 46 85 c 0
 60 97 71 100 96 100 c 1
196 100 m 1
 306 100 l 2
 366 100 401 112 440 144 c 0
 475 174 495 210 506 261 c 2
 516 307 l 2
 519 321 520 335 520 350 c 0
 520 392 503 434 475 457 c 0
 456 474 424 483 387 483 c 2
 277 483 l 1
 196 100 l 1
411 729 m 1
 538 826 l 2
 549 834 560 839 569 839 c 0
 583 839 597 825 597 811 c 0
 597 796 590 785 572 773 c 2
 565 768 l 1
 392 640 l 1
 264 768 l 2
 250 782 247 787 247 797 c 0
 247 816 271 839 291 839 c 0
 299 839 306 835 315 826 c 2
 411 729 l 1
EndSplineSet
EndChar
StartChar: dcaron
Encoding: 271 271
Width: 600
Flags: W
HStem: -13.979 99.979<282 304> 0 624<522.809 553> 0.0636306 99.9364<553 569> 351 100<353 377> 525 98.3094<526 542>
VStem: 74.221 103.609<168 193>
DStem: 543 525 664 624 517 401 553 100 769 615 819 572 665 487 716 445
Fore
664 624 m 1
 553 100 l 1
 569 100 l 2
 589 100 595 99 603 96 c 0
 616 92 625 77 625 60 c 0
 625 44 616 26 602 15 c 0
 588 3 577 0 547 0 c 2
 431 0 l 1
 439 35 l 1
 379 -1 336 -14 278 -14 c 0
 218 -14 170 0 137 28 c 0
 97 61 74 113 74 168 c 0
 74 236 105 308 156 360 c 0
 217 422 288 451 378 451 c 0
 437 451 481 435 517 401 c 1
 543 525 l 1
 527 525 l 2
 509 525 500 526 492 529 c 0
 479 533 470 548 470 565 c 0
 470 580 479 598 493 610 c 0
 508 622 517 624 548 624 c 2
 664 624 l 1
354 351 m 0
 297 351 250 329 214 286 c 0
 191 258 177 224 177 193 c 0
 177 126 224 86 302 86 c 0
 361 86 408 108 444 151 c 0
 467 179 481 213 481 244 c 0
 481 279 466 310 439 330 c 0
 421 344 392 351 354 351 c 0
819 572 m 1
 716 445 l 2
 702 428 688 420 673 420 c 0
 658 420 645 433 645 448 c 0
 645 460 650 469 665 487 c 2
 769 615 l 2
 782 632 796 639 811 639 c 0
 827 639 840 626 840 611 c 0
 840 598 836 590 825 578 c 2
 819 572 l 1
EndSplineSet
EndChar
StartChar: Dcroat
Encoding: 272 272
Width: 600
Flags: HMW
HStem: 0 100<83.5 96 196 285> 243 100<247 300> 483 100<277 277 277 387>
VStem: 62 316 520 101
Fore
126 243 m 1
 119 243 l 2
 78 243 62 254 62 283 c 0
 62 299 71 316 85 328 c 0
 100 341 108 343 140 343 c 2
 147 343 l 1
 177 483 l 1
 142 483 126 496 126 523 c 0
 126 539 135 556 149 569 c 0
 164 581 172 583 204 583 c 2
 417 583 l 2
 539 583 622 497 622 369 c 0
 622 348 620 326 615 305 c 1
 605 258 l 1
 590 185 553 123 497 75 c 0
 437 23 371 0 285 0 c 2
 80 0 l 2
 39 0 23 12 23 40 c 0
 23 56 32 73 46 85 c 0
 60 97 71 100 96 100 c 1
 126 243 l 1
226 243 m 1
 196 100 l 1
 306 100 l 2
 366 100 401 112 440 144 c 0
 475 174 495 210 506 261 c 2
 516 307 l 2
 519 321 520 335 520 350 c 0
 520 392 503 434 475 457 c 0
 456 474 424 483 387 483 c 2
 277 483 l 1
 247 343 l 1
 321 343 l 2
 341 343 348 342 356 339 c 0
 368 335 378 319 378 304 c 0
 378 287 369 269 355 258 c 0
 341 246 328 243 300 243 c 2
 226 243 l 1
EndSplineSet
EndChar
StartChar: dcroat
Encoding: 273 273
Width: 600
Flags: W
HStem: -13.979 99.979<282 304> 0.0636306 99.9364<553 569> 351 100<353 377> 410 214<619 640> 410.063 99.9369<640 656> 525 98.3094<526 542>
VStem: 74.221 103.609<168 193>
Fore
640 510 m 1
 655 510 l 2
 681 510 689 508 698 502 c 0
 706 496 712 482 712 472 c 0
 712 457 701 434 689 424 c 0
 675 413 664 410 634 410 c 2
 619 410 l 1
 553 100 l 1
 569 100 l 2
 589 100 595 99 603 96 c 0
 616 92 625 77 625 60 c 0
 625 44 616 26 602 15 c 0
 588 3 577 0 547 0 c 2
 431 0 l 1
 439 35 l 1
 379 -1 336 -14 278 -14 c 0
 218 -14 170 0 137 28 c 0
 97 61 74 113 74 168 c 0
 74 236 105 308 156 360 c 0
 217 422 288 451 378 451 c 0
 437 451 480 435 517 400 c 1
 543 525 l 1
 527 525 l 2
 509 525 500 526 492 529 c 0
 479 533 470 548 470 565 c 0
 470 580 479 598 493 610 c 0
 508 622 517 624 548 624 c 2
 664 624 l 1
 640 510 l 1
354 351 m 0
 297 351 250 329 214 286 c 0
 191 258 177 224 177 193 c 0
 177 126 224 86 302 86 c 0
 361 86 408 108 444 151 c 0
 467 179 481 213 481 244 c 0
 481 279 466 310 439 330 c 0
 421 344 392 351 354 351 c 0
EndSplineSet
MinimumDistance: x30,-1 
EndChar
StartChar: Emacron
Encoding: 274 274
Width: 600
Flags: W
HStem: 0 100<79 116 217 471> 0 219<542 550> 243 99<268 330> 243 340<246 267> 366 217<547 562> 483 99.2755<181 196 297 530> 696 80<311 556>
VStem: 254.544 349.856<729 743>
DStem: 197 483 297 483 116 100 267 342 197 483 453 349 116 100 428 236 197 483 246 243 116 100 216 100 531 483 652 583 520 433 620 433
Fore
246 243 m 1
 216 100 l 1
 471 100 l 1
 483 152 l 1
 488 180 492 188 502 198 c 0
 514 212 531 219 546 219 c 0
 569 219 587 203 587 182 c 0
 587 174 586 170 583 152 c 1
 550 0 l 1
 80 0 l 2
 40 0 23 12 23 40 c 0
 23 56 32 74 46 85 c 0
 61 98 70 100 101 100 c 2
 116 100 l 1
 197 483 l 1
 182 483 l 2
 141 483 125 494 125 523 c 0
 125 539 134 557 149 569 c 0
 163 581 172 583 204 583 c 2
 652 583 l 1
 620 433 l 2
 614 405 611 397 601 387 c 0
 589 374 572 366 556 366 c 0
 534 366 516 382 516 404 c 0
 516 410 517 420 520 433 c 2
 531 483 l 1
 297 483 l 1
 267 342 l 1
 352 342 l 1
 353 349 l 1
 359 378 362 385 372 395 c 0
 385 408 402 416 417 416 c 0
 440 416 457 400 457 378 c 0
 457 370 457 369 453 349 c 1
 428 236 l 2
 422 208 419 201 409 190 c 0
 397 178 380 170 365 170 c 0
 342 170 325 186 325 207 c 0
 325 214 326 222 329 236 c 1
 331 243 l 1
 246 243 l 1
316 776 m 2
 560 776 l 2
 593 776 605 767 605 743 c 0
 605 716 579 696 543 696 c 2
 299 696 l 2
 266 696 254 704 254 729 c 0
 254 757 279 776 316 776 c 2
EndSplineSet
EndChar
StartChar: emacron
Encoding: 275 275
Width: 600
Flags: HMW
HStem: -16 100<281 334> 172 88<200 495> 350 100<330 403> 546 80<311 538>
VStem: 249 351<579.5 593>
Fore
587 172 m 1
 178 172 l 1
 189 112 237 84 325 84 c 0
 369 84 398 89 493 112 c 0
 506 115 519 117 528 117 c 0
 551 117 566 101 566 79 c 0
 566 57 554 39 533 28 c 0
 490 5 374 -16 294 -16 c 0
 158 -16 74 55 74 169 c 0
 74 318 221 450 387 450 c 0
 517 450 600 375 600 259 c 0
 600 243 598 227 595 211 c 1
 587 172 l 1
200 260 m 1
 495 260 l 1
 490 314 439 350 367 350 c 0
 293 350 228 315 200 260 c 1
311 626 m 2
 555 626 l 2
 588 626 600 617 600 593 c 0
 600 566 574 546 538 546 c 2
 294 546 l 2
 261 546 249 554 249 579 c 0
 249 607 274 626 311 626 c 2
EndSplineSet
EndChar
StartChar: Edotaccent
Encoding: 278 278
Width: 600
Flags: W
HStem: 0 100<79 116 217 471> 0 219<535.937 550> 243 99<268 330> 243 340<246 267> 366 217<547 558> 483 99.2755<181 196 297 530> 671.008 121.992<419 444>
VStem: 371.009 121.991<720 744>
DStem: 197 483 297 483 116 100 267 342 197 483 453 349 116 100 428 236 197 483 246 243 116 100 216 100 531 483 652 583 520 433 620 433
Fore
246 243 m 1
 216 100 l 1
 471 100 l 1
 483 152 l 1
 488 180 492 188 502 198 c 0
 514 212 531 219 546 219 c 0
 569 219 587 203 587 182 c 0
 587 174 586 170 583 152 c 1
 550 0 l 1
 80 0 l 2
 40 0 23 12 23 40 c 0
 23 56 32 74 46 85 c 0
 61 98 70 100 101 100 c 2
 116 100 l 1
 197 483 l 1
 182 483 l 2
 141 483 125 494 125 523 c 0
 125 539 134 557 149 569 c 0
 163 581 172 583 204 583 c 2
 652 583 l 1
 620 433 l 2
 614 405 611 397 601 387 c 0
 589 374 572 366 556 366 c 0
 534 366 516 382 516 404 c 0
 516 410 517 420 520 433 c 2
 531 483 l 1
 297 483 l 1
 267 342 l 1
 352 342 l 1
 353 349 l 1
 359 378 362 385 372 395 c 0
 385 408 402 416 417 416 c 0
 440 416 457 400 457 378 c 0
 457 370 457 369 453 349 c 1
 428 236 l 2
 422 208 419 201 409 190 c 0
 397 178 380 170 365 170 c 0
 342 170 325 186 325 207 c 0
 325 214 326 222 329 236 c 1
 331 243 l 1
 246 243 l 1
444 793 m 0
 472 793 493 772 493 744 c 0
 493 706 457 671 419 671 c 0
 394 671 371 694 371 720 c 0
 371 756 408 793 444 793 c 0
EndSplineSet
EndChar
StartChar: edotaccent
Encoding: 279 279
Width: 600
Flags: HMW
HStem: -16 100<281 334> 172 88<200 495> 350 100<330 403> 534 120<420 432.5>
VStem: 365 123<587.5 600.5>
Fore
587 172 m 1
 178 172 l 1
 189 112 237 84 325 84 c 0
 369 84 398 89 493 112 c 0
 506 115 519 117 528 117 c 0
 551 117 566 101 566 79 c 0
 566 57 554 39 533 28 c 0
 490 5 374 -16 294 -16 c 0
 158 -16 74 55 74 169 c 0
 74 318 221 450 387 450 c 0
 517 450 600 375 600 259 c 0
 600 243 598 227 595 211 c 1
 587 172 l 1
200 260 m 1
 495 260 l 1
 490 314 439 350 367 350 c 0
 293 350 228 315 200 260 c 1
439 654 m 0
 468 654 488 634 488 606 c 0
 488 569 452 534 413 534 c 0
 386 534 365 555 365 582 c 0
 365 619 401 654 439 654 c 0
EndSplineSet
EndChar
StartChar: Eogonek
Encoding: 280 280
Width: 600
Flags: W
HStem: 0 100<79 116 217 463> 243 99<268 330> 243 340<246 267> 366 217<547 559> 483 99.2755<181 196 297 530>
VStem: 351 206<-144 -131>
DStem: 197 483 297 483 116 100 267 342 197 483 453 349 116 100 428 236 197 483 246 243 116 100 216 100 531 483 652 583 520 433 620 433
Fore
246 243 m 1
 216 100 l 1
 471 100 l 1
 483 152 l 1
 488 180 492 188 502 198 c 0
 514 212 531 219 546 219 c 0
 569 219 587 203 587 182 c 0
 587 174 586 170 583 152 c 1
 550 0 l 1
 509 -18 499 -24 474 -46 c 0
 445 -72 433 -92 433 -114 c 0
 433 -125 438 -130 450 -130 c 0
 462 -130 469 -128 503 -114 c 0
 513 -109 519 -108 526 -108 c 0
 545 -108 557 -121 557 -140 c 0
 557 -154 548 -169 534 -178 c 0
 508 -195 461 -208 428 -208 c 0
 380 -208 351 -180 351 -135 c 0
 351 -93 372 -56 410 -31 c 0
 426 -21 437 -14 464 0 c 1
 80 0 l 2
 40 0 23 12 23 40 c 0
 23 56 32 74 46 85 c 0
 61 98 70 100 101 100 c 2
 116 100 l 1
 197 483 l 1
 182 483 l 2
 141 483 125 494 125 523 c 0
 125 539 134 557 149 569 c 0
 163 581 172 583 204 583 c 2
 652 583 l 1
 620 433 l 2
 614 405 611 397 601 387 c 0
 589 374 572 366 556 366 c 0
 534 366 516 382 516 404 c 0
 516 410 517 420 520 433 c 2
 531 483 l 1
 297 483 l 1
 267 342 l 1
 352 342 l 1
 353 349 l 1
 359 378 362 385 372 395 c 0
 385 408 402 416 417 416 c 0
 440 416 457 400 457 378 c 0
 457 370 457 369 453 349 c 1
 428 236 l 2
 422 208 419 201 409 190 c 0
 397 178 380 170 365 170 c 0
 342 170 325 186 325 207 c 0
 325 214 326 222 329 236 c 1
 331 243 l 1
 246 243 l 1
EndSplineSet
EndChar
StartChar: eogonek
Encoding: 281 281
Width: 600
Flags: HMW
HStem: -16 100<281 301> 172 88<200 495> 350 100<330 403>
VStem: 262 211<-145.5 -129>
Fore
587 172 m 1
 178 172 l 1
 189 112 237 84 325 84 c 0
 369 84 398 89 493 112 c 0
 506 115 519 117 528 117 c 0
 551 117 566 101 566 79 c 0
 566 51 551 34 512 19 c 0
 422 -15 343 -79 343 -117 c 0
 343 -127 350 -132 362 -132 c 0
 375 -132 387 -128 418 -114 c 0
 429 -109 435 -108 442 -108 c 0
 460 -108 473 -120 473 -138 c 0
 473 -153 463 -169 449 -178 c 0
 421 -195 375 -208 339 -208 c 0
 291 -208 262 -183 262 -142 c 0
 262 -93 292 -48 346 -14 c 1
 322 -15 308 -16 294 -16 c 0
 158 -16 74 55 74 169 c 0
 74 318 221 450 387 450 c 0
 517 450 600 375 600 259 c 0
 600 243 598 227 595 211 c 1
 587 172 l 1
200 260 m 1
 495 260 l 1
 490 314 439 350 367 350 c 0
 293 350 228 315 200 260 c 1
EndSplineSet
EndChar
StartChar: Ecaron
Encoding: 282 282
Width: 600
Flags: W
HStem: 0 100<79 116 217 471> 0 219<535.937 550> 243 99<268 330> 243 340<246 267> 366 217<547 560> 483 99.2755<181 196 297 530>
DStem: 197 483 297 483 116 100 267 342 197 483 453 349 116 100 428 236 197 483 246 243 116 100 216 100 284 768 335 826 412 640 431 729 531 483 652 583 520 433 620 433 558 826 585 768 431 729 412 640
Fore
246 243 m 1
 216 100 l 1
 471 100 l 1
 483 152 l 1
 488 180 492 188 502 198 c 0
 514 212 531 219 546 219 c 0
 569 219 587 203 587 182 c 0
 587 174 586 170 583 152 c 1
 550 0 l 1
 80 0 l 2
 40 0 23 12 23 40 c 0
 23 56 32 74 46 85 c 0
 61 98 70 100 101 100 c 2
 116 100 l 1
 197 483 l 1
 182 483 l 2
 141 483 125 494 125 523 c 0
 125 539 134 557 149 569 c 0
 163 581 172 583 204 583 c 2
 652 583 l 1
 620 433 l 2
 614 405 611 397 601 387 c 0
 589 374 572 366 556 366 c 0
 534 366 516 382 516 404 c 0
 516 410 517 420 520 433 c 2
 531 483 l 1
 297 483 l 1
 267 342 l 1
 352 342 l 1
 353 349 l 1
 359 378 362 385 372 395 c 0
 385 408 402 416 417 416 c 0
 440 416 457 400 457 378 c 0
 457 370 457 369 453 349 c 1
 428 236 l 2
 422 208 419 201 409 190 c 0
 397 178 380 170 365 170 c 0
 342 170 325 186 325 207 c 0
 325 214 326 222 329 236 c 1
 331 243 l 1
 246 243 l 1
431 729 m 1
 558 826 l 2
 569 834 580 839 589 839 c 0
 603 839 617 825 617 811 c 0
 617 796 610 785 592 773 c 2
 585 768 l 1
 412 640 l 1
 284 768 l 2
 270 782 267 787 267 797 c 0
 267 816 291 839 311 839 c 0
 319 839 326 835 335 826 c 2
 431 729 l 1
EndSplineSet
EndChar
StartChar: ecaron
Encoding: 283 283
Width: 600
Flags: HMW
HStem: -16 100<281 334> 172 88<200 495> 350 100<330 403>
Fore
587 172 m 1
 178 172 l 1
 189 112 237 84 325 84 c 0
 369 84 398 89 493 112 c 0
 506 115 519 117 528 117 c 0
 551 117 566 101 566 79 c 0
 566 57 554 39 533 28 c 0
 490 5 374 -16 294 -16 c 0
 158 -16 74 55 74 169 c 0
 74 318 221 450 387 450 c 0
 517 450 600 375 600 259 c 0
 600 243 598 227 595 211 c 1
 587 172 l 1
200 260 m 1
 495 260 l 1
 490 314 439 350 367 350 c 0
 293 350 228 315 200 260 c 1
425 586 m 1
 558 682 l 2
 572 692 580 696 589 696 c 0
 605 696 617 684 617 667 c 0
 617 654 610 643 596 632 c 0
 592 630 588 627 585 625 c 2
 407 497 l 1
 281 625 l 2
 265 642 264 643 264 653 c 0
 264 675 285 696 307 696 c 0
 317 696 322 693 332 682 c 2
 425 586 l 1
EndSplineSet
EndChar
StartChar: Gbreve
Encoding: 286 286
Width: 600
Flags: HMW
HStem: -14 100<292 366.5> 180 100<410 488 588 588> 497 100<403 459.5> 647 67<436 476>
VStem: 79 102<163 194.5> 332 310<226.5 228>
Fore
588 180 m 1
 560 48 l 1
 460 0 407 -14 327 -14 c 0
 257 -14 193 2 149 32 c 0
 103 63 79 115 79 184 c 0
 79 205 81 225 86 246 c 1
 101 317 l 2
 117 393 163 467 228 520 c 0
 292 572 362 597 444 597 c 0
 498 597 544 587 583 565 c 1
 599 589 611 597 630 597 c 0
 652 597 667 582 667 560 c 0
 667 552 667 550 663 531 c 2
 646 453 l 2
 640 426 637 418 627 408 c 0
 615 395 598 387 582 387 c 0
 569 387 556 393 551 402 c 0
 546 409 546 409 544 440 c 0
 542 475 496 497 423 497 c 0
 313 497 223 425 201 317 c 1
 187 253 l 2
 183 234 181 217 181 199 c 0
 181 127 239 86 342 86 c 0
 391 86 431 94 474 111 c 1
 488 180 l 1
 389 180 l 2
 348 180 332 191 332 220 c 0
 332 236 341 254 355 266 c 0
 370 278 379 280 410 280 c 2
 585 280 l 2
 605 280 611 279 620 276 c 0
 633 272 642 257 642 241 c 0
 642 212 621 189 588 180 c 1
329 831 m 0
 349 831 354 824 357 791 c 0
 360 759 364 751 381 738 c 0
 400 722 423 714 449 714 c 0
 503 714 553 746 569 791 c 0
 580 821 591 831 612 831 c 0
 627 831 637 820 637 803 c 0
 637 729 532 647 436 647 c 0
 353 647 286 705 286 777 c 0
 286 808 304 831 329 831 c 0
EndSplineSet
EndChar
StartChar: gbreve
Encoding: 287 287
Width: 600
Flags: W
HStem: -205 100<162 295> -13.8798 100.772<265 289> 337 100<581 619> 351 99.1779<344 361> 503 68<405 425>
VStem: 73.2471 103.552<168 193> 261.941 68.3144<630 650>
DStem: 417 35 581 337 405 -20 505 -20
Fore
495 401 m 1
 502 437 l 1
 619 437 l 2
 639 437 645 436 653 433 c 0
 666 429 675 414 675 397 c 0
 675 381 666 364 652 352 c 0
 638 340 627 337 597 337 c 2
 581 337 l 1
 505 -20 l 1
 483 -126 384 -205 274 -205 c 2
 163 -205 l 2
 122 -205 106 -194 106 -165 c 0
 106 -149 115 -131 129 -120 c 0
 144 -107 153 -105 184 -105 c 2
 293 -105 l 2
 350 -105 394 -72 405 -20 c 2
 417 35 l 1
 363 1 317 -14 265 -14 c 0
 151 -14 73 60 73 168 c 0
 73 318 211 451 365 451 c 0
 418 451 463 434 495 401 c 1
345 351 m 0
 259 351 176 274 176 193 c 0
 176 130 223 86 289 86 c 0
 377 86 459 163 459 244 c 0
 459 307 412 351 345 351 c 0
306 687 m 0
 324 687 331 677 330 650 c 0
 330 602 365 571 421 571 c 0
 476 571 525 601 544 647 c 0
 558 678 567 687 587 687 c 0
 604 687 614 677 614 660 c 0
 614 640 599 609 578 584 c 0
 534 533 471 503 407 503 c 0
 324 503 261 558 261 630 c 0
 261 664 279 687 306 687 c 0
EndSplineSet
MinimumDistance: x7,-1 
EndChar
StartChar: Gcommaaccent
Encoding: 290 290
Width: 600
Flags: HMW
HStem: -14 100<292 366.5> 180 100<410 488 588 588> 497 100<403 459.5>
VStem: 79 102<163 194.5> 332 310<226.5 228>
Fore
588 180 m 1
 560 48 l 1
 460 0 407 -14 327 -14 c 0
 257 -14 193 2 149 32 c 0
 103 63 79 115 79 184 c 0
 79 205 81 225 86 246 c 1
 101 317 l 2
 117 393 163 467 228 520 c 0
 292 572 362 597 444 597 c 0
 498 597 544 587 583 565 c 1
 599 589 611 597 630 597 c 0
 652 597 667 582 667 560 c 0
 667 552 667 550 663 531 c 2
 646 453 l 2
 640 426 637 418 627 408 c 0
 615 395 598 387 582 387 c 0
 569 387 556 393 551 402 c 0
 546 409 546 409 544 440 c 0
 542 475 496 497 423 497 c 0
 313 497 223 425 201 317 c 1
 187 253 l 2
 183 234 181 217 181 199 c 0
 181 127 239 86 342 86 c 0
 391 86 431 94 474 111 c 1
 488 180 l 1
 389 180 l 2
 348 180 332 191 332 220 c 0
 332 236 341 254 355 266 c 0
 370 278 379 280 410 280 c 2
 585 280 l 2
 605 280 611 279 620 276 c 0
 633 272 642 257 642 241 c 0
 642 212 621 189 588 180 c 1
321 -126 m 1
 218 -253 l 2
 204 -270 190 -278 175 -278 c 0
 160 -278 147 -265 147 -250 c 0
 147 -238 151 -229 167 -211 c 1
 271 -83 l 2
 284 -67 298 -59 313 -59 c 0
 329 -59 342 -72 342 -87 c 0
 342 -100 338 -108 327 -120 c 2
 321 -126 l 1
EndSplineSet
EndChar
StartChar: gcommaaccent
Encoding: 291 291
Width: 600
Flags: W
HStem: -205 100<162 295> -13.8798 100.772<265 289> 337 100<581 619> 351 99.1779<344 362>
VStem: 73.2471 103.552<168 193>
DStem: 417 35 581 337 405 -20 505 -20 487 698 537 655 383 570 434 529
Fore
495 401 m 1
 502 437 l 1
 619 437 l 2
 639 437 645 436 653 433 c 0
 666 429 675 414 675 397 c 0
 675 381 666 364 652 352 c 0
 638 340 627 337 597 337 c 2
 581 337 l 1
 505 -20 l 1
 483 -126 384 -205 274 -205 c 2
 163 -205 l 2
 122 -205 106 -194 106 -165 c 0
 106 -149 115 -131 129 -120 c 0
 144 -107 153 -105 184 -105 c 2
 293 -105 l 2
 350 -105 394 -72 405 -20 c 2
 417 35 l 1
 363 1 317 -14 265 -14 c 0
 151 -14 73 60 73 168 c 0
 73 318 211 451 365 451 c 0
 418 451 463 434 495 401 c 1
345 351 m 0
 259 351 176 274 176 193 c 0
 176 130 223 86 289 86 c 0
 377 86 459 163 459 244 c 0
 459 307 412 351 345 351 c 0
537 655 m 1
 434 529 l 2
 421 513 406 504 391 504 c 0
 376 504 363 517 363 532 c 0
 363 544 368 553 383 570 c 1
 487 698 l 2
 500 714 514 722 529 722 c 0
 545 722 558 709 558 694 c 0
 558 682 554 673 543 661 c 2
 537 655 l 1
EndSplineSet
MinimumDistance: x7,-1 
EndChar
StartChar: Imacron
Encoding: 298 298
Width: 600
Flags: HMW
HStem: 0 100<171 272 372 451> 483 100<274 353 453 554 453 453> 696 80<336 563>
VStem: 196 436
Fore
453 483 m 1
 372 100 l 1
 472 100 l 2
 492 100 499 99 507 96 c 0
 520 92 529 77 529 61 c 0
 529 44 520 27 506 15 c 0
 492 3 480 0 451 0 c 2
 150 0 l 2
 109 0 93 11 93 40 c 0
 93 56 102 73 116 85 c 0
 131 98 139 100 171 100 c 2
 272 100 l 1
 353 483 l 1
 252 483 l 2
 211 483 196 494 196 523 c 0
 196 539 205 557 219 568 c 0
 234 581 242 583 274 583 c 2
 575 583 l 2
 595 583 602 582 610 579 c 0
 622 575 632 559 632 544 c 0
 632 527 623 509 609 498 c 0
 594 486 584 483 554 483 c 2
 453 483 l 1
336 776 m 2
 580 776 l 2
 613 776 625 767 625 743 c 0
 625 716 599 696 563 696 c 2
 319 696 l 2
 286 696 274 704 274 729 c 0
 274 757 299 776 336 776 c 2
EndSplineSet
EndChar
StartChar: imacron
Encoding: 299 299
Width: 600
Flags: HMW
HStem: 0 100<150 272 372 472> 337 100<265 322> 546 80<311 538>
VStem: 72 478
Fore
443 437 m 1
 372 100 l 1
 493 100 l 2
 513 100 520 99 528 96 c 0
 541 92 550 76 550 60 c 0
 550 44 541 27 527 15 c 0
 513 4 500 0 472 0 c 2
 129 0 l 2
 88 0 72 11 72 40 c 0
 72 56 81 73 95 85 c 0
 110 98 118 100 150 100 c 2
 272 100 l 1
 322 337 l 1
 244 337 l 2
 202 337 186 348 186 377 c 0
 186 393 195 411 209 422 c 0
 224 435 233 437 265 437 c 2
 443 437 l 1
311 626 m 2
 555 626 l 2
 588 626 600 617 600 593 c 0
 600 566 574 546 538 546 c 2
 294 546 l 2
 261 546 249 554 249 579 c 0
 249 607 274 626 311 626 c 2
EndSplineSet
EndChar
StartChar: Iogonek
Encoding: 302 302
Width: 600
Flags: W
HStem: 0 100<149 272 373 393> 483 100<251 352 453 576>
VStem: 93.0117 435.988<40 61> 196.012 435.988<523 544> 281 206<-144 -131>
DStem: 353 483 453 483 272 100 372 100
Fore
453 483 m 1
 372 100 l 1
 472 100 l 2
 492 100 499 99 507 96 c 0
 520 92 529 77 529 61 c 0
 529 33 514 16 475 -1 c 0
 412 -27 363 -77 363 -114 c 0
 363 -125 368 -130 380 -130 c 0
 392 -130 399 -128 433 -114 c 0
 443 -109 449 -108 456 -108 c 0
 475 -108 487 -121 487 -140 c 0
 487 -154 478 -169 464 -178 c 0
 438 -195 391 -208 358 -208 c 0
 310 -208 281 -180 281 -135 c 0
 281 -93 302 -57 340 -31 c 0
 356 -21 367 -14 394 0 c 1
 150 0 l 2
 109 0 93 11 93 40 c 0
 93 56 102 73 116 85 c 0
 131 98 139 100 171 100 c 2
 272 100 l 1
 353 483 l 1
 252 483 l 2
 211 483 196 494 196 523 c 0
 196 539 205 557 219 568 c 0
 234 581 242 583 274 583 c 2
 575 583 l 2
 595 583 602 582 610 579 c 0
 622 575 632 559 632 544 c 0
 632 527 623 509 609 498 c 0
 594 486 584 483 554 483 c 2
 453 483 l 1
EndSplineSet
MinimumDistance: x10,-1 
EndChar
StartChar: iogonek
Encoding: 303 303
Width: 600
Flags: HMW
HStem: 0 100<150 272 372 409> 337 100<265 322> 518 105<351 446>
VStem: 302 211<-145.5 -129>
Fore
443 437 m 1
 372 100 l 1
 493 100 l 2
 513 100 520 99 528 96 c 0
 541 92 550 76 550 61 c 0
 550 51 546 39 541 31 c 0
 531 17 531 17 465 -25 c 0
 415 -57 383 -93 383 -117 c 0
 383 -127 390 -132 402 -132 c 0
 415 -132 427 -128 458 -114 c 0
 469 -109 475 -108 482 -108 c 0
 500 -108 513 -120 513 -138 c 0
 513 -153 503 -169 489 -178 c 0
 461 -195 415 -208 379 -208 c 0
 331 -208 302 -183 302 -142 c 0
 302 -107 319 -70 350 -41 c 0
 366 -25 373 -20 409 0 c 1
 129 0 l 2
 88 0 72 11 72 40 c 0
 72 56 81 73 95 85 c 0
 110 98 118 100 150 100 c 2
 272 100 l 1
 322 337 l 1
 244 337 l 2
 202 337 186 348 186 377 c 0
 186 393 195 411 209 422 c 0
 224 435 233 437 265 437 c 2
 443 437 l 1
469 623 m 1
 446 518 l 1
 328 518 l 1
 351 623 l 1
 469 623 l 1
EndSplineSet
EndChar
StartChar: Idotaccent
Encoding: 304 304
Width: 600
Flags: W
HStem: 0 100<149 272 373 473> 483 100<251 352 453 576> 671.008 121.992<439 464>
VStem: 93.0117 435.988<40 61> 196.012 435.988<523 544> 391.009 121.991<720 744>
DStem: 353 483 453 483 272 100 372 100
Fore
453 483 m 1
 372 100 l 1
 472 100 l 2
 492 100 499 99 507 96 c 0
 520 92 529 77 529 61 c 0
 529 44 520 27 506 15 c 0
 492 3 480 0 451 0 c 2
 150 0 l 2
 109 0 93 11 93 40 c 0
 93 56 102 73 116 85 c 0
 131 98 139 100 171 100 c 2
 272 100 l 1
 353 483 l 1
 252 483 l 2
 211 483 196 494 196 523 c 0
 196 539 205 557 219 568 c 0
 234 581 242 583 274 583 c 2
 575 583 l 2
 595 583 602 582 610 579 c 0
 622 575 632 559 632 544 c 0
 632 527 623 509 609 498 c 0
 594 486 584 483 554 483 c 2
 453 483 l 1
464 793 m 0
 492 793 513 772 513 744 c 0
 513 706 477 671 439 671 c 0
 414 671 391 694 391 720 c 0
 391 756 428 793 464 793 c 0
EndSplineSet
MinimumDistance: x23,-1 
EndChar
StartChar: dotlessi
Encoding: 305 305
Width: 600
Flags: HMW
HStem: 0 100<150 272 372 472> 337 100<265 322>
VStem: 72 478
Fore
443 437 m 1
 372 100 l 1
 493 100 l 2
 513 100 520 99 528 96 c 0
 541 92 550 76 550 60 c 0
 550 44 541 27 527 15 c 0
 513 4 500 0 472 0 c 2
 129 0 l 2
 88 0 72 11 72 40 c 0
 72 56 81 73 95 85 c 0
 110 98 118 100 150 100 c 2
 272 100 l 1
 322 337 l 1
 244 337 l 2
 202 337 186 348 186 377 c 0
 186 393 195 411 209 422 c 0
 224 435 233 437 265 437 c 2
 443 437 l 1
EndSplineSet
EndChar
StartChar: IJ
Encoding: 306 306
Width: 600
Flags: W
HStem: -14 100<401 422> 0 100<58 91 192 200> 483 100<160 171 272 303 520 536 637 670>
VStem: 2.01166 253.988<40 61> 105.012 253.988<523 544> 464.012 261.988<523 543>
DStem: 172 483 272 483 91 100 191 100 301 213 402 213 280 113 381 117 537 483 637 483 476 198 574 187
Fore
272 483 m 1
 191 100 l 1
 199 100 l 2
 219 100 226 99 234 96 c 0
 247 92 256 77 256 61 c 0
 256 44 247 27 233 15 c 0
 219 3 207 0 178 0 c 2
 59 0 l 2
 18 0 2 11 2 40 c 0
 2 56 11 73 25 85 c 0
 40 98 48 100 80 100 c 2
 91 100 l 1
 172 483 l 1
 161 483 l 2
 120 483 105 494 105 523 c 0
 105 539 114 557 128 568 c 0
 143 581 151 583 183 583 c 2
 302 583 l 2
 322 583 329 582 337 579 c 0
 349 575 359 559 359 544 c 0
 359 527 350 509 336 498 c 0
 321 486 311 483 281 483 c 2
 272 483 l 1
637 483 m 1
 574 187 l 1
 539 0 519 -14 402 -14 c 0
 344 -14 265 26 280 113 c 1
 301 213 l 1
 307 240 311 249 321 259 c 0
 333 272 350 280 366 280 c 0
 389 280 406 264 406 243 c 0
 406 235 405 232 402 213 c 1
 381 117 l 1
 384 86 389 86 422 86 c 0
 461 87 464 148 476 198 c 1
 537 483 l 1
 521 483 l 2
 480 483 464 494 464 523 c 0
 464 539 473 556 487 569 c 0
 502 581 511 583 542 583 c 2
 669 583 l 2
 689 583 696 582 704 579 c 0
 717 575 726 560 726 543 c 0
 726 527 717 509 703 498 c 0
 689 486 678 483 648 483 c 2
 637 483 l 1
EndSplineSet
Ligature: I J
EndChar
StartChar: ij
Encoding: 307 307
Width: 600
Flags: W
HStem: -205 100<226 361> 0 100<75 189 290 369> 337 100<160 238 444 546> 518 105<268 363 530 627>
VStem: 19.0117 407.988<40 60>
DStem: 239 337 360 437 189 100 289 100 268 623 386 623 245 518 363 518 530 623 650 623 508 518 627 518 547 337 668 437 471 -20 571 -20
Fore
360 437 m 1
 289 100 l 1
 370 100 l 2
 390 100 397 99 405 96 c 0
 418 92 427 76 427 60 c 0
 427 44 418 27 404 15 c 0
 390 4 377 0 349 0 c 2
 76 0 l 2
 35 0 19 11 19 40 c 0
 19 56 28 73 42 85 c 0
 57 98 65 100 97 100 c 2
 189 100 l 1
 239 337 l 1
 161 337 l 2
 119 337 103 348 103 377 c 0
 103 393 112 411 126 422 c 0
 141 435 150 437 182 437 c 2
 360 437 l 1
386 623 m 1
 363 518 l 1
 245 518 l 1
 268 623 l 1
 386 623 l 1
547 337 m 1
 445 337 l 2
 404 337 388 348 388 377 c 0
 388 393 397 410 411 422 c 0
 426 435 435 437 466 437 c 2
 668 437 l 1
 571 -20 l 1
 549 -125 449 -205 340 -205 c 2
 227 -205 l 2
 186 -205 170 -194 170 -165 c 0
 170 -149 179 -132 193 -120 c 0
 208 -107 217 -105 248 -105 c 2
 358 -105 l 2
 416 -105 460 -72 471 -20 c 2
 547 337 l 1
650 623 m 1
 627 518 l 1
 508 518 l 1
 530 623 l 1
 650 623 l 1
EndSplineSet
Ligature: i j
EndChar
StartChar: jcircumflex
Encoding: 309 309
Width: 600
Flags: W
HStem: -205 100<139 273> 337 100<255 459>
DStem: 460 337 581 437 384 -20 484 -20 501 666 520 755 593 569 644 626 520 755 501 666 340 626 367 569
Fore
460 337 m 1
 258 337 l 2
 217 337 201 348 201 377 c 0
 201 393 210 410 224 422 c 0
 239 435 248 437 279 437 c 2
 581 437 l 1
 484 -20 l 1
 462 -125 362 -205 253 -205 c 2
 140 -205 l 2
 99 -205 83 -194 83 -165 c 0
 83 -149 92 -132 106 -120 c 0
 121 -107 130 -105 161 -105 c 2
 271 -105 l 2
 329 -105 373 -72 384 -20 c 2
 460 337 l 1
501 666 m 1
 367 569 l 2
 354 560 345 556 336 556 c 0
 320 556 308 568 308 584 c 0
 308 601 313 607 340 626 c 2
 520 755 l 1
 644 626 l 2
 660 610 661 609 661 599 c 0
 661 577 640 556 618 556 c 0
 609 556 601 560 593 569 c 2
 501 666 l 1
EndSplineSet
EndChar
StartChar: Kcommaaccent
Encoding: 310 310
Width: 600
Flags: HMW
HStem: 0 100<100 115 215 228 525 535> 483 100<296 296 296 331 613 626.5>
VStem: 452 235
Fore
238 208 m 1
 215 100 l 1
 250 100 l 2
 270 100 276 99 284 96 c 0
 297 92 306 76 306 60 c 0
 306 44 297 27 283 15 c 0
 270 4 256 0 228 0 c 2
 79 0 l 2
 38 0 22 12 22 40 c 0
 22 56 31 73 45 85 c 0
 60 98 68 100 100 100 c 2
 115 100 l 1
 196 483 l 1
 181 483 l 2
 140 483 125 494 125 523 c 0
 125 539 134 556 148 569 c 0
 163 581 171 583 203 583 c 2
 352 583 l 2
 372 583 379 582 387 579 c 0
 400 575 409 560 409 543 c 0
 409 527 400 509 386 498 c 0
 372 486 361 483 331 483 c 2
 296 483 l 1
 265 334 l 1
 475 487 l 1
 459 493 452 503 452 520 c 0
 452 538 461 556 476 568 c 0
 490 581 499 583 530 583 c 2
 631 583 l 2
 650 583 657 582 665 579 c 0
 678 575 687 560 687 544 c 0
 687 527 678 510 664 498 c 0
 650 486 640 483 613 483 c 1
 404 330 l 1
 459 298 503 215 525 100 c 1
 557 100 l 2
 577 100 583 99 592 96 c 0
 604 92 614 76 614 61 c 0
 614 45 605 26 591 15 c 0
 577 4 563 0 535 0 c 2
 426 0 l 1
 409 143 365 240 308 259 c 1
 238 208 l 1
321 -126 m 1
 218 -253 l 2
 204 -270 190 -278 175 -278 c 0
 160 -278 147 -265 147 -250 c 0
 147 -238 151 -229 167 -211 c 1
 271 -83 l 2
 284 -67 298 -59 313 -59 c 0
 329 -59 342 -72 342 -87 c 0
 342 -100 338 -108 327 -120 c 2
 321 -126 l 1
EndSplineSet
EndChar
